<svg id="Capa_1" enable-background="new 0 0 512 512" height="512" viewBox="0 0 512 512" width="512" xmlns="http://www.w3.org/2000/svg"><g><path d="m286.124 248.782c-4.142 0-7.5 3.358-7.5 7.5 0 12.475-10.149 22.624-22.624 22.624s-22.624-10.149-22.624-22.624c0-4.142-3.358-7.5-7.5-7.5s-7.5 3.358-7.5 7.5c0 20.746 16.878 37.624 37.624 37.624s37.624-16.878 37.624-37.624c0-4.142-3.358-7.5-7.5-7.5z"/><path d="m223.059 220.374c0-20.013-16.282-36.294-36.294-36.294s-36.294 16.281-36.294 36.294c0 4.142 3.358 7.5 7.5 7.5s7.5-3.358 7.5-7.5c0-11.742 9.552-21.294 21.294-21.294s21.294 9.552 21.294 21.294c0 4.142 3.358 7.5 7.5 7.5s7.5-3.358 7.5-7.5z"/><path d="m325.236 184.08c-20.013 0-36.294 16.281-36.294 36.294 0 4.142 3.358 7.5 7.5 7.5s7.5-3.358 7.5-7.5c0-11.742 9.553-21.294 21.294-21.294s21.294 9.552 21.294 21.294c0 4.142 3.358 7.5 7.5 7.5s7.5-3.358 7.5-7.5c0-20.013-16.281-36.294-36.294-36.294z"/><path d="m402.021 147.327c-7.62-37.631-29.618-71.007-62.119-93.016-3.292-18.54-15.982-32.833-32.065-42.465-3.555-2.129-8.161-.973-10.288 2.582-2.128 3.553-.972 8.159 2.581 10.288 5.801 3.473 8.725 6.558 9.805 7.294 8.45 6.242 15.319 18.714 15.653 29.001.295 8.727-2.148 18.476-8.934 23.384-.063.046-.125.092-.186.139-5.698 4.397-9.834 10.372-9.834 17.512 0 .048.005.096.005.143.048 5.973 2.611 9.355 5.494 14.101-12.372-5.161-23.286-10.996-32.595-17.437-11.14-7.705-24.349 1.109-28.395 11.537-3.426 8.654.224 14.41 4.201 20.958-17.823-7.447-32.712-16.312-43.706-26.09-13.987-12.439-21.38-26.144-21.38-39.631 0-8.663-.018-7.569.052-9.051 1.006-21.264 25.036-46.239 79.79-41.031 4.129.394 7.784-2.633 8.176-6.756s-2.633-7.784-6.756-8.176c-5.699-.543-10.854-.613-14.709-.613-2.438 0-4.791.032-6.626.032-38.607 0-70.479 22.729-74.492 51.814-20.134 12.776-37.023 30.322-48.987 50.964-8.021 13.839-13.701 28.901-16.881 44.529-28.671 2.196-51.334 26.21-51.334 55.435 0 29.219 22.654 53.229 51.318 55.433 6.786 33.314 24.799 62.59 49.895 83.708-30.382 23.447-48.234 59.422-48.234 98.221v14.661c0 4.142 3.358 7.5 7.5 7.5s7.5-3.358 7.5-7.5v-14.661c0-27.279 10.043-52.968 27.725-72.711v10.878c0 56.246 45.759 102.005 102.005 102.005s102.006-45.759 102.006-102.005v-10.866c7.98 8.924 14.475 19.132 19.2 30.339.003.007.006.014.009.021 5.651 13.41 8.516 27.655 8.516 42.339v56.864h-259.462v-7.204c0-4.142-3.358-7.5-7.5-7.5s-7.5 3.358-7.5 7.5v14.704c0 4.142 3.358 7.5 7.5 7.5h274.461c4.142 0 7.5-3.358 7.5-7.5v-64.365c0-16.696-3.261-32.901-9.693-48.165-.003-.008-.007-.015-.01-.023-8.334-19.767-21.484-36.813-38.328-49.869-.148-.115-.294-.231-.442-.345-.02-.016-.04-.032-.06-.047 24.952-21.097 42.859-50.277 49.623-83.467 28.745-2.12 51.49-26.169 51.49-55.447 0-29.276-22.744-53.324-51.489-55.445zm-294.503 95.527c-19.273-3.157-34.027-19.929-34.027-40.082s14.754-36.924 34.027-40.081c-.84 8.751-1.229 67.348 0 80.163zm235.687 135.448c0 47.975-39.031 87.005-87.006 87.005s-87.005-39.03-87.005-87.005v-24.759c.981-.754 1.973-1.484 2.971-2.2 4.172 2.821 8.499 5.429 12.958 7.822v19.138c0 39.191 31.885 71.076 71.077 71.076s71.077-31.885 71.077-71.076v-19.438c4.364-2.366 8.595-4.946 12.682-7.724 1.092.778 2.177 1.575 3.247 2.398zm-143.082 0v-12.141c19.338 7.727 37.452 10.506 56.813 10.506 19.556 0 38.235-3.82 55.34-10.738v12.373c0 30.92-25.156 56.076-56.077 56.076s-56.076-25.156-56.076-56.076zm188.246-128.906c-10.323 65.508-67.254 112.271-132.369 112.271-48.87 0-77.531-25.552-81.035-26.751-26.991-20.344-46.019-50.711-51.504-85.52-2.108-13.437-1.628-19.414-1.628-72.456 0-40.771 19.296-81.076 53.624-106.737 3.669 42.109 54.918 69.737 95.134 82.729 6.6 2.132 12.296-5.137 8.715-11.031l-13.727-22.595c-.236-.388-.41-.755-.53-1.107-.608-1.464.455-3.142.505-3.229.715-1.2 1.96-2.487 3.649-3.737.758-.42 1.463-.32 1.8-.045 3.399 2.352 6.996 4.621 10.763 6.815 5.72 3.331 11.846 6.481 18.38 9.431 8.429 3.806 17.518 7.287 27.223 10.423 2.98.963 6.248-.029 8.19-2.487s2.152-5.866.525-8.543l-13.726-22.594c-2.62-4.309 2.865-7.159 6.155-10.214 6.065-5.635 9.566-13.191 11.143-21.317 31.896 25.277 50.338 63.476 50.338 104.238.003 55.611.434 59.329-1.625 72.456zm15.941-6.514c1.236-12.84.853-71.337.005-80.217 19.356 3.087 34.195 19.898 34.195 40.108 0 20.213-14.843 37.024-34.2 40.109z"/></g></svg>