<svg xmlns="http://www.w3.org/2000/svg" width="19.999" height="19.999" viewBox="0 0 19.999 19.999">
  <g id="Cart" transform="translate(0 -6.028)">
    <g id="Group_85" data-name="Group 85" transform="translate(0 6.028)">
      <g id="Group_84" data-name="Group 84" transform="translate(0 0)">
        <path id="Path_288" data-name="Path 288" d="M98.781,350.322a2.128,2.128,0,1,0,2.128,2.128A2.128,2.128,0,0,0,98.781,350.322Zm0,3.31a1.182,1.182,0,1,1,1.182-1.182A1.182,1.182,0,0,1,98.781,353.632Z" transform="translate(-92.383 -334.578)"/>
        <path id="Path_289" data-name="Path 289" d="M297.312,350.322a2.128,2.128,0,1,0,2.128,2.128A2.128,2.128,0,0,0,297.312,350.322Zm0,3.31a1.182,1.182,0,1,1,1.182-1.182A1.182,1.182,0,0,1,297.312,353.632Z" transform="translate(-282.208 -334.578)"/>
        <path id="Path_290" data-name="Path 290" d="M19.9,9.232a.574.574,0,0,0-.371-.191l-15.1-.215L4.013,7.51a2.141,2.141,0,0,0-2-1.482H.464a.478.478,0,0,0,0,.956H2.018a1.211,1.211,0,0,1,1.114.837l2.946,9.158-.232.55a2.356,2.356,0,0,0,.209,2.08,2.144,2.144,0,0,0,1.74,1h9.024a.478.478,0,0,0,0-.956H7.795a1.177,1.177,0,0,1-.974-.574A1.35,1.35,0,0,1,6.7,17.935l.186-.43,9.767-1.052a2.579,2.579,0,0,0,2.2-2.008l1.114-4.806A.416.416,0,0,0,19.9,9.232Zm-1.949,5A1.594,1.594,0,0,1,16.541,15.5L6.89,16.525,4.733,9.782,18.954,10Z" transform="translate(0 -6.028)"/>
      </g>
    </g>
  </g>
</svg>
