<svg xmlns="http://www.w3.org/2000/svg" width="80" height="80" viewBox="0 0 80 80">
	<path id="Subtraction_5" data-name="Subtraction 5" d="M40,80A40.011,40.011,0,0,1,24.43,3.143a40.01,40.01,0,0,1,31.14,73.713A39.749,39.749,0,0,1,40,80ZM25.933,61.388h0a25.872,25.872,0,1,0-8-8.738.968.968,0,0,1,.136.685c-.073.754-.711,2.091-3.336,4.185a2.27,2.27,0,0,0-1.082,2.38c.392,1.377,2.347,2.326,3.986,2.52a14.661,14.661,0,0,0,1.654.08c2.25,0,5.174-.344,6.635-1.113Zm14.594,1.033a22.149,22.149,0,0,1-13.763-4.768c-.045,0-.234.045-.521.113a25.065,25.065,0,0,1-5.235.785,5.72,5.72,0,0,1-1.787-.235,5.964,5.964,0,0,0,2.543-4.357,5.65,5.65,0,0,0-.261-2.244A22.249,22.249,0,1,1,40.527,62.421ZM52.589,36.776a4.647,4.647,0,0,0-4.977,4.941,4.56,4.56,0,0,0,4.824,4.809,4.692,4.692,0,0,0,4.921-4.98A4.515,4.515,0,0,0,52.589,36.776ZM40.88,39.1c.9,0,1.373.739,1.373,2.137v4a1.337,1.337,0,0,0,.181.9.52.52,0,0,0,.412.174h1.562c.007,0,.667-.074.667-.993v-4.5c0-2.533-1.176-4.045-3.146-4.045a3.382,3.382,0,0,0-1.774.458,4.157,4.157,0,0,0-1.2,1.125h-.039a2.631,2.631,0,0,0-2.555-1.584,3.224,3.224,0,0,0-2.822,1.47H33.48l-.074-.7a.694.694,0,0,0-.676-.559H31.52a.582.582,0,0,0-.437.159.611.611,0,0,0-.153.4c0,.062.051,1.524.051,2.415v5.36c0,.01.011.994.929.994H33.16a.565.565,0,0,0,.439-.18,1.222,1.222,0,0,0,.205-.813V40.878a1.872,1.872,0,0,1,.115-.725A1.472,1.472,0,0,1,35.273,39.1c.861,0,1.335.7,1.335,1.985v4.235c0,.927.724.993.732.994h1.289a.729.729,0,0,0,.54-.206,1.12,1.12,0,0,0,.263-.709V40.859a2.452,2.452,0,0,1,.114-.744A1.418,1.418,0,0,1,40.88,39.1Zm-15.3-2.118a.588.588,0,0,0-.589.6V45.6c0,.681.505.72.51.72h1.718a.6.6,0,0,0,.454-.178,1.017,1.017,0,0,0,.216-.66V37.7a.655.655,0,0,0-.63-.716Zm.86-4.854a1.568,1.568,0,0,0-1.139.439,1.409,1.409,0,0,0-.387,1.03,1.385,1.385,0,0,0,.388,1.011,1.541,1.541,0,0,0,1.119.44,1.463,1.463,0,1,0,.019-2.92ZM52.512,44.446a1.63,1.63,0,0,1-1.418-.8,3.724,3.724,0,0,1-.489-2c0-1.356.5-2.8,1.907-2.8,1.365,0,1.85,1.511,1.85,2.8C54.362,43.345,53.636,44.446,52.512,44.446Z" fill="#fff" />
</svg>
