<svg xmlns="http://www.w3.org/2000/svg" width="80" height="80" viewBox="0 0 80 80">
	<path id="Subtraction_4" data-name="Subtraction 4" d="M40,80A40.011,40.011,0,0,1,24.43,3.143a40.01,40.01,0,0,1,31.14,73.713A39.749,39.749,0,0,1,40,80Zm-.155-66.693c-7.165,0-8.107.03-10.941.159A19.618,19.618,0,0,0,22.462,14.7,13.575,13.575,0,0,0,14.7,22.461,19.635,19.635,0,0,0,13.468,28.9c-.13,2.831-.16,3.772-.16,10.941s.031,8.112.16,10.941A19.634,19.634,0,0,0,14.7,57.228a13.57,13.57,0,0,0,7.762,7.761A19.621,19.621,0,0,0,28.9,66.223c2.834.129,3.776.159,10.941.159s8.107-.03,10.941-.159a19.628,19.628,0,0,0,6.441-1.234,13.594,13.594,0,0,0,7.761-7.761,19.584,19.584,0,0,0,1.234-6.442c.129-2.834.159-3.776.159-10.941s-.03-8.107-.159-10.941a19.594,19.594,0,0,0-1.234-6.441A13.573,13.573,0,0,0,57.227,14.7a19.623,19.623,0,0,0-6.441-1.232C47.956,13.338,47.016,13.307,39.845,13.307Zm0,48.294c-7.087,0-7.926-.027-10.723-.155a14.709,14.709,0,0,1-4.927-.913A8.791,8.791,0,0,1,19.156,55.5a14.711,14.711,0,0,1-.913-4.928c-.127-2.8-.154-3.64-.154-10.723s.027-7.923.154-10.724a14.726,14.726,0,0,1,.913-4.927,8.784,8.784,0,0,1,5.037-5.036,14.689,14.689,0,0,1,4.927-.914c2.8-.127,3.64-.154,10.723-.154s7.926.027,10.723.155a14.673,14.673,0,0,1,4.928.913,8.786,8.786,0,0,1,5.036,5.036,14.673,14.673,0,0,1,.913,4.927c.128,2.8.155,3.636.155,10.723,0,7.11-.027,7.946-.155,10.723a14.676,14.676,0,0,1-.913,4.928A8.8,8.8,0,0,1,55.5,60.533a14.709,14.709,0,0,1-4.928.913C47.771,61.574,46.932,61.6,39.845,61.6Zm0-35.384A13.627,13.627,0,1,0,53.472,39.845,13.643,13.643,0,0,0,39.845,26.217Zm14.166-3.722a3.185,3.185,0,1,0,3.184,3.184A3.188,3.188,0,0,0,54.011,22.495Zm-14.166,26.2a8.846,8.846,0,1,1,8.846-8.846A8.857,8.857,0,0,1,39.845,48.691Z" fill="#fff" />
</svg>
