<svg id="odnoklassniki-logo" xmlns="http://www.w3.org/2000/svg" width="80" height="80" viewBox="0 0 80 80">
	<g id="Group_143" data-name="Group 143">
		<path id="Path_3292" data-name="Path 3292" d="M47.382,37.447a6.895,6.895,0,1,0-6.937-6.826A6.848,6.848,0,0,0,47.382,37.447Z" transform="translate(-7.344 -4.296)" fill="#fff" />
		<path id="Path_3293" data-name="Path 3293" d="M40,0A40,40,0,1,0,80,40,40,40,0,0,0,40,0Zm.057,12.164A14.089,14.089,0,1,1,25.922,26.222,14.094,14.094,0,0,1,40.057,12.164ZM55.838,45.878a16.933,16.933,0,0,1-6.1,3.941,28.681,28.681,0,0,1-6.925,1.552c.358.388.525.579.748.8,3.2,3.222,6.425,6.428,9.62,9.659a3.182,3.182,0,0,1,.716,3.746,3.794,3.794,0,0,1-3.561,2.22,3.467,3.467,0,0,1-2.254-1.152c-2.419-2.434-4.884-4.825-7.253-7.3-.692-.722-1.022-.584-1.632.043-2.433,2.506-4.906,4.972-7.394,7.425a3.1,3.1,0,0,1-3.743.671,3.785,3.785,0,0,1-2.186-3.488,3.488,3.488,0,0,1,1.174-2.339q4.759-4.75,9.5-9.517c.21-.21.405-.434.71-.761-4.315-.451-8.207-1.513-11.539-4.118a15.255,15.255,0,0,1-1.217-1,3.458,3.458,0,0,1,3.914-5.636,6.766,6.766,0,0,1,.956.564,18.917,18.917,0,0,0,20.971.191,5.687,5.687,0,0,1,2.043-1.055,3.2,3.2,0,0,1,3.671,1.466A3.11,3.11,0,0,1,55.838,45.878Z" fill="#fff" />
	</g>
</svg>
