<svg xmlns="http://www.w3.org/2000/svg" width="80" height="79.999" viewBox="0 0 80 79.999">
	<g id="telegram" transform="translate(0 0)">
		<path id="Subtraction_3" data-name="Subtraction 3" d="M-2392-2823a39.752,39.752,0,0,1-15.57-3.143,39.868,39.868,0,0,1-12.714-8.572,39.868,39.868,0,0,1-8.572-12.714A39.752,39.752,0,0,1-2432-2863a39.752,39.752,0,0,1,3.143-15.57,39.868,39.868,0,0,1,8.572-12.714,39.868,39.868,0,0,1,12.714-8.572A39.752,39.752,0,0,1-2392-2903a39.754,39.754,0,0,1,15.57,3.143,39.871,39.871,0,0,1,12.714,8.572,39.863,39.863,0,0,1,8.573,12.714A39.747,39.747,0,0,1-2352-2863a39.747,39.747,0,0,1-3.144,15.57,39.863,39.863,0,0,1-8.573,12.714,39.871,39.871,0,0,1-12.714,8.572A39.754,39.754,0,0,1-2392-2823Zm-.533-27.336h0l10,7.37a3.362,3.362,0,0,0,1.61.508c.991,0,1.684-.761,2-2.2l6.566-30.937,0,0a3.062,3.062,0,0,0-.36-2.677,1.78,1.78,0,0,0-1.44-.647,2.871,2.871,0,0,0-.973.182l-38.567,14.87c-1.307.511-2.045,1.175-2.024,1.822.018.55.59,1.044,1.571,1.355l9.874,3.08,22.9-14.42a2.019,2.019,0,0,1,1.057-.37c.241,0,.416.08.466.215.057.151-.043.35-.281.559l-18.533,16.744-.71,10.176a2.532,2.532,0,0,0,2.017-.984l4.823-4.646Z" transform="translate(2432 2903)" fill="#fff" />
	</g>
</svg>
