<svg xmlns="http://www.w3.org/2000/svg" width="79.999" height="79.999" viewBox="0 0 79.999 79.999">
	<g id="vk" transform="translate(0 0)">
		<path id="Subtraction_2" data-name="Subtraction 2" d="M-2296-2823a39.752,39.752,0,0,1-15.57-3.143,39.868,39.868,0,0,1-12.714-8.572,39.868,39.868,0,0,1-8.572-12.714A39.752,39.752,0,0,1-2336-2863a39.752,39.752,0,0,1,3.143-15.57,39.868,39.868,0,0,1,8.572-12.714,39.868,39.868,0,0,1,12.714-8.572A39.752,39.752,0,0,1-2296-2903a39.752,39.752,0,0,1,15.57,3.143,39.862,39.862,0,0,1,12.714,8.572,39.872,39.872,0,0,1,8.572,12.714A39.752,39.752,0,0,1-2256-2863a39.752,39.752,0,0,1-3.143,15.57,39.872,39.872,0,0,1-8.572,12.714,39.859,39.859,0,0,1-12.714,8.572A39.752,39.752,0,0,1-2296-2823Zm5.742-29.349c1.083,0,2.331,1.43,3.651,2.944a18.089,18.089,0,0,0,3.019,2.983,5.543,5.543,0,0,0,3.1,1.092,2.275,2.275,0,0,0,.391-.028l7.014-.1c.017,0,1.735-.125,2.249-1.1a2.041,2.041,0,0,0-.319-2.008c-.01-.017-.024-.042-.043-.076a28.516,28.516,0,0,0-5.172-5.958l-.124-.115c-3.717-3.449-3.717-3.449-.178-8.026l.02-.026c.518-.671,1.106-1.431,1.771-2.317,3.143-4.189,4.526-6.9,4.113-8.05-.257-.715-1.418-.822-2.088-.822a6.465,6.465,0,0,0-.667.033l-7.9.05a1.792,1.792,0,0,0-.215-.012,1.607,1.607,0,0,0-.8.191,2.219,2.219,0,0,0-.7.848,45.967,45.967,0,0,1-2.917,6.158c-2.931,4.977-4.409,6.022-5.132,6.022a.665.665,0,0,1-.366-.105c-1.12-.724-1.067-2.664-1.021-4.375.009-.317.018-.642.018-.95,0-1.332.046-2.472.086-3.477.135-3.341.2-4.866-1.8-5.347a13.563,13.563,0,0,0-3.687-.366c-.447,0-.814-.007-1.155-.007-2.086,0-4.184.082-5.4.677-.71.348-1.342,1.077-1.294,1.368a.128.128,0,0,0,.125.109,3.569,3.569,0,0,1,2.331,1.173c.8,1.082.781,3.549.781,3.574,0,.068.445,6.822-1.086,7.658a1.033,1.033,0,0,1-.506.134c-1.115,0-2.656-1.841-5.154-6.156a50.7,50.7,0,0,1-2.819-5.843,2.36,2.36,0,0,0-.652-.881,3.282,3.282,0,0,0-1.213-.49l-7.505.05c-.011,0-1.131.037-1.54.521-.365.433-.033,1.327-.03,1.336.059.137,5.949,13.823,12.529,20.674a18.4,18.4,0,0,0,12.759,5.939c.149,0,.241,0,.266-.006h3.142a2.672,2.672,0,0,0,1.432-.626,2.3,2.3,0,0,0,.431-1.379c0-.042-.027-4.224,1.895-4.833A1.17,1.17,0,0,1-2290.258-2852.349Z" transform="translate(2336 2903)" fill="#fff" />
	</g>
</svg>
