<?xml version="1.0"?>
<svg xmlns="http://www.w3.org/2000/svg" viewBox="0 0 64 64" width="512" height="512"><g id="egg-food"><path d="M32,2A30,30,0,1,0,62,32,30.037,30.037,0,0,0,32,2Zm0,58A28,28,0,1,1,60,32,28.031,28.031,0,0,1,32,60Z"/><path d="M36,28h2a1,1,0,0,1,1-1V25A3,3,0,0,0,36,28Z"/><path d="M26,29h2a1,1,0,0,1,1-1V26A3,3,0,0,0,26,29Z"/><path d="M36,16a13.912,13.912,0,0,0-9.38,3.61,11,11,0,1,0,0,20.78A14,14,0,1,0,36,16Zm0,26a11.967,11.967,0,0,1-8.45-3.48.984.984,0,0,0-.7-.29,1.087,1.087,0,0,0-.39.08A8.9,8.9,0,0,1,23,39a9,9,0,0,1,0-18,8.9,8.9,0,0,1,3.46.69,1,1,0,0,0,1.09-.21A12,12,0,1,1,36,42Z"/><path d="M32,8A24,24,0,1,0,56,32,24.032,24.032,0,0,0,32,8Zm0,46A22,22,0,1,1,54,32,22.026,22.026,0,0,1,32,54Z"/><path d="M39,22a6,6,0,0,0-5.33,3.25,5.992,5.992,0,1,0,.66,6.5A6,6,0,1,0,39,22ZM29,33a4,4,0,1,1,4-4A4,4,0,0,1,29,33Zm10-1a4,4,0,1,1,4-4A4,4,0,0,1,39,32Z"/></g></svg>
