<svg id="Layer_1" enable-background="new 0 0 512 512" height="512" viewBox="0 0 512 512" width="512" xmlns="http://www.w3.org/2000/svg"><g><path d="m512 184.774c0-12.458-4.855-23.797-12.762-32.247 7.907-8.45 12.762-19.79 12.762-32.248 0-26.053-21.195-47.248-47.248-47.248h-196.624c-22.307 0-43.164 9.371-57.947 25.088-12.588-17.366-26.77-33.609-42.506-48.607l-28.87-27.519-28.87 27.518c-34.939 33.302-62.29 72.685-81.295 117.053-19.004 44.37-28.64 91.339-28.64 139.607v183.835h464.752c26.053 0 47.248-21.195 47.248-47.248 0-12.458-4.855-23.798-12.762-32.248 7.907-8.45 12.762-19.79 12.762-32.248 0-17.282-9.332-32.418-23.216-40.657 14.338-14.387 23.216-34.218 23.216-56.086s-8.878-41.7-23.216-56.087c13.884-8.239 23.216-23.376 23.216-40.658zm-264.39 275.232h-217.61v-153.835c0-44.184 8.821-87.18 26.217-127.794 17.397-40.615 42.434-76.665 74.417-107.149l8.171-7.788 8.171 7.789c31.982 30.483 57.02 66.533 74.417 107.148 17.396 40.614 26.217 83.61 26.217 127.794zm-20.168-335.675c9.144-13.169 24.287-21.299 40.686-21.299h196.624c9.511 0 17.248 7.737 17.248 17.248s-7.737 17.248-17.248 17.248h-185.123v30h185.123c9.511 0 17.248 7.737 17.248 17.247 0 9.511-7.737 17.248-17.248 17.248h-32.248-164.376c-2.103 0-4.198-.143-6.273-.404-3.666-11.843-7.953-23.538-12.885-35.054-6.27-14.638-13.468-28.721-21.528-42.234zm237.31 236.683c9.511 0 17.248 7.737 17.248 17.248s-7.737 17.248-17.248 17.248h-185.123-2.019v-34.496h154.894zm-187.142-30v-24.843c0-3.224-.05-6.441-.136-9.652h143.53v-30h-145.619c-1.296-11.604-3.162-23.109-5.598-34.496h162.718c27.292 0 49.496 22.204 49.496 49.496s-22.204 49.495-49.496 49.495zm187.142 128.992h-187.142v-34.496h2.019 185.123c9.511 0 17.248 7.737 17.248 17.248s-7.737 17.248-17.248 17.248z"/><path d="m124.299 156.319h30v30h-30z"/><path d="m85.759 375.779h30v30h-30z"/><path d="m162.839 375.779h30v30h-30z"/><path d="m85.759 302.626h30v30h-30z"/><path d="m162.839 302.626h30v30h-30z"/><path d="m85.759 229.473h30v30h-30z"/><path d="m162.839 229.473h30v30h-30z"/></g></svg>