<svg id="Capa_1" enable-background="new 0 0 512 512" height="512" viewBox="0 0 512 512" width="512" xmlns="http://www.w3.org/2000/svg"><g><path d="m494.502 79.227h-130.156c-4.142 0-7.499 3.357-7.499 7.499s3.357 7.499 7.499 7.499h130.156c1.379 0 2.5 1.121 2.5 2.5v359.57c0 1.378-1.121 2.5-2.5 2.5h-35.761c-4.142 0-7.499 3.358-7.499 7.499s3.357 7.499 7.499 7.499h35.761c9.648 0 17.498-7.85 17.498-17.498v-359.571c0-9.648-7.85-17.497-17.498-17.497z"/><path d="m423.527 458.794h-273.407c7.87-12.099 12.617-26.396 13.107-41.758.035-.201.067-.402.067-.607v-318.836c0-1.13-.04-2.25-.085-3.368h34.734c1.128 8.003 4.821 15.529 10.82 21.528l45.764 45.764c7.297 7.297 16.849 11.198 26.776 11.197 3.327 0 6.696-.438 10.036-1.333 13.31-3.565 23.385-13.64 26.951-26.95l16.751-62.515c3.566-13.309-.122-27.071-9.864-36.813-9.743-9.743-23.506-13.429-36.814-9.864l-62.516 16.751c-13.309 3.566-23.383 13.641-26.949 26.95-.026.095-.042.191-.067.287h-37.647c-8.358-36.201-40.834-63.28-79.537-63.28-45.021-.001-81.647 36.626-81.647 81.646v167.773c0 4.142 3.357 7.499 7.499 7.499s7.499-3.357 7.499-7.499v-167.773c0-36.75 29.899-66.648 66.649-66.648s66.648 29.898 66.648 66.648v269.742c-14.802-20.895-39.15-34.574-66.648-34.574-27.499 0-51.847 13.679-66.649 34.574v-66.066c0-4.142-3.357-7.499-7.499-7.499s-7.499 3.357-7.499 7.498v115.161c0 .346.032.685.077 1.019 1.607 43.615 37.569 78.606 81.57 78.606 21.637 0 41.319-8.476 55.944-22.261h285.935c4.142 0 7.499-3.357 7.499-7.499s-3.356-7.5-7.498-7.5zm-210.141-375.973c2.162-8.071 8.272-14.181 16.344-16.344l62.515-16.751c2.026-.543 4.069-.809 6.087-.809 6.021 0 11.813 2.365 16.239 6.791 5.908 5.908 8.145 14.255 5.983 22.326l-16.751 62.514c-2.163 8.072-8.273 14.182-16.346 16.345-8.068 2.163-16.416-.073-22.324-5.983l-45.764-45.764c-5.91-5.907-8.146-14.253-5.983-22.325zm-198.388 331.586c0-36.75 29.899-66.648 66.649-66.648 36.749 0 66.648 29.898 66.648 66.648s-29.899 66.648-66.648 66.648c-36.75.001-66.649-29.898-66.649-66.648z"/><path d="m81.647 372.897c-22.889 0-41.51 18.621-41.51 41.51s18.622 41.51 41.51 41.51 41.51-18.621 41.51-41.51-18.621-41.51-41.51-41.51zm0 68.022c-14.619 0-26.512-11.893-26.512-26.512s11.893-26.512 26.512-26.512c14.618 0 26.511 11.893 26.511 26.512s-11.893 26.512-26.511 26.512z"/><circle cx="81.647" cy="414.407" r="8.703"/><path d="m365.305 435.138h25.641c12.919 0 23.431-10.511 23.431-23.431v-134.818c.017-1.312-.285-2.516-.656-3.705l-22.14-70.364c-1.858-5.905-7.266-9.871-13.455-9.871s-11.597 3.967-13.455 9.872l-22.168 70.452c-.362 1.159-.642 2.339-.628 3.616v134.818c0 12.92 10.511 23.431 23.43 23.431zm-.992-181.211h27.626l3.921 12.463h-35.469zm35.066 157.78c0 4.65-3.783 8.433-8.433 8.433h-25.641c-4.65 0-8.433-3.783-8.433-8.433v-130.319h42.506v130.319zm-12.159-172.778h-18.188l9.094-28.901z"/></g></svg>