<svg id="Icons" height="512" viewBox="0 0 74 74" width="512" xmlns="http://www.w3.org/2000/svg"><path d="m50.91 72h-27.82a1 1 0 0 1 -1-.88l-4.26-36.37a1 1 0 0 1 .24-.78 1 1 0 0 1 .75-.33h36.36a1 1 0 0 1 .75.33 1 1 0 0 1 .24.78l-4.27 36.37a1 1 0 0 1 -.99.88zm-26.91-2h26l4-34.36h-34.06z"/><path d="m58.52 35.64h-43a1 1 0 0 1 -1-1v-5.46a1 1 0 0 1 1-1h43a1 1 0 0 1 1 1v5.46a1 1 0 0 1 -1 1zm-42-2h41v-3.46h-41z"/><path d="m55.18 30.18h-36.36a1 1 0 0 1 -1-1 19.18 19.18 0 0 1 38.36 0 1 1 0 0 1 -1 1zm-35.33-2h34.3a17.18 17.18 0 0 0 -34.3 0z"/><path d="m35 30.18a.91.91 0 0 1 -.23 0 1 1 0 0 1 -.77-1.18l6-25.23a1 1 0 0 1 .9-.77l15.16-1a1 1 0 0 1 .13 2l-14.39 1-5.8 24.41a1 1 0 0 1 -1 .77z"/><path d="m40.22 60.58a10.76 10.76 0 0 1 -7.12-3.49c-3.5-3.51-4.54-8-2.35-10.15s6.64-1.16 10.15 2.35c3.5 3.5 4.54 8 2.35 10.15a4.17 4.17 0 0 1 -3.03 1.14zm-6.43-12.78a2.28 2.28 0 0 0 -1.63.55c-1.17 1.18-.5 4.47 2.35 7.32s6.15 3.53 7.33 2.33.5-4.47-2.35-7.32a8.84 8.84 0 0 0 -5.7-2.88z"/><path d="m42.63 59.65a1 1 0 0 1 -1-.83c0-.15-.7-3.4-5.22-4.26h-.11c-.27-.08-6.48-2.11-5.76-7.11a1 1 0 1 1 2 .28c-.45 3.14 3.83 4.73 4.33 4.91 5.88 1.15 6.72 5.68 6.75 5.87a1 1 0 0 1 -.81 1.15z"/></svg>