<svg id="Capa_1" enable-background="new 0 0 512 512" height="512" viewBox="0 0 512 512" width="512" xmlns="http://www.w3.org/2000/svg"><g><path d="m256 93.155c-46.83 0-78.289 75.934-78.289 146.854s31.459 146.855 78.289 146.855 78.289-75.934 78.289-146.855-31.459-146.854-78.289-146.854zm58.289 146.854c0 32.337-6.926 65.19-19.002 90.134-11.298 23.337-25.618 36.721-39.287 36.721s-27.989-13.384-39.287-36.721c-12.076-24.944-19.002-57.796-19.002-90.134s6.926-65.189 19.002-90.133c11.298-23.337 25.618-36.721 39.287-36.721s27.988 13.384 39.287 36.721c12.076 24.944 19.002 57.796 19.002 90.133z"/><path d="m348.572 7.242c-1.231-4.287-5.152-7.242-9.613-7.242h-165.92c-4.461 0-8.382 2.955-9.612 7.242-13.552 47.239-36.487 151.641-36.487 243.296 0 100.479 16.106 151.237 21.399 167.916.534 1.684 1.408 4.771 1.412 4.787l21.608 81.328c1.164 4.382 5.131 7.432 9.664 7.432h149.954c4.534 0 8.5-3.05 9.664-7.432l21.584-81.237c.001-.005.003-.009.004-.014.001 0 .001-.001.001-.002s0-.002 0-.003c.069-.248 1.17-4.573 2.039-7.548 5.686-19.458 20.791-71.146 20.791-165.225.001-91.666-22.936-196.063-36.488-243.298zm-120.359 484.758v-20.34h55.574v20.34zm95.074 0h-19.5v-30.34c0-5.523-4.477-10-10-10h-75.574c-5.523 0-10 4.477-10 10v30.34h-19.5l-16.304-61.364h167.182zm21.786-81.847c-.047.163-.095.324-.141.482h-178.091c-5.546-17.591-19.902-66.08-19.902-160.098 0-84.936 20.983-183.787 33.691-230.538h150.737c12.708 46.747 33.693 145.594 33.693 230.538.001 91.218-14.52 140.909-19.987 159.616z"/><path d="m204.247 72.234h103.507c5.523 0 10-4.477 10-10s-4.477-10-10-10h-103.507c-5.523 0-10 4.477-10 10s4.477 10 10 10z"/></g></svg>