<svg id="Capa_1" enable-background="new 0 0 512 512" height="512" viewBox="0 0 512 512" width="512" xmlns="http://www.w3.org/2000/svg"><g><path d="m467 46c-12.154 0-22.636 5.216-30 10.341-7.364-5.125-17.846-10.341-30-10.341-12.281 0-23.16 5.368-30.762 10.508-7.376-5.178-17.951-10.508-30.238-10.508-12.154 0-22.636 5.216-30 10.341-7.364-5.125-17.846-10.341-30-10.341s-22.636 5.216-30 10.341c-7.364-5.125-17.846-10.341-30-10.341s-22.636 5.216-30 10.341c-7.364-5.125-17.846-10.341-30-10.341-12.281 0-23.16 5.368-30.762 10.508-7.376-5.178-17.951-10.508-30.238-10.508-12.154 0-22.636 5.216-30 10.341-7.364-5.125-17.846-10.341-30-10.341-22.53 0-39.311 17.922-41.149 19.966-2.479 2.754-3.851 6.328-3.851 10.034v135c0 140.915 115.151 255 256 255 141.182 0 256-114.418 256-255v-135c0-3.706-1.372-7.28-3.851-10.034-1.838-2.044-18.619-19.966-41.149-19.966zm-437 105h75c8.271 0 15 6.729 15 15s-6.729 15-15 15h-75zm149.949 271.878c-68.658-24.5-122.046-81.185-141.729-151.703 2.258-.112 4.52-.175 6.78-.175 74.99 0 136 60.561 136 135 0 5.658-.355 11.297-1.051 16.878zm152.102 0c-.696-5.581-1.051-11.22-1.051-16.878 0-74.439 61.01-135 136-135 2.26 0 4.522.063 6.78.175-19.683 70.519-73.072 127.203-141.729 151.703zm147.863-181.369c-4.294-.333-8.607-.509-12.914-.509-91.532 0-166 74.019-166 165 0 8.428.638 16.83 1.903 25.114-15.137 3.193-30.824 4.886-46.903 4.886s-31.766-1.693-46.903-4.886c1.265-8.284 1.903-16.685 1.903-25.114 0-90.981-74.468-165-166-165-4.307 0-8.62.176-12.914.509-1.365-9.98-2.086-20.162-2.086-30.509h75c19.555 0 36.228-12.541 42.42-30h216.244c6.276 17.098 23.332 30.007 43.336 29.99h75c0 10.357-.721 20.539-2.086 30.519zm2.086-60.509h-75c-8.523 0-16-7.009-16-15s7.477-15 16-15h75zm0-60h-75c-11.954 0-23.347 4.597-32.078 12.944-5.127 4.901-8.932 10.718-11.258 17.056h-216.244c-6.192-17.459-22.865-30-42.42-30h-75v-38.424c3.873-3.057 9.637-6.576 15-6.576 7.821 0 16.492 7.482 18.851 10.034 2.848 3.246 6.8 5.142 11.118 5.142s8.271-1.827 11.118-5.073c2.421-2.621 11.092-10.103 18.913-10.103s16.492 7.482 18.851 10.034c2.765 3.151 6.659 4.931 10.851 5.032 4.183.102 8.17-1.627 11.084-4.641 1.998-2.068 11.88-10.425 20.214-10.425 7.821 0 16.492 7.482 18.851 10.034 2.848 3.246 6.8 5.142 11.118 5.142s8.271-1.827 11.118-5.073c2.421-2.621 11.092-10.103 18.913-10.103s16.492 7.482 18.851 10.034c2.848 3.246 6.8 5.142 11.118 5.142s8.271-1.827 11.118-5.073c2.421-2.621 11.092-10.103 18.913-10.103s16.492 7.482 18.851 10.034c2.848 3.246 6.8 5.142 11.118 5.142s8.271-1.827 11.118-5.073c2.421-2.621 11.092-10.103 18.913-10.103s16.492 7.482 18.851 10.034c2.765 3.151 6.659 4.931 10.851 5.032 4.179.102 8.17-1.627 11.084-4.641 1.998-2.068 11.88-10.425 20.214-10.425 7.821 0 16.492 7.482 18.851 10.034 2.848 3.246 6.8 5.142 11.118 5.142s8.271-1.827 11.118-5.073c2.421-2.621 11.092-10.103 18.913-10.103 5.363 0 11.127 3.519 15 6.576z"/></g></svg>