<?xml version="1.0" encoding="iso-8859-1"?>
<!-- Generator: Adobe Illustrator 19.0.0, SVG Export Plug-In . SVG Version: 6.00 Build 0)  -->
<svg version="1.1" id="Capa_1" xmlns="http://www.w3.org/2000/svg" xmlns:xlink="http://www.w3.org/1999/xlink" x="0px" y="0px"
	 viewBox="0 0 512 512" style="enable-background:new 0 0 512 512;" xml:space="preserve">
<g>
	<g>
		<path d="M495.357,203.688c-9.437-7.249-22.952-13.939-40.171-19.887c-32.164-11.109-76.998-19.364-126.758-23.377
			c0.77-4.26,1.193-8.638,1.193-13.115c0-14.226-8.052-34.978-24.615-63.44c-2.085-3.58-6.676-4.794-10.255-2.71
			c-3.58,2.083-4.793,6.675-2.71,10.255c18.663,32.069,22.58,48.097,22.58,55.895c0,32.324-26.298,58.622-58.622,58.622
			c-32.324,0-58.622-26.297-58.622-58.622c0-18.022,20.712-57.678,55.405-106.081c1.03-1.437,2.458-1.651,3.217-1.651
			c0.759,0,2.187,0.214,3.217,1.651c4.953,6.91,9.812,13.932,14.439,20.871c2.299,3.446,6.955,4.377,10.401,2.077
			c3.445-2.299,4.376-6.956,2.077-10.401c-4.722-7.078-9.676-14.239-14.727-21.285c-3.552-4.955-9.312-7.912-15.408-7.912
			s-11.856,2.958-15.408,7.913c-21.741,30.333-58.214,85.583-58.214,114.82c0,4.478,0.424,8.856,1.193,13.115
			c-49.761,4.013-94.598,12.269-126.761,23.378C19.114,196.823,0,212.846,0,231.421c0,68.757,26.89,133.299,75.716,181.737
			c1.463,1.451,3.372,2.176,5.282,2.176c1.929,0,3.858-0.74,5.324-2.218c2.917-2.941,2.898-7.689-0.042-10.606
			c-39.356-39.043-63.555-89.203-69.706-143.448c15.685,12.069,40.004,20.701,61.776,26.513
			c47.549,12.693,110.64,19.683,177.65,19.683c31.998,0,63.188-1.591,92.704-4.729c4.119-0.438,7.103-4.132,6.665-8.251
			c-0.438-4.118-4.123-7.103-8.251-6.665c-28.991,3.083-59.647,4.646-91.118,4.646c-65.742,0-127.459-6.81-173.781-19.176
			C32.658,257.853,15,241.921,15,231.421c0-10.837,17.461-23.339,46.708-33.441c31.663-10.937,76.381-19.027,126.147-22.845
			c1.905,4.647,4.259,9.062,7.03,13.178c-35.551,2.343-67.485,6.751-90.987,12.611c-31.794,7.928-46.602,17.619-46.602,30.497
			c0,12.427,14.577,19.196,19.367,21.42c10.176,4.726,24.539,8.93,42.689,12.495c36.575,7.184,85.104,11.14,136.646,11.14
			c51.542,0,100.071-3.957,136.646-11.14c18.15-3.565,32.514-7.769,42.689-12.495c4.79-2.224,19.367-8.994,19.367-21.42
			c0-12.85-14.739-22.523-46.384-30.443c-23.517-5.885-55.545-10.316-91.205-12.665c2.771-4.116,5.125-8.531,7.03-13.178
			c49.765,3.818,94.482,11.908,126.145,22.844C479.538,208.083,497,220.583,497,231.421c0,15.668-35.893,37.131-116.078,49.761
			c-4.092,0.645-6.886,4.484-6.241,8.576c0.582,3.697,3.771,6.334,7.399,6.334c0.388,0,0.78-0.03,1.176-0.092
			c28.374-4.469,84.318-15.602,112.173-36.973c-6.112,53.928-30.07,103.86-69.017,142.807
			C380.894,447.353,320.373,472.421,256,472.421c-52.62,0-102.614-16.657-144.577-48.171c-3.313-2.488-8.014-1.819-10.501,1.493
			s-1.819,8.014,1.493,10.501c44.582,33.48,97.69,51.177,153.585,51.177c68.38,0,132.667-26.629,181.02-74.98
			c48.351-48.352,74.98-112.64,74.98-181.02C512,221.502,506.4,212.171,495.357,203.688z M404.678,215.531
			c28.793,7.205,35.025,14.476,35.025,15.89c0,1.862-8.888,11.131-49.947,19.196c-35.652,7.002-83.154,10.859-133.756,10.859
			c-50.602,0-98.104-3.856-133.756-10.859c-41.06-8.065-49.947-17.334-49.947-19.196c0-1.42,6.27-8.721,35.23-15.943
			c25.171-6.276,60.613-10.84,99.939-12.879c12.969,11.398,29.952,18.332,48.534,18.332c18.582,0,35.566-6.934,48.535-18.332
			C343.966,204.645,379.503,209.231,404.678,215.531z"/>
	</g>
</g>
<g>
	<g>
		<path d="M434.744,309.453c-0.013,0-0.024,0-0.037,0h-0.103c-4.142,0.02-7.483,3.394-7.464,7.536
			c0.02,4.13,3.374,7.464,7.499,7.464c0.013,0,0.024,0,0.037,0h0.103c4.142-0.02,7.483-3.394,7.464-7.536
			C442.224,312.787,438.869,309.453,434.744,309.453z"/>
	</g>
</g>
<g>
	<g>
		<path d="M441.916,331.542h-0.103c-4.143,0-7.5,3.358-7.5,7.5c0,4.142,3.357,7.5,7.5,7.5h0.103c4.143,0,7.5-3.358,7.5-7.5
			C449.416,334.9,446.059,331.542,441.916,331.542z"/>
	</g>
</g>
<g>
	<g>
		<path d="M400.683,348.151h-0.103c-4.143,0-7.5,3.358-7.5,7.5c0,4.142,3.357,7.5,7.5,7.5h0.103c4.143,0,7.5-3.358,7.5-7.5
			C408.183,351.509,404.826,348.151,400.683,348.151z"/>
	</g>
</g>
<g>
</g>
<g>
</g>
<g>
</g>
<g>
</g>
<g>
</g>
<g>
</g>
<g>
</g>
<g>
</g>
<g>
</g>
<g>
</g>
<g>
</g>
<g>
</g>
<g>
</g>
<g>
</g>
<g>
</g>
</svg>
