<svg id="Capa_1" enable-background="new 0 0 512 512" height="512" viewBox="0 0 512 512" width="512" xmlns="http://www.w3.org/2000/svg"><g><path d="m92.571 456.606c-4.143 0-7.5-3.358-7.5-7.5v-83.542c0-4.142 3.357-7.5 7.5-7.5s7.5 3.358 7.5 7.5v83.542c0 4.142-3.358 7.5-7.5 7.5z"/><path d="m127.421 456.606c-4.143 0-7.5-3.358-7.5-7.5v-83.542c0-4.142 3.357-7.5 7.5-7.5s7.5 3.358 7.5 7.5v83.542c0 4.142-3.357 7.5-7.5 7.5z"/><path d="m497.371 15.42h-290.16c-4.143 0-7.5 3.358-7.5 7.5s3.357 7.5 7.5 7.5h289.789v38.813h-48.603c-1.495-15.085-14.256-26.907-29.727-26.907h-1.257c-15.472 0-28.233 11.822-29.728 26.907h-77.723c-1.495-15.085-14.256-26.907-29.727-26.907h-1.257c-15.472 0-28.232 11.822-29.727 26.907h-108.566c-1.495-15.085-14.255-26.907-29.727-26.907h-1.257c-15.471 0-28.232 11.822-29.727 26.907h-64.974v-38.813h162.211c4.143 0 7.5-3.358 7.5-7.5s-3.357-7.5-7.5-7.5h-162.582c-8.067 0-14.629 6.562-14.629 14.629v39.555c0 8.066 6.562 14.629 14.629 14.629h65.198v92.485c0 8.634 3.686 16.42 9.562 21.879-.011.165-.025.328-.025.496v89.334c0 16.887-8.385 32.566-22.426 41.94l-.194.129c-6.042 4.033-10.246 10.157-11.839 17.245l-17.728 78.871c-3.843 17.098.232 34.752 11.182 48.436 10.949 13.684 27.28 21.531 44.804 21.531h34.146c17.525 0 33.856-7.848 44.806-21.532 10.949-13.683 15.024-31.337 11.181-48.436l-17.729-78.87c-1.593-7.086-5.797-13.211-11.839-17.245-14.045-9.376-22.431-25.056-22.431-41.943v-89.461c0-.167-.014-.331-.025-.495 5.876-5.459 9.562-13.246 9.562-21.88v-92.484h108.27v92.485c0 8.622 3.676 16.398 9.537 21.856v77.778c0 4.142 3.357 7.5 7.5 7.5s7.5-3.358 7.5-7.5v-70.247c1.733.314 3.515.487 5.338.487h1.257c1.823 0 3.605-.173 5.339-.487v101.225c0 17.022 6.502 33.149 18.309 45.411 4.553 4.728 8.537 10.655 11.845 17.619 11.699 24.631 11.477 58.76-.542 82.995-8.893 17.93-21.879 28.216-35.629 28.223-.006 0-.009 0-.014 0-13.733-.001-26.712-10.262-35.607-28.154-12.069-24.277-12.305-58.482-.574-83.182 3.27-6.884 7.21-12.744 11.708-17.416l.262-.272c11.807-12.262 18.309-28.389 18.309-45.411v-.792c0-4.142-3.357-7.5-7.5-7.5s-7.5 3.358-7.5 7.5v.792c0 13.121-5.013 25.554-14.111 35.004l-.262.272c-5.626 5.843-10.489 13.039-14.454 21.387-13.788 29.03-13.51 67.729.691 96.295 11.524 23.184 29.396 36.477 49.037 36.477h.021c19.661-.01 37.542-13.335 49.06-36.56 14.145-28.521 14.407-67.138.653-96.094-4.003-8.428-8.911-15.691-14.589-21.587-9.101-9.452-14.113-21.885-14.113-35.007v-108.236c0-.167-.014-.332-.025-.497 5.875-5.459 9.561-13.245 9.561-21.878v-92.486h77.427v92.485c0 8.622 3.676 16.397 9.537 21.855v256.188c0 17.894 14.559 32.452 32.504 32.452h13.585c17.524 0 33.855-7.848 44.805-21.531 10.949-13.684 15.024-31.338 11.181-48.436l-12.963-57.67c-3.407-15.164-16.643-25.754-32.185-25.754h-14.993v-135.25c5.861-5.458 9.537-13.234 9.537-21.855v-92.484h48.826c8.066 0 14.629-6.562 14.629-14.629v-39.555c-.001-8.067-6.564-14.629-14.63-14.629zm-94.834 56.782c0-8.202 6.673-14.875 14.876-14.875h1.257c8.202 0 14.875 6.673 14.875 14.875v104.517c0 8.202-6.673 14.875-14.875 14.875h-1.257c-8.203 0-14.876-6.673-14.876-14.875zm-307.71 0c0-8.202 6.673-14.875 14.875-14.875h1.257c8.202 0 14.875 6.673 14.875 14.875v104.517c0 8.202-6.673 14.875-14.875 14.875h-1.257c-8.202 0-14.875-6.673-14.875-14.875zm50.571 270.771c2.824 1.885 4.789 4.747 5.533 8.06l17.729 78.87c2.839 12.628-.171 25.668-8.258 35.774-8.087 10.107-20.15 15.903-33.094 15.903h-34.146c-12.944 0-25.005-5.796-33.092-15.903s-11.097-23.146-8.259-35.775l17.728-78.87c.745-3.312 2.709-6.174 5.529-8.057l.194-.129c18.223-12.165 29.102-32.509 29.102-54.418v-82.321c1.733.314 3.515.487 5.338.487h1.257c1.822 0 3.604-.173 5.338-.487v82.448c-.001 21.909 10.879 42.253 29.101 54.418zm133.58-151.379c-8.202 0-14.875-6.673-14.875-14.875v-104.517c0-8.202 6.673-14.875 14.875-14.875h1.257c8.202 0 14.875 6.673 14.875 14.875v104.517c0 8.202-6.673 14.875-14.875 14.875zm152.529 157.23h22.493c8.475 0 15.691 5.775 17.55 14.043l12.963 57.671c2.839 12.628-.171 25.668-8.258 35.774-8.087 10.107-20.149 15.903-33.093 15.903h-13.636c-9.624 0-17.453-7.829-17.453-17.452v-248.657c1.734.314 3.516.487 5.339.487h1.257c1.823 0 3.604-.173 5.338-.487v135.217c0 4.143 3.358 7.501 7.5 7.501z"/></g></svg>