<svg id="Layer_1" enable-background="new 0 0 128 128" height="512" viewBox="0 0 128 128" width="512" xmlns="http://www.w3.org/2000/svg"><path d="m83.1 79.5v-28.8c1 .2 2 .3 2.9.3h4.3c.2 0 3-.3 10.9-1.2 5.4-.6 9.5-5.2 9.5-10.6v-10.5c0-5.4-4.1-10-9.5-10.6-3-.3-10.7-1.2-10.9-1.2h-4.3c-9.4 0-17 7.6-17.1 17.1v45.6c0 3.2 2.2 6 5.3 6.8v3.2c0 7.1 5.7 12.8 12.8 12.8h17.7c1.4 0 2.4 1.1 2.4 2.5 0 1.3-1.1 2.4-2.4 2.4h-41.7c-5.1 0-9.3-4.2-9.3-9.3v-2.1c3.1-.8 5.3-3.6 5.3-6.8v-45.6c0-9.5-7.6-17.1-17-17.1h-4.3c-.2 0-6.5.7-10.9 1.2-5.4.6-9.5 5.2-9.5 10.6v10.5c0 5.4 4.1 10 9.5 10.6 8 .9 10.8 1.2 10.9 1.2h4.3c1 0 2-.1 2.9-.3v28.8c0 3.2 2.2 6 5.3 6.8v2.1c0 7.1 5.7 12.8 12.8 12.8h41.8c3.3 0 5.9-2.7 5.9-6 0-3.2-2.6-5.8-5.9-5.9h-17.7c-5.1 0-9.3-4.2-9.3-9.3v-3.2c3.1-.8 5.3-3.6 5.3-6.8zm-62.3-30.8v-10.5c0-3.7 2.7-6.7 6.4-7.1l8.8-1v26.7l-8.8-1c-3.7-.4-6.5-3.4-6.4-7.1zm21.2 8.3h-2.5v-27.1h2.5c7.5 0 13.6 6.1 13.6 13.6v40.7h-7.1v-26.2c0-1.2-1.2-2-2.3-1.7-1.4.5-2.8.7-4.2.7zm6.4 32v-1.4h7.1v1.4c0 2-1.6 3.6-3.6 3.6-1.9 0-3.5-1.6-3.5-3.6zm58.9-60.3v10.5c0 3.7-2.7 6.7-6.4 7.1l-8.8 1v-26.7l8.8 1c3.6.4 6.4 3.4 6.4 7.1zm-34.9 5.1c0-7.5 6.2-13.5 13.7-13.5h2.6v27.1h-2.7c-1.4 0-2.8-.2-4.2-.7-1.1-.4-2.3.5-2.3 1.7v26.2h-7.1zm.1 45.7v-1.3h7.1v1.3c0 2-1.7 3.5-3.6 3.5s-3.5-1.6-3.5-3.5z"/></svg>