<?xml version="1.0" encoding="iso-8859-1"?>
<!-- Generator: Adobe Illustrator 19.0.0, SVG Export Plug-In . SVG Version: 6.00 Build 0)  -->
<svg version="1.1" id="Capa_1" xmlns="http://www.w3.org/2000/svg" xmlns:xlink="http://www.w3.org/1999/xlink" x="0px" y="0px"
	 viewBox="0 0 480 480" style="enable-background:new 0 0 480 480;" xml:space="preserve">
<g>
	<g>
		<path d="M372,0H100C51.423,0.057,12.057,39.423,12,88v304c0.057,48.577,39.423,87.943,88,88h272c52.996-0.057,95.943-43.004,96-96
			v-32V96C467.943,43.004,424.996,0.057,372,0z M217.32,461.024c-0.536,0.152-1.08,0.28-1.6,0.416
			c-2.608,0.672-5.24,1.184-7.896,1.6c-0.712,0.104-1.424,0.24-2.144,0.328c-3.211,0.408-6.443,0.619-9.68,0.632h-88
			c-44.163-0.049-79.951-35.837-80-80v-24h16v32c0.04,30.911,25.089,55.96,56,56h104c30.911-0.04,55.96-25.089,56-56V88
			c-0.04-30.911-25.089-55.96-56-56H100c-30.911,0.04-55.96,25.089-56,56v256H28V96c0.049-44.163,35.837-79.951,80-80h88
			c3.231,0.017,6.459,0.23,9.664,0.64c0.72,0.088,1.432,0.224,2.144,0.328c2.656,0.408,5.288,0.92,7.896,1.6
			c0.536,0.136,1.08,0.264,1.6,0.416C251.934,28.577,275.933,60.066,276,96v288C275.938,419.933,251.947,451.424,217.32,461.024z
			 M156,312H92c-4.418,0-8,3.582-8,8v24H60V88c0.026-22.08,17.92-39.974,40-40h100.936C192.482,62.586,188.02,79.141,188,96v248h-24
			v-24C164,315.582,160.418,312,156,312z M100,344v-16h48v16H100z M148,360v16h-48v-16H148z M84,360v24c0,4.418,3.582,8,8,8h64
			c4.418,0,8-3.582,8-8v-24h24v24c0.02,16.859,4.482,33.414,12.936,48H100c-22.08-0.026-39.974-17.92-40-40v-32H84z M204,384V96
			c0.016-16.178,4.936-31.972,14.112-45.296C233.653,56.549,243.959,71.396,244,88v304c-0.041,16.604-10.347,31.451-25.888,37.296
			C208.936,415.972,204.016,400.178,204,384z M452,384c-0.048,44.163-35.837,79.951-80,80H254.44
			c23.518-16.434,37.538-43.309,37.56-72v-32h160V384z M452,344H292V120h160V344z M452,104H292V88
			c-0.022-28.691-14.042-55.566-37.56-72H372c44.163,0.049,79.952,35.837,80,80V104z"/>
	</g>
</g>
<g>
	<g>
		<path d="M428,376H316c-4.418,0-8,3.582-8,8v32c0,4.418,3.582,8,8,8h112c4.418,0,8-3.582,8-8v-32C436,379.582,432.418,376,428,376z
			 M364,408h-40v-16h40V408z M420,408h-40v-16h40V408z"/>
	</g>
</g>
<g>
	<g>
		<path d="M426.048,193.812c-12.741-13.382-33.918-13.901-47.3-1.16c-0.392,0.373-0.775,0.756-1.148,1.148l-6.256,6.2l-6.232-6.232
			c-12.947-13.183-34.129-13.373-47.312-0.426c-13.183,12.947-13.373,34.129-0.426,47.312c0.141,0.143,0.283,0.285,0.426,0.426
			L365.688,289c3.124,3.123,8.188,3.123,11.312,0l47.888-47.888C438.27,228.371,438.789,207.194,426.048,193.812z M413.6,229.8
			L371.344,272l-42.232-42.232c-6.28-6.285-6.831-16.287-1.28-23.224c3.079-3.902,7.692-6.287,12.656-6.544h1.016
			c4.618-0.014,9.049,1.828,12.296,5.112L365.688,217c3.124,3.123,8.188,3.123,11.312,0l11.888-11.888
			c6.817-6.824,17.876-6.829,24.7-0.012C420.412,211.917,420.417,222.976,413.6,229.8z"/>
	</g>
</g>
<g>
</g>
<g>
</g>
<g>
</g>
<g>
</g>
<g>
</g>
<g>
</g>
<g>
</g>
<g>
</g>
<g>
</g>
<g>
</g>
<g>
</g>
<g>
</g>
<g>
</g>
<g>
</g>
<g>
</g>
</svg>
