<svg id="Layer_1" height="512" viewBox="0 0 512 512" width="512" xmlns="http://www.w3.org/2000/svg" data-name="Layer 1"><path d="m416.187 55.777v-34.777a16.018 16.018 0 0 0 -16-16h-85.676a16.018 16.018 0 0 0 -16 16v34.777a30.03 30.03 0 0 0 -29.666 29.991v391.232a30.033 30.033 0 0 0 30 30h117.009a30 30 0 0 0 30-30v-391.232a30.03 30.03 0 0 0 -29.667-29.991zm-105.676-34.777a4 4 0 0 1 4-4h85.676a4 4 0 0 1 4 4v34.768h-93.676zm123.342 456a18 18 0 0 1 -18 18h-117.009a18.02 18.02 0 0 1 -18-18v-94.6h153.009zm0-106.6h-153.008v-178.031h153.008zm0-190.029h-153.008v-94.6a18.02 18.02 0 0 1 18-18h117.008a18.02 18.02 0 0 1 18 18z"/><path d="m375.085 118.293h-11.736v-11.736a6 6 0 0 0 -12 0v11.736h-11.736a6 6 0 0 0 0 12h11.736v11.736a6 6 0 0 0 12 0v-11.736h11.736a6 6 0 0 0 0-12z"/><path d="m339.613 438.141h35.472a6 6 0 0 0 0-12h-35.472a6 6 0 0 0 0 12z"/><path d="m154.651 100.557a6 6 0 0 0 -6 6v11.736h-11.736a6 6 0 1 0 0 12h11.736v11.736a6 6 0 0 0 12 0v-11.736h11.736a6 6 0 0 0 0-12h-11.736v-11.736a6 6 0 0 0 -6-6z"/><path d="m136.915 438.141h35.472a6 6 0 0 0 0-12h-35.472a6 6 0 0 0 0 12z"/><path d="m104.333 224.373a6 6 0 0 0 6-6v-2.666a6 6 0 0 0 -12 0v2.666a6 6 0 0 0 6 6z"/><path d="m104.333 337.839a6 6 0 0 0 6-6v-93.839a6 6 0 0 0 -12 0v93.835a6 6 0 0 0 6 6.004z"/><path d="m213.489 55.776v-34.776a16.018 16.018 0 0 0 -16-16h-85.676a16.018 16.018 0 0 0 -16 16v34.776a30 30 0 0 0 -29.666 29.992v26.641a6 6 0 0 0 12 0v-26.641a18 18 0 0 1 18-18h117.008a18 18 0 0 1 18 18v94.6h-153.008v-15.96a6 6 0 0 0 -12 0v312.592a30.033 30.033 0 0 0 30 30h117.009a29.353 29.353 0 0 0 15.667-4.369 30.062 30.062 0 0 0 14.332-25.631v-391.232a30 30 0 0 0 -29.666-29.992zm-12-.008h-93.676v-34.768a4 4 0 0 1 4-4h85.676a4 4 0 0 1 4 4zm29.666 420.822a18.534 18.534 0 0 1 -4.509 12.329 17.908 17.908 0 0 1 -13.491 6.081h-117.009a18.02 18.02 0 0 1 -18-18v-94.6h153.009zm0-106.192h-153.008v-178.029h153.008z"/></svg>