<svg id="_x33_0_Gift" enable-background="new 0 0 64 64" height="512" viewBox="0 0 64 64" width="512" xmlns="http://www.w3.org/2000/svg"><path d="m43 36h-22c-1.654 0-3 1.346-3 3v2c0 3.757 1.544 7.299 4.349 9.975 2.712 2.588 6.337 4.04 10.035 4.04.221 0 .442-.005.663-.016 7.385-.348 12.953-6.366 12.953-13.999v-2c0-1.654-1.346-3-3-3zm1 5c0 6.545-4.749 11.705-11.047 12.001-3.395.16-6.743-1.107-9.224-3.473-2.404-2.295-3.729-5.323-3.729-8.528v-2c0-.551.449-1 1-1h22c.551 0 1 .449 1 1z"/><path d="m61.6 36.846c.873-1.043 1.4-2.383 1.4-3.846 0-3.001-2.217-5.487-5.097-5.925-.137-.757-.431-1.509-.894-2.213-1.216-1.847-3.156-2.91-5.174-2.86-3.273.089-5.835 2.724-5.835 5.998h-19.536c-.256 0-.464-.208-.464-.464 0-.099.043-.206.122-.303 1.909-2.37 2.878-5.477 2.878-9.233v-1.684c.352-.091.634-.211.812-.309 1.858-1.013 2.707-3.541 1.854-5.521-.253-.587-1.058-1.961-3.144-2.38 1.517-1.581 1.382-3.184 1.249-3.811-.43-2.021-2.44-3.493-4.488-3.274-.646.068-2.233.447-3.283 2.463-1.05-2.016-2.637-2.395-3.283-2.463-2.051-.222-4.058 1.253-4.488 3.274-.132.622-.262 2.206 1.219 3.775-7.201.648-10.448 5.808-10.448 10.899-.002.083-.048 1.905.86 3.964-.43.357-1.254.916-1.844 1.315-.76.515-1.546 1.048-2.149 1.535-.551.447-.867 1.117-.867 1.84 0 1.311 1.066 2.377 2.377 2.377h3.623c1.103 0 2 .897 2 2v8.03c0 6.264 2.515 12.128 7.082 16.513 4.37 4.196 10.026 6.475 16.02 6.474.32 0 .642-.006.964-.02 10.933-.443 19.76-8.613 21.586-19.287.888.802 2.062 1.29 3.348 1.29 2.757 0 5-2.243 5-5 0-1.209-.55-2.37-1.4-3.154zm-31.77-25.568c.446 1.035-.019 2.452-.975 2.973-1.203.656-2.85-.25-4.502-2.413.335-.428.551-.945.613-1.512 2.513-.663 4.311-.331 4.864.952zm-6.595 7.268c-.692.608-1.778.608-2.471 0-.889-.781-1.135-2.648.626-5.609.198.041.401.063.61.063s.412-.022.609-.063c1.762 2.962 1.515 4.828.626 5.609zm-9.065-7.268c.296-.687.951-1.099 1.875-1.238.312-.019.623-.04.955-.04v-.007c.604.021 1.288.135 2.033.332.062.568.279 1.085.613 1.513-1.652 2.163-3.301 3.066-4.502 2.413-.956-.521-1.42-1.938-.974-2.973zm7.83-2.278c.551 0 1 .449 1 1s-.449 1-1 1-1-.449-1-1 .449-1 1-1zm3.493-5.99c1.026-.102 2.106.688 2.322 1.702.285 1.336-.956 2.649-3.338 3.6-.342-.501-.835-.886-1.409-1.107.235-2.481 1.116-4.057 2.425-4.195zm-9.308 1.702c.216-1.014 1.311-1.803 2.322-1.702 1.309.138 2.189 1.714 2.424 4.196-.574.22-1.067.606-1.409 1.107-2.381-.953-3.622-2.265-3.337-3.601zm41.815 38.288c-1.654 0-3-1.346-3-3v-1h-2v.6c0 11.352-8.979 20.952-20.015 21.4-5.813.227-11.311-1.86-15.518-5.899-4.17-4.005-6.467-9.357-6.467-15.071v-8.03c0-2.206-1.794-4-4-4h-3.623c-.208 0-.377-.169-.377-.377 0-.116.046-.22.125-.284.537-.434 1.288-.942 2.014-1.435 2.212-1.5 3.323-2.252 2.75-3.362-.92-1.785-.89-3.497-.889-3.542 0-3.082 1.448-6.543 5.211-8.125-.598 1.911.237 4.184 1.977 5.132.555.302 2.021.869 3.952-.141-.344 2.434.795 3.735 1.305 4.183.716.629 1.636.943 2.555.943s1.839-.314 2.555-.943c.51-.448 1.649-1.749 1.305-4.183.403.211.781.341 1.14.431v1.703c0 3.288-.819 5.973-2.436 7.978-.363.451-.564 1.004-.564 1.558 0 1.359 1.105 2.464 2.464 2.464h21.536v-2c0-2.183 1.708-3.939 3.889-3.999 1.349-.04 2.617.697 3.45 1.961.758 1.15.869 2.41.305 3.457-.526.976-1.539 1.581-2.644 1.581v2c1.842 0 3.53-1.008 4.404-2.631.217-.404.371-.83.468-1.266 1.787.399 3.128 1.992 3.128 3.897 0 2.206-1.794 4-4 4v2c1.117 0 2.159-.312 3.056-.846.55.39.944 1.12.944 1.846 0 1.654-1.346 3-3 3z"/><circle cx="32" cy="58" r="1"/><circle cx="40" cy="56" r="1"/><circle cx="24" cy="56" r="1"/><circle cx="45" cy="52" r="1"/><circle cx="19" cy="52" r="1"/><circle cx="48" cy="47" r="1"/><circle cx="16" cy="47" r="1"/><circle cx="49" cy="41" r="1"/><circle cx="15" cy="41" r="1"/><path d="m14 18c-1.654 0-3 1.346-3 3s1.346 3 3 3 3-1.346 3-3-1.346-3-3-3zm0 4c-.551 0-1-.449-1-1s.449-1 1-1 1 .449 1 1-.449 1-1 1z"/></svg>