<?xml version="1.0" encoding="iso-8859-1"?>
<!-- Generator: Adobe Illustrator 19.0.0, SVG Export Plug-In . SVG Version: 6.00 Build 0)  -->
<svg version="1.1" id="Layer_1" xmlns="http://www.w3.org/2000/svg" xmlns:xlink="http://www.w3.org/1999/xlink" x="0px" y="0px"
	 viewBox="0 0 512 512" style="enable-background:new 0 0 512 512;" xml:space="preserve">
<g>
	<g>
		<path d="M165.308,120.805L136.479,69.34c-2.051-3.659-6.678-4.964-10.339-2.915c-3.66,2.05-4.964,6.679-2.915,10.339
			l15.514,27.695c-13.913-1.934-30.862,1.505-47.15,10.629c-13.783,7.721-24.941,18.42-31.417,30.124
			c-0.844,1.524-1.591,3.045-2.256,4.56L17.022,76.767c-4.088-7.298-0.344-16.255,2.25-20.945c5.127-9.263,14.2-17.868,25.55-24.225
			c21.91-12.273,46.2-12.325,53.041-0.112l13.825,24.68c2.051,3.66,6.679,4.965,10.338,2.915c3.66-2.05,4.965-6.679,2.915-10.338
			L111.116,24.06C99.873,3.995,67.492,1.484,37.396,18.342c-13.783,7.722-24.942,18.42-31.418,30.125
			c-7.122,12.87-7.907,25.557-2.213,35.724l54.193,96.745c0.002,0.003,0.003,0.005,0.005,0.007
			c5.697,10.163,16.924,16.117,31.615,16.767c0.879,0.039,1.763,0.059,2.656,0.059c12.668,0,26.566-3.902,39.443-11.115
			C161.775,169.795,176.547,140.87,165.308,120.805z M124.253,173.4c-11.35,6.358-23.43,9.603-34.004,9.134
			c-5.355-0.237-14.949-1.724-19.036-9.021c-4.088-7.298-0.345-16.255,2.249-20.945c5.126-9.263,14.2-17.868,25.549-24.225
			c10.992-6.157,22.582-9.238,32.269-9.238c9.618,0,17.36,3.039,20.77,9.121l0.003,0.005l0.001,0.001
			C158.892,140.444,146.161,161.127,124.253,173.4z"/>
	</g>
</g>
<g>
	<g>
		<path d="M190.615,495.178L111.48,211.383c-1.127-4.04-5.316-6.403-9.357-5.276c-4.041,1.127-6.403,5.316-5.276,9.357
			l79.134,283.795c0.937,3.358,3.988,5.557,7.313,5.557c0.675,0,1.362-0.091,2.045-0.281
			C189.38,503.408,191.741,499.219,190.615,495.178z"/>
	</g>
</g>
<g>
	<g>
		<path d="M472.111,492.046l-45.618-49.047c-2.857-3.072-7.663-3.246-10.735-0.389c-3.072,2.857-3.246,7.662-0.389,10.735
			l45.619,49.047c1.497,1.608,3.526,2.422,5.563,2.422c1.852,0,3.709-0.673,5.171-2.034
			C474.794,499.924,474.968,495.118,472.111,492.046z"/>
	</g>
</g>
<g>
	<g>
		<path d="M408.512,423.668L278.157,283.517c-2.857-3.072-7.662-3.246-10.735-0.389s-3.246,7.662-0.389,10.735l130.355,140.151
			c1.497,1.608,3.526,2.422,5.563,2.422c1.852,0,3.709-0.674,5.171-2.034C411.194,431.546,411.368,426.741,408.512,423.668z"/>
	</g>
</g>
<g>
	<g>
		<path d="M244.369,247.191l-69.933-75.189c-2.857-3.072-7.662-3.246-10.735-0.389c-3.073,2.857-3.245,7.663-0.388,10.735
			l69.933,75.189c1.497,1.608,3.526,2.422,5.563,2.422c1.852,0,3.709-0.674,5.171-2.034
			C247.052,255.07,247.226,250.264,244.369,247.191z"/>
	</g>
</g>
<g>
	<g>
		<path d="M506.022,48.467c-6.476-11.705-17.635-22.403-31.418-30.124c-30.096-16.859-62.478-14.347-73.718,5.717l-54.193,96.745
			c-0.003,0.005-0.005,0.01-0.007,0.014c-11.225,20.064,3.547,48.979,33.637,65.834c12.878,7.214,26.774,11.115,39.443,11.115
			c0.891,0,1.777-0.019,2.656-0.059c14.695-0.65,25.924-6.606,31.62-16.774l54.193-96.745
			C513.929,74.025,513.143,61.337,506.022,48.467z M440.791,173.508l-0.002,0.003c0,0.001-0.001,0.001-0.001,0.002
			c-4.088,7.298-13.681,8.784-19.035,9.02c-10.577,0.467-22.653-2.776-34.004-9.134c-21.91-12.273-34.642-32.958-27.801-45.171
			c3.409-6.087,11.15-9.126,20.772-9.126c9.685,0,21.277,3.081,32.268,9.238c11.35,6.358,20.424,14.961,25.55,24.225
			C441.133,157.255,444.875,166.21,440.791,173.508z M494.981,76.767l-40.894,73.005c-0.665-1.515-1.413-3.036-2.256-4.56
			c-6.476-11.705-17.635-22.403-31.417-30.124c-16.288-9.124-33.237-12.563-47.15-10.629l40.877-72.975
			c6.84-12.212,31.129-12.161,53.041,0.112c11.35,6.358,20.424,14.961,25.55,24.225C495.325,60.512,499.068,69.469,494.981,76.767z"
			/>
	</g>
</g>
<g>
	<g>
		<path d="M409.877,206.108c-4.04-1.129-8.231,1.234-9.357,5.275l-40.763,146.133c-1.127,4.041,1.234,8.229,5.275,9.357
			c0.682,0.19,1.369,0.281,2.045,0.281c3.324,0,6.375-2.199,7.312-5.557l40.763-146.133
			C416.279,211.424,413.918,207.235,409.877,206.108z"/>
	</g>
</g>
<g>
	<g>
		<path d="M356.112,398.856c-4.041-1.127-8.229,1.234-9.357,5.275l-25.397,91.047c-1.127,4.041,1.234,8.229,5.275,9.357
			c0.683,0.19,1.369,0.282,2.045,0.282c3.324,0,6.375-2.199,7.312-5.557l25.397-91.047
			C362.513,404.173,360.151,399.983,356.112,398.856z"/>
	</g>
</g>
<g>
	<g>
		<path d="M139.099,396.522c-3.07-2.857-7.876-2.684-10.734,0.389l-88.491,95.134c-2.857,3.072-2.683,7.877,0.389,10.735
			c1.462,1.361,3.319,2.034,5.171,2.034c2.036,0,4.067-0.814,5.563-2.422l88.491-95.134
			C142.345,404.185,142.171,399.379,139.099,396.522z"/>
	</g>
</g>
<g>
	<g>
		<path d="M348.302,171.611c-3.071-2.857-7.877-2.684-10.735,0.389L164.919,357.612c-2.856,3.072-2.683,7.877,0.389,10.735
			c1.462,1.361,3.319,2.034,5.171,2.034c2.036,0,4.067-0.814,5.563-2.422l172.649-185.612
			C351.548,179.274,351.374,174.469,348.302,171.611z"/>
	</g>
</g>
<g>
</g>
<g>
</g>
<g>
</g>
<g>
</g>
<g>
</g>
<g>
</g>
<g>
</g>
<g>
</g>
<g>
</g>
<g>
</g>
<g>
</g>
<g>
</g>
<g>
</g>
<g>
</g>
<g>
</g>
</svg>
