<svg id="Layer_1_1_" enable-background="new 0 0 64 64" height="512" viewBox="0 0 64 64" width="512" xmlns="http://www.w3.org/2000/svg"><path d="m25.436 47c.113 0 .228-.006.342-.018 2.789-.288 4.612-4.009 4.152-8.471-.461-4.462-3.019-7.736-5.795-7.444-2.789.288-4.613 4.009-4.152 8.472.442 4.279 2.801 7.461 5.453 7.461zm-1.097-13.944c.042-.004.085-.006.128-.006 1.392 0 3.12 2.256 3.473 5.667.363 3.518-.957 6.131-2.368 6.277-1.43.144-3.238-2.144-3.601-5.66-.362-3.519.957-6.132 2.368-6.278z"/><path d="m8.521 52.487c.549 1.899 2.167 3.318 4.122 3.615.259.039.517.059.773.059 1.452 0 2.837-.62 3.814-1.734 1.149-1.31 1.546-3.092 1.061-4.766l-.455-1.573c-1.087-3.757-.991-7.698.279-11.397.49-1.429.322-2.989-.46-4.28-.783-1.291-2.087-2.162-3.58-2.388-2.259-.342-4.48.876-5.405 2.963l-.418.944c-1.99 4.492-2.333 9.565-.968 14.285zm1.561-17.749.417-.943c.561-1.266 1.91-2.001 3.277-1.796.904.137 1.695.665 2.169 1.447s.576 1.729.279 2.594c-1.404 4.09-1.511 8.448-.309 12.603l.455 1.573c.294 1.016.053 2.097-.644 2.892-.697.794-1.733 1.176-2.784 1.016-1.186-.18-2.167-1.041-2.501-2.193l-1.236-4.273c-1.234-4.268-.923-8.856.877-12.92z"/><path d="m55 13.903v-5.29c.034-.103.07-.204.103-.307l-.103-.033v-1.273-4c0-.552-.448-1-1-1h-32c-.552 0-1 .448-1 1v4 6h-7c-.552 0-1 .448-1 1v3h-1c-.552 0-1 .448-1 1v3.639c-.345.423-.694.843-1.047 1.259-1.267 1.496-2.578 3.042-3.511 4.892-1.274 2.529-2.238 5.141-2.863 7.763-1.273 5.34-1.017 11.014.763 16.862l2.27 7.458c.387 1.273 1.54 2.127 2.87 2.127h16.518.518 23.598.884 6.884c2.269 0 4.116-1.847 4.116-4.116 0-8.638-1.139-17.246-3.369-25.518zm-31 3.097h-1v-3-6h30v.286c-4.883 14.674-14.779 26.607-20.203 29.317-.62-3.974-2.008-7.726-4.155-11.022-1.055-1.619-2.23-3.159-3.642-4.929v-3.652c0-.552-.448-1-1-1zm7.658 35.416c.083-.273.151-.547.228-.82 1.794-1.311 10.623-8.158 17.789-20.773l-.29 1.477c-2.246 8.338-3.385 16.946-3.385 25.584 0 .777.229 1.496.604 2.116h-17.266c.015-.043.036-.082.05-.126zm19.436-28.819-.008-.003c-5.84 13.139-14.473 21.477-18.474 24.86.542-2.965.683-5.917.434-8.777 5.198-2.208 14.286-12.314 19.935-25.679zm-28.094-19.597h30v2h-30zm-8 11h6v2h-6zm8 4v2h-10v-2zm-16.745 32.834c-1.675-5.505-1.921-10.826-.731-15.816.589-2.471 1.499-4.937 2.704-7.327.826-1.638 2.003-3.028 3.25-4.5.335-.396.67-.791.999-1.191h11.042c1.342 1.686 2.454 3.148 3.447 4.673 4.389 6.736 5.401 15.542 2.779 24.161l-1.573 5.166h-20.344zm19.745 8.166h-16.518c-.443 0-.828-.285-.957-.708l-.089-.292h19.127l-.089.291c-.128.424-.513.709-.956.709zm31.884 0h-2.884v-23h-2v23h-2-.884c-1.167 0-2.116-.949-2.116-2.116 0-8.462 1.115-16.896 3.331-25.132l2.669-13.572 2.684 13.64c2.201 8.168 3.316 16.601 3.316 25.064 0 1.167-.949 2.116-2.116 2.116z"/><path d="m30 17h12c1.654 0 3-1.346 3-3s-1.346-3-3-3h-12c-1.654 0-3 1.346-3 3s1.346 3 3 3zm0-4h12c.551 0 1 .449 1 1s-.449 1-1 1h-12c-.551 0-1-.449-1-1s.449-1 1-1z"/></svg>