<?xml version="1.0" encoding="iso-8859-1"?>
<!-- Generator: Adobe Illustrator 19.0.0, SVG Export Plug-In . SVG Version: 6.00 Build 0)  -->
<svg version="1.1" id="Layer_1" xmlns="http://www.w3.org/2000/svg" xmlns:xlink="http://www.w3.org/1999/xlink" x="0px" y="0px"
	 viewBox="0 0 512 512" style="enable-background:new 0 0 512 512;" xml:space="preserve">
<g>
	<g>
		<g>
			<path d="M324.267,238.08c-5.437-39.869-3.266-80.407,6.4-119.467c4.928-17.364-5.153-35.436-22.517-40.365
				c-0.315-0.089-0.632-0.174-0.95-0.254C306.773,52.395,302.336,0,256,0s-50.688,52.309-51.2,77.995
				c-17.563,4.164-28.425,21.778-24.261,39.341c0.136,0.572,0.287,1.14,0.453,1.704c9.665,39.06,11.837,79.598,6.4,119.467
				c-5.43,34.007-8.169,68.389-8.192,102.827v162.133c0,4.713,3.82,8.533,8.533,8.533h136.533c4.713,0,8.533-3.82,8.533-8.533
				V341.333C332.686,306.744,329.833,272.219,324.267,238.08z M256,17.067c15.104,0,32.256,7.083,34.133,59.733h-68.267
				C223.744,24.149,240.896,17.067,256,17.067z M201.301,98.901c3.186-3.205,7.513-5.016,12.032-5.035h85.333
				c8.857-0.245,16.235,6.737,16.48,15.593c0.051,1.831-0.213,3.657-0.778,5.399c-0.853,3.413-1.877,7.936-2.987,13.141H200.448
				c-1.109-5.205-2.133-9.728-2.987-13.141C195.932,109.233,197.38,103.215,201.301,98.901z M308.395,145.067
				c-1.195,10.069-2.901,21.589-3.584,34.133h-97.621c-0.683-12.544-1.963-24.064-3.499-34.133H308.395z M204.288,240.896
				c2.301-14.763,3.414-29.688,3.328-44.629h96.768c-0.082,14.913,1.031,29.809,3.328,44.544
				c2.133,13.483,3.755,27.136,5.035,40.875c-18.773,0.512-68.267,7.083-116.395,54.869
				C196.593,304.514,199.245,272.538,204.288,240.896z M315.733,494.933H196.267v-25.6c61.952-2.133,96.341-27.477,119.467-57.259
				V494.933z M315.733,381.355c-21.675,35.499-51.712,68.267-119.467,70.4v-90.112c39.083-45.909,86.016-62.379,117.931-62.976
				c0.939,14.251,1.536,28.587,1.536,42.667V381.355z"/>
			<path d="M256,34.133c-4.713,0-8.533,3.82-8.533,8.533V51.2c0,4.713,3.82,8.533,8.533,8.533s8.533-3.82,8.533-8.533v-8.533
				C264.533,37.954,260.713,34.133,256,34.133z"/>
		</g>
	</g>
</g>
<g>
</g>
<g>
</g>
<g>
</g>
<g>
</g>
<g>
</g>
<g>
</g>
<g>
</g>
<g>
</g>
<g>
</g>
<g>
</g>
<g>
</g>
<g>
</g>
<g>
</g>
<g>
</g>
<g>
</g>
</svg>
