<svg height="512" viewBox="0 0 128 128" width="512" xmlns="http://www.w3.org/2000/svg"><g><path d="m102.281 40.933a1.75 1.75 0 0 0 -1.634 1.859l.471 7.321a1.749 1.749 0 0 0 1.744 1.637h.115a1.749 1.749 0 0 0 1.633-1.859l-.47-7.321a1.758 1.758 0 0 0 -1.859-1.637z"/><path d="m69.577 31.75a1.75 1.75 0 0 0 -2.474 0l-49.116 49.116a1.751 1.751 0 0 0 0 2.475l26.672 26.672a1.752 1.752 0 0 0 2.475 0l49.116-49.113a1.749 1.749 0 0 0 0-2.475zm-23.677 74.55-24.2-24.2 46.64-46.637 24.2 24.2z"/><path d="m121.646 6.35c-3.709-3.694-12.234-.747-19.834 6.853a38.281 38.281 0 0 0 -4.5 5.408l-27.212-1.748a1.728 1.728 0 0 0 -1.35.509l-63.488 63.491a1.748 1.748 0 0 0 0 2.474l39.4 39.4a1.752 1.752 0 0 0 2.475 0l63.49-63.491a1.755 1.755 0 0 0 .509-1.35l-1.748-27.2a38.407 38.407 0 0 0 5.408-4.505c7.604-7.603 10.547-16.129 6.85-19.841zm-26.346 24.585a1.251 1.251 0 1 1 -.366.884 1.247 1.247 0 0 1 .366-.884zm-49.4 88.091-36.926-36.926 61.693-61.693 24.615 1.581a16.161 16.161 0 0 0 -1.887 6 4.729 4.729 0 0 0 -.573 7.186 4.758 4.758 0 0 0 6.718 0 4.745 4.745 0 0 0 -2.479-8.022 17.432 17.432 0 0 1 2.077-4.919l6.226.4 2.229 34.7zm63.223-92.477-.364-5.674a1.751 1.751 0 0 0 -1.634-1.634l-5.674-.364a36.19 36.19 0 0 1 2.836-3.2c6.728-6.727 13.2-8.525 14.884-6.852s-.12 8.159-6.849 14.888a36.2 36.2 0 0 1 -3.199 2.836z"/><path d="m62.825 65.867a6.163 6.163 0 1 0 8.589.123 5.923 5.923 0 0 0 -8.589-.123zm6.56 6.559c-1.065 1.064-2.723.941-4.035-.371-1.362-1.362-1.486-2.971-.4-4.059 1.015-1.016 2.7-.917 4.034.42s1.465 2.946.401 4.01z"/><path d="m53.691 57.872 5.174 28.836 2.623-2.624-5.173-28.836z"/><path d="m43.717 67.5a6.162 6.162 0 0 0 8.683 8.737 6.162 6.162 0 0 0 -8.683-8.737zm6.583 6.584c-1.015 1.015-2.7.916-4.034-.42s-1.46-2.946-.421-3.985c1.064-1.065 2.722-.941 4.034.371 1.362 1.361 1.462 2.995.421 4.034z"/></g></svg>