<svg height="512pt" viewBox="-62 0 512 512" width="512pt" xmlns="http://www.w3.org/2000/svg"><path d="m373.109375 0s-232.351563 0-237.101563 0c-34.214843 0-66.613281 5.519531-91.222656 15.535156-16.726562 6.808594-44.785156 22.191406-44.785156 48.726563v381.703125c0 26.542968 36.222656 66.035156 136.007812 66.035156 48.445313 0 80.058594-11.355469 98.046876-20.882812 18.25-9.664063 30.839843-21.855469 35.710937-34.09375h103.34375c8.285156 0 15-6.714844 15-15v-427.023438c0-8.285156-6.714844-15-15-15zm-131.09375 445.644531c-.792969 3.035157-7.882813 12.035157-24.636719 20.308594-14.816406 7.320313-40.960937 16.046875-81.371094 16.046875-46.503906 0-72.898437-9.242188-86.851562-16.996094-15.707031-8.730468-19.105469-17.246094-19.15625-19.039062v-340.15625c5.234375 3.011718 10.402344 5.390625 14.785156 7.175781 24.609375 10.019531 57.007813 15.535156 91.222656 15.535156 34.21875 0 66.613282-5.515625 91.222657-15.535156 4.386719-1.785156 9.550781-4.164063 14.789062-7.175781v339.835937zm-106.007813-347.125c-68.589843 0-106.007812-22.632812-106.007812-34.257812 0-11.628907 37.417969-34.261719 106.007812-34.261719 68.59375 0 106.011719 22.632812 106.011719 34.261719 0 11.628906-37.417969 34.257812-106.011719 34.257812zm222.101563 328.503907h-86.09375v-362.761719c0-14.699219-8.613281-25.96875-19.136719-34.261719h105.230469zm0 0"/><path d="m173.160156 64.492188c0-6.632813-16.578125-12.011719-37.03125-12.011719s-37.03125 5.378906-37.03125 12.011719c0 6.632812 16.578125 12.011718 37.03125 12.011718s37.03125-5.378906 37.03125-12.011718zm0 0"/></svg>