<svg id="Capa_1" enable-background="new 0 0 512 512" height="512" viewBox="0 0 512 512" width="512" xmlns="http://www.w3.org/2000/svg"><g><path d="m363.307 373.12c4.143 0 7.5-3.358 7.5-7.5v-336.499c0-16.058-13.063-29.121-29.12-29.121h-130.292c-12.083 0-23.042 7.592-27.267 18.892-29.367 78.538-43.799 160.773-42.896 244.424.851 78.658 15.284 155.975 42.899 229.803 4.224 11.293 15.18 18.88 27.262 18.88h130.293c16.057 0 29.12-13.063 29.12-29.121v-82.26c0-4.142-3.357-7.5-7.5-7.5s-7.5 3.358-7.5 7.5v82.26c0 7.786-6.334 14.121-14.12 14.121h-130.292c-5.859 0-11.168-3.671-13.212-9.135-27.004-72.194-41.118-147.798-41.949-224.71-.408-37.751 2.386-75.207 8.329-112.15 15.179-7.438 30.822-14.289 46.563-20.369 3.864-1.492 5.786-5.834 4.293-9.699-1.494-3.864-5.836-5.786-9.699-4.293-12.782 4.938-25.504 10.368-37.976 16.201 6.995-36.858 17.149-73.165 30.435-108.698 2.045-5.471 7.357-9.146 13.217-9.146h130.292c7.786 0 14.12 6.334 14.12 14.121v50.922c-34.351 3.79-68.523 10.59-101.677 20.239-5.012 1.459-10.06 3-15.002 4.581-3.945 1.261-6.121 5.482-4.859 9.428 1.276 3.989 5.569 6.093 9.428 4.859 4.818-1.541 9.739-3.043 14.626-4.465 31.795-9.253 64.549-15.812 97.485-19.541v270.476c-.001 4.142 3.357 7.5 7.499 7.5zm-24 36.38c0-4.142-3.357-7.5-7.5-7.5h-135c-4.142 0-7.5 3.358-7.5 7.5s3.358 7.5 7.5 7.5h135c4.143 0 7.5-3.358 7.5-7.5zm-112.5 22.5c-4.142 0-7.5 3.358-7.5 7.5s3.358 7.5 7.5 7.5h75c4.143 0 7.5-3.358 7.5-7.5s-3.357-7.5-7.5-7.5zm-7.897-103.956c5.874.587 11.434-3.549 12.46-9.366 5.3-3.138 13.724-6.72 24.426-6.488 9.078.188 16.406 3.101 21.263 5.77.52 5.91 5.923 10.626 11.928 10.395 13.598-.521 24.555-4.427 32.564-11.609 34.553-30.981 10.94-109.714-28.851-133.73-13.381-8.076-27.001-8.396-32.129-8.517-5.65-.13-35.067.454-57.919 25.136-26.102 28.192-39.097 84.609-16.086 112.385 7.558 9.123 18.743 14.664 32.344 16.024zm66.332-45.158c-1.605 6.634-3.265 13.286-4.954 19.893-6.409-2.961-14.535-5.388-24.183-5.587-12.032-.245-21.904 3.123-28.912 6.684-2.828-7.782-4.498-15.872-4.975-24.145-.837-14.534 2.25-26.868 5.626-35.679 8.324 7.291 17.411 12.018 27.072 14.071 10.756 2.286 19.965.748 26.691-.376 2.926-.489 7.307-1.223 8.535-.754.586 3.216-2.835 17.356-4.9 25.893zm-71.583-73.061c18.478-19.957 42.018-20.437 46.561-20.331 4.417.104 14.762.347 24.729 6.363 27.716 16.728 56.022 83.326 26.588 109.72-4.462 4.001-10.633 6.488-18.388 7.42 2.285-8.787 4.523-17.707 6.672-26.583 5.981-24.725 7.581-32.864 1.458-39.533-3.574-3.894-7.877-5.021-12.423-5.021-3.176 0-6.472.55-9.721 1.093-6.154 1.027-13.131 2.192-21.101.499-8.269-1.758-16.137-6.322-23.385-13.566-2.659-2.657-6.461-3.836-10.163-3.159-3.715.68-6.857 3.138-8.407 6.574-4.677 10.37-10.007 26.992-8.838 47.294.625 10.84 2.985 21.406 7.029 31.495-6.798-1.656-12.216-4.884-16.155-9.638-16.112-19.453-8.123-67.064 15.544-92.627zm118.148 162.175h-135c-4.142 0-7.5 3.358-7.5 7.5s3.358 7.5 7.5 7.5h135c4.143 0 7.5-3.358 7.5-7.5s-3.357-7.5-7.5-7.5z"/></g></svg>