<svg height="512pt" viewBox="0 -2 512.0001 512" width="512pt" xmlns="http://www.w3.org/2000/svg"><path d="m414.21875 418.554688c0-4.132813-3.347656-7.484376-7.480469-7.484376-4.132812 0-7.484375 3.351563-7.484375 7.484376v45.242187h-286.515625v-168.4375c0-4.132813-3.351562-7.484375-7.484375-7.484375-4.132812 0-7.480468 3.351562-7.480468 7.484375v174.519531c-.085938.453125-.136719.921875-.136719 1.398438v24.21875c0 .734375.078125 1.445312.199219 2.144531.617187 6.320313 5.957031 11.277344 12.441406 11.277344h291.4375c6.480468 0 11.824218-4.957031 12.441406-11.277344.121094-.699219.195312-1.410156.195312-2.144531v-24.21875c0-.476563-.050781-.945313-.132812-1.398438zm-14.964844 74.480468h-286.515625v-14.277344h286.515625zm0 0"/><path d="m511.023438 141.597656c-22.054688-52.566406-51.546876-91.949218-87.667969-117.050781-23.101563-16.054687-50.519531-24.5390625-79.292969-24.5390625-.015625 0-.03125 0-.042969 0l-20.472656.0039063-67.859375-.0117188-67.242188.0117188-20.472656-.0039063c-.015625 0-.027344 0-.042968 0-28.773438 0-56.195313 8.4843755-79.296876 24.5390625-31.152343 21.652344-57.371093 53.933594-78.140624 96.125-.1875.292969-.359376.59375-.503907.910156l-.75 1.652344c-2.40625 4.988281-4.738281 10.121094-6.996093 15.382813l-1.019532 2.242187c-.320312.707031-.5625 1.433594-.746094 2.167969-1.328124 4.675781.160157 9.71875 3.957032 12.929687l61.265625 51.839844c.730469.621094 1.519531 1.125 2.34375 1.546875 1.824219.964844 3.828125 1.449219 5.832031 1.449219 3.253906 0 6.496094-1.25 8.925781-3.71875l9.421875-9.585938 5.550782-5.550781v57.535156c0 4.132813 3.347656 7.480469 7.480468 7.480469 4.132813 0 7.484375-3.347656 7.484375-7.480469v-75.597656c0-3.027344-1.824219-5.753906-4.621093-6.910156-2.792969-1.160156-6.011719-.519532-8.152344 1.621094l-9.816406 9.816406-64.023438-55.535156c19.253906-37.71875 43.085938-66.597657 71.046875-86.03125 20.585937-14.308594 45.050781-21.867188 70.757813-21.867188h.039062 8.195312c.019532.207031.035157.347656.039063.394531.621094 5.914063 1.730469 11.8125 3.292969 17.542969 2.21875 8.09375 5.289062 15.511719 9.121094 22.042969 4.910156 8.371093 11.078124 15.308593 18.332031 20.632812 20.703125 15.183594 55.828125 17.175781 79.941406 9.273438 9.828125-3.222657 18.789063-8.753907 25.921875-15.996094 5.925781-6.023437 10.871094-13.402344 14.703125-21.941406 2.914063-6.496094 5.164063-13.609375 6.679687-21.132813.742188-3.65625 1.289063-7.273437 1.648438-10.816406h8.179688.039062c25.703125 0 50.171875 7.5625 70.757812 21.867188 27.953126 19.425781 51.777344 48.292968 71.027344 85.992187l-64.03125 55.546875-9.789062-9.789062c-2.140625-2.140626-5.355469-2.78125-8.152344-1.625-2.796875 1.160156-4.617188 3.886718-4.617188 6.914062v197.292969c0 4.132812 3.347657 7.484375 7.480469 7.484375 4.132813 0 7.480469-3.351563 7.480469-7.484375v-179.230469s1.929688 1.929688 1.933594 1.929688c4.425781 4.425781 8.808594 10.957031 14.167968 14.222656 13.191407 8.03125 20.796876-4.339844 30.144532-12.28125 15.675781-13.316406 31.398437-26.566406 47.097656-39.851563 4.183594-3.542969 5.574219-9.3125 3.460938-14.359375zm-431.480469 47.410156-5.878907 5.875-58.042968-49.507812c.078125-.1875.160156-.367188.238281-.554688l3.605469-7.925781zm105.285156-173.808593c.113281-.023438.234375-.039063.347656-.070313h.007813c-.117188.03125-.242188.046875-.355469.070313zm134.699219 7.617187c-1.300782 6.445313-3.207032 12.496094-5.664063 17.976563-3.101562 6.910156-7.042969 12.820312-11.714843 17.570312-5.460938 5.546875-12.351563 9.792969-19.914063 12.269531-10.683594 3.496094-22.414063 3.417969-34.484375 3.011719-2.878906-.101562-5.695312-.359375-8.382812-.765625-8.886719-1.335937-17.039063-4.574218-23.570313-9.363281-5.597656-4.109375-10.402344-9.539063-14.273437-16.136719-3.171876-5.402344-5.730469-11.601562-7.597657-18.417968-1.230469-4.519532-2.136719-9.167969-2.695312-13.832032h129.542969c-.300782 2.511719-.71875 5.082032-1.246094 7.6875zm118.769531 172.039063-5.875-5.875 60.042969-52.085938 3.855468 8.472657zm0 0"/></svg>