<svg id="Capa_1" enable-background="new 0 0 510 510" height="512" viewBox="0 0 510 510" width="512" xmlns="http://www.w3.org/2000/svg"><g><path d="m186.322 110.488c.327-1.259-2.805 10.774 18.024-69.269 5.574-24.173-23.841-40.987-41.712-23.714-2.236 2.168-3.152 2.495-5.134 2.495-2.441 0-3.241-.39-7.807-5.259-5.504-5.87-13.82-14.741-29.693-14.741-29.08 0-31.168 28.614-42.646 17.494-17.823-17.227-47.285-.489-41.7 23.719l18.026 69.275c-32.046 12.19-53.68 42.948-53.68 77.935v133.154c0 34.987 21.633 65.744 53.679 77.935-.327 1.259 2.804-10.774-18.025 69.269-5.574 24.171 23.838 40.986 41.711 23.716 11.462-11.105 13.546 17.503 42.635 17.503 29.08 0 31.165-28.611 42.646-17.494 17.822 17.227 47.285.489 41.7-23.719l-18.026-69.275c32.046-12.188 53.68-42.947 53.68-77.935v-133.154c0-34.987-21.633-65.745-53.678-77.935zm-103.822-60.488c24.298 0 29.785-20 37.5-20 7.732 0 13.171 20 37.5 20 5.684 0 10.398-1.161 14.311-2.858l-15.062 57.861c-.899-.005-72.841-.004-73.498 0l-15.061-57.86c3.914 1.697 8.628 2.857 14.31 2.857zm.923 85h73.154c29.338 0 53.423 23.707 53.423 53.423v4.935c-3.916.986-8.707 1.643-15 1.643-31.515 0-33.864-20-75-20-40.614 0-44.02 20-75 20-6.294 0-11.084-.656-15-1.643v-4.935c0-29.693 24.061-53.423 53.423-53.423zm126.577 88.916v62.168c-4.387-.672-9.347-1.084-15-1.084-40.613 0-44.02 20-75 20-31.515 0-33.864-20-75-20-5.653 0-10.613.412-15 1.084v-62.168c4.387.672 9.347 1.084 15 1.084 40.614 0 44.02-20 75-20 31.515 0 33.864 20 75 20 5.653 0 10.613-.412 15-1.084zm-52.5 236.084c-24.299 0-29.785 20-37.5 20-7.732 0-13.171-20-37.5-20-5.683 0-10.398 1.161-14.312 2.858l15.063-57.861c1.27.005 72.413.004 73.496 0l15.062 57.861c-3.914-1.697-8.627-2.858-14.309-2.858zm-.923-85c-72.751-.478-75.037 1.171-86.111-1.595-23.825-5.957-40.466-27.269-40.466-51.828v-4.934c3.917-.986 8.707-1.643 15-1.643 31.515 0 33.864 20 75 20 40.614 0 44.02-20 75-20 6.292 0 11.083.657 15 1.643v4.934c0 29.695-24.062 53.423-53.423 53.423z"/><path d="m105 240h30v30h-30z"/><path d="m451.642 379.572c4.258-5.975 58.358-45.192 58.358-124.572 0-79.196-54.293-118.867-58.358-124.571.244-.958-2.784 10.938 22.705-89.209 5.574-24.173-23.841-40.987-41.712-23.714-11.554 11.19-13.401-17.506-42.635-17.506-29.08 0-31.168 28.614-42.647 17.494-17.823-17.227-47.285-.489-41.7 23.719l22.705 89.215-11.539 11.539c-62.469 62.469-62.479 163.589.001 226.066l11.538 11.538c-.244.958 2.784-10.938-22.705 89.209-5.574 24.171 23.838 40.986 41.711 23.716 11.463-11.104 13.547 17.504 42.636 17.504 29.08 0 31.165-28.611 42.647-17.494 17.822 17.227 47.285.489 41.7-23.719zm-100.429-19.572c-10.023-10.406-17.984-16.751-27.398-30h132.371c-9.42 13.259-17.304 19.521-27.398 30zm0-210h77.574c10.108 10.494 17.979 16.744 27.397 30h-132.37c9.405-13.236 17.454-19.677 27.399-30zm120.805 60c3.544 9.614 5.941 19.67 7.122 30h-178.28c1.181-10.33 3.578-20.386 7.122-30zm7.122 60c-1.181 10.33-3.578 20.386-7.122 30h-164.036c-3.544-9.614-5.941-19.67-7.122-30zm-126.64-220c24.298 0 29.785-20 37.5-20 7.732 0 13.171 20 37.5 20 5.725 0 10.466-1.178 14.396-2.895l-18.556 72.895h-66.68l-18.554-72.895c3.93 1.717 8.671 2.895 14.394 2.895zm75 410c-24.299 0-29.785 20-37.5 20-7.732 0-13.171-20-37.5-20-5.724 0-10.466 1.179-14.397 2.896l18.556-72.896h66.681l18.554 72.895c-3.93-1.717-8.671-2.895-14.394-2.895z"/></g></svg>