<?xml version="1.0" encoding="iso-8859-1"?>
<!-- Generator: Adobe Illustrator 19.0.0, SVG Export Plug-In . SVG Version: 6.00 Build 0)  -->
<svg version="1.1" id="Capa_1" xmlns="http://www.w3.org/2000/svg" xmlns:xlink="http://www.w3.org/1999/xlink" x="0px" y="0px"
	 viewBox="0 0 512 512" style="enable-background:new 0 0 512 512;" xml:space="preserve">
<g>
	<g>
		<g>
			<path d="M486.4,0H332.8c-14.132,0.015-25.585,11.468-25.6,25.6v290.133c0.015,14.132,11.468,25.585,25.6,25.6H384V358.4
				c0.011,9.421,7.646,17.056,17.067,17.067V409.6c0.697,46.341-36.236,84.508-82.575,85.333h-99.383
				c-46.339-0.825-83.272-38.992-82.575-85.333c9.421-0.011,17.056-7.646,17.067-17.067v-17.067
				c9.421-0.011,17.056-7.645,17.067-17.067v-17.067h51.2c18.843-0.02,34.113-15.29,34.133-34.133V34.133
				C255.98,15.29,240.71,0.02,221.867,0H34.133C15.29,0.02,0.02,15.29,0,34.133V307.2c0.02,18.843,15.29,34.113,34.133,34.133h51.2
				V358.4c0.011,9.421,7.646,17.056,17.067,17.067v17.067c0.011,9.421,7.645,17.056,17.067,17.067
				c-0.687,55.763,43.881,101.565,99.642,102.4h99.383c55.761-0.835,100.329-46.637,99.642-102.4v-34.133
				c9.421-0.011,17.056-7.645,17.067-17.067v-17.067h51.2c14.132-0.015,25.585-11.468,25.6-25.6V25.6
				C511.985,11.468,500.532,0.015,486.4,0z M34.133,324.267c-9.421-0.011-17.056-7.645-17.067-17.067V34.133
				c0.011-9.421,7.646-17.056,17.067-17.067h187.733c9.421,0.011,17.056,7.646,17.067,17.067V307.2
				c-0.011,9.421-7.646,17.056-17.067,17.067H34.133z M102.4,358.4v-17.067h51.2V358.4H102.4z M119.467,375.467h17.067l0.009,17.067
				h-17.075V375.467z M401.067,358.4v-17.067h17.067l0.009,17.067H401.067z M494.933,315.733c-0.005,4.711-3.822,8.529-8.533,8.533
				H332.8c-4.711-0.005-8.529-3.822-8.533-8.533V51.2h170.667V315.733z M494.933,34.133H324.267V25.6
				c0.005-4.711,3.823-8.529,8.533-8.533h153.6c4.711,0.005,8.529,3.822,8.533,8.533V34.133z"/>
			<path d="M366.933,307.2h85.333c4.713,0,8.533-3.82,8.533-8.533s-3.821-8.533-8.533-8.533h-85.333
				c-4.713,0-8.533,3.82-8.533,8.533S362.221,307.2,366.933,307.2z"/>
			<path d="M384,247.467h51.2c9.421-0.011,17.056-7.645,17.067-17.067V128c-0.011-9.421-7.645-17.056-17.067-17.067V93.867
				c-0.011-9.421-7.645-17.056-17.067-17.067h-17.067c-9.421,0.011-17.056,7.646-17.067,17.067v17.067
				c-9.421,0.011-17.056,7.645-17.067,17.067v102.4C366.944,239.821,374.579,247.456,384,247.467z M401.067,93.867h17.067v17.067
				h-17.067V93.867z M384,128h8.533H435.2l0.006,68.267H384V128z M384,213.333h51.206l0.002,17.067H384V213.333z"/>
			<path d="M197.817,156.375l-51.95-8.279l8.258-42.442c0.697-3.57-0.947-7.189-4.094-9.014c-3.147-1.824-7.104-1.452-9.856,0.926
				l-85.9,74.133c-2.514,2.169-3.541,5.599-2.633,8.793s3.587,5.57,6.866,6.091l51.942,8.279l-8.258,42.442
				c-0.694,3.569,0.95,7.186,4.095,9.01c3.145,1.824,7.101,1.456,9.855-0.919l85.908-74.133c2.515-2.169,3.542-5.6,2.634-8.794
				C203.776,159.274,201.096,156.897,197.817,156.375z M123.65,216.371l5.242-26.917c0.443-2.271-0.056-4.624-1.383-6.52
				c-1.326-1.896-3.366-3.171-5.651-3.534l-42.533-6.779l53.342-46.033l-5.233,26.917c-0.443,2.271,0.056,4.624,1.383,6.52
				c1.326,1.896,3.366,3.171,5.651,3.534L177,170.337L123.65,216.371z"/>
		</g>
	</g>
</g>
<g>
</g>
<g>
</g>
<g>
</g>
<g>
</g>
<g>
</g>
<g>
</g>
<g>
</g>
<g>
</g>
<g>
</g>
<g>
</g>
<g>
</g>
<g>
</g>
<g>
</g>
<g>
</g>
<g>
</g>
</svg>
