<svg viewBox="-80 0 512 512" xmlns="http://www.w3.org/2000/svg"><path d="m315.355469 172.996094c-21.394531-40.839844-51.132813-71.523438-84.523438-87.5v-70.496094c0-8.285156-6.714843-15-15-15h-80.332031c-8.285156 0-15 6.714844-15 15v70.496094c-33.386719 15.976562-63.128906 46.660156-84.523438 87.5-23.535156 44.929687-35.976562 98.785156-35.976562 155.742187 0 66.101563 17.074219 128.761719 48.082031 176.441407 2.765625 4.253906 7.496094 6.820312 12.574219 6.820312h230.019531c5.078125 0 9.808594-2.566406 12.574219-6.820312 31.007812-47.679688 48.082031-110.339844 48.082031-176.441407 0-56.957031-12.441406-110.8125-35.976562-155.742187zm-164.855469-142.996094h50.332031v50.332031h-50.332031zm131.859375 452h-213.390625c-25.175781-41.984375-38.96875-96.046875-38.96875-153.261719 0-52.128906 11.257812-101.171875 32.550781-141.820312 19.496094-37.214844 46.351563-64.300781 75.84375-76.585938h74.546875c29.492188 12.285157 56.34375 39.371094 75.839844 76.585938 21.296875 40.652343 32.554688 89.691406 32.554688 141.820312-.003907 57.214844-13.796876 111.273438-38.976563 153.261719zm0 0"/><path d="m175.664062 283.890625c-45.460937 0-82.445312 36.984375-82.445312 82.445313 0 8.035156 2.320312 15.832031 6.71875 22.554687 7.652344 11.695313 20.554688 18.675781 34.511719 18.675781 10.136719 0 17.960937-2.320312 24.867187-4.363281 5.667969-1.679687 10.5625-3.128906 16.347656-3.128906 5.789063 0 10.683594 1.449219 16.347657 3.128906 6.902343 2.042969 14.730469 4.363281 24.871093 4.363281 13.957032 0 26.855469-6.980468 34.515626-18.683594 4.390624-6.714843 6.714843-14.511718 6.714843-22.546874 0-45.460938-36.984375-82.445313-82.449219-82.445313zm50.628907 88.570313c-2.09375 3.195312-5.609375 5.105468-9.410157 5.105468-5.789062 0-10.683593-1.449218-16.347656-3.128906-6.902344-2.046875-14.730468-4.367188-24.871094-4.367188-10.136718 0-17.964843 2.320313-24.867187 4.367188-5.667969 1.679688-10.5625 3.128906-16.347656 3.128906-3.800781 0-7.316407-1.910156-9.40625-5.101562-1.195313-1.824219-1.824219-3.945313-1.824219-6.128906 0-28.917969 23.527344-52.445313 52.445312-52.445313 28.921876 0 52.445313 23.527344 52.445313 52.445313.003906 2.1875-.628906 4.304687-1.816406 6.125zm0 0"/><path d="m108.714844 270.109375c3.949218 0 7.820312-1.601563 10.609375-4.398437 2.792969-2.789063 4.390625-6.652344 4.390625-10.601563s-1.597656-7.820313-4.390625-10.609375c-2.789063-2.789062-6.660157-4.390625-10.609375-4.390625-3.949219 0-7.808594 1.601563-10.597656 4.390625-2.792969 2.789062-4.402344 6.660156-4.402344 10.609375 0 3.941406 1.609375 7.808594 4.402344 10.601563 2.789062 2.800781 6.660156 4.398437 10.597656 4.398437zm0 0"/><path d="m152.457031 246.898438c3.949219 0 7.808594-1.597657 10.609375-4.390626 2.789063-2.796874 4.390625-6.660156 4.390625-10.609374 0-3.949219-1.601562-7.820313-4.390625-10.609376-2.800781-2.789062-6.660156-4.390624-10.609375-4.390624s-7.8125 1.601562-10.609375 4.390624c-2.792968 2.789063-4.390625 6.660157-4.390625 10.609376 0 3.949218 1.597657 7.8125 4.390625 10.609374 2.796875 2.792969 6.667969 4.390626 10.609375 4.390626zm0 0"/><path d="m198.875 246.898438c3.941406 0 7.8125-1.597657 10.601562-4.390626 2.789063-2.796874 4.390626-6.660156 4.390626-10.609374 0-3.949219-1.601563-7.808594-4.390626-10.609376-2.789062-2.789062-6.660156-4.390624-10.601562-4.390624-3.949219 0-7.820312 1.601562-10.609375 4.390624-2.789063 2.789063-4.390625 6.660157-4.390625 10.609376 0 3.949218 1.601562 7.8125 4.390625 10.609374 2.789063 2.792969 6.660156 4.390626 10.609375 4.390626zm0 0"/><path d="m242.617188 270.109375c3.9375 0 7.808593-1.601563 10.597656-4.398437 2.792968-2.789063 4.402344-6.660157 4.402344-10.601563 0-3.949219-1.609376-7.820313-4.402344-10.609375-2.789063-2.789062-6.660156-4.390625-10.597656-4.390625-3.953126 0-7.820313 1.601563-10.609376 4.390625-2.792968 2.789062-4.390624 6.660156-4.390624 10.609375s1.597656 7.808594 4.390624 10.601563c2.789063 2.800781 6.65625 4.398437 10.609376 4.398437zm0 0"/></svg>