<svg id="Capa_1" enable-background="new 0 0 511.993 511.993" height="512" viewBox="0 0 511.993 511.993" width="512" xmlns="http://www.w3.org/2000/svg"><g><path d="m501.636 143.937c-8.254-12.173-20.609-20.129-34.794-22.401-2.775-.443-5.606-.668-8.415-.668-28.84 0-55.678 23.526-62.426 54.724-3.869 17.885-.682 36.119 8.747 50.026 8.252 12.173 20.607 20.13 34.79 22.403 2.77.444 5.602.669 8.418.669 28.84 0 55.678-23.525 62.428-54.722 3.87-17.885.682-36.12-8.748-50.031zm-10.799 45.801c-4.805 22.207-23.24 38.952-42.881 38.952-1.759 0-3.526-.141-5.252-.417-8.678-1.391-16.278-6.319-21.401-13.878-6.376-9.404-8.474-22.007-5.755-34.575 4.805-22.206 23.238-38.952 42.879-38.952 1.755 0 3.524.141 5.255.417 8.675 1.39 16.275 6.318 21.399 13.876 6.377 9.407 8.475 22.009 5.756 34.577z"/><path d="m115.992 175.591c-6.749-31.197-33.587-54.724-62.427-54.724-2.809 0-5.64.225-8.419.669-14.181 2.271-26.536 10.228-34.79 22.401-9.43 13.91-12.618 32.146-8.748 50.03 6.75 31.195 33.588 54.721 62.428 54.722h.003c2.814 0 5.646-.225 8.415-.669 14.183-2.273 26.538-10.23 34.79-22.403 9.429-13.907 12.617-32.141 8.748-50.026zm-25.302 38.804c-5.123 7.559-12.724 12.487-21.401 13.878-1.726.276-3.492.417-5.249.417h-.003c-19.641-.001-38.076-16.746-42.881-38.952-2.719-12.567-.621-25.17 5.756-34.576 5.124-7.559 12.725-12.487 21.396-13.876 1.734-.277 3.504-.418 5.259-.418 19.641 0 38.074 16.746 42.879 38.952 2.717 12.568.62 25.171-5.756 34.575z"/><path d="m334.807 170.459c39.433 0 71.513-35.593 71.513-79.343s-32.08-79.343-71.513-79.343-71.514 35.593-71.514 79.343 32.081 79.343 71.514 79.343zm0-138.685c28.404 0 51.513 26.621 51.513 59.343s-23.108 59.343-51.513 59.343-51.514-26.621-51.514-59.343 23.11-59.343 51.514-59.343z"/><path d="m177.186 170.459c39.433 0 71.514-35.593 71.514-79.343s-32.081-79.343-71.514-79.343-71.513 35.593-71.513 79.343 32.08 79.343 71.513 79.343zm0-138.685c28.404 0 51.514 26.621 51.514 59.343s-23.109 59.343-51.514 59.343-51.513-26.621-51.513-59.343 23.109-59.343 51.513-59.343z"/><path d="m255.996 190.393c-83.775 0-151.932 68.156-151.932 151.932v5.964c0 83.774 68.156 151.931 151.932 151.931s151.932-68.156 151.932-151.931v-5.964c0-83.776-68.156-151.932-151.932-151.932zm131.932 157.895c0 72.747-59.185 131.931-131.932 131.931s-131.932-59.184-131.932-131.931v-5.964c0-72.747 59.185-131.932 131.932-131.932s131.932 59.185 131.932 131.932z"/><path d="m316.232 312.978h-27.907v-27.907c0-5.522-4.478-10-10-10h-44.656c-5.522 0-10 4.478-10 10v27.907h-27.907c-5.522 0-10 4.478-10 10v44.657c0 5.522 4.478 10 10 10h27.907v27.906c0 5.522 4.478 10 10 10h44.656c5.522 0 10-4.478 10-10v-27.906h27.907c5.522 0 10-4.478 10-10v-44.657c0-5.523-4.478-10-10-10zm-10 44.657h-27.907c-5.522 0-10 4.478-10 10v27.906h-24.656v-27.906c0-5.522-4.478-10-10-10h-27.907v-24.657h27.907c5.522 0 10-4.478 10-10v-27.907h24.656v27.907c0 5.522 4.478 10 10 10h27.907z"/></g></svg>