<?xml version="1.0" encoding="iso-8859-1"?>
<!-- Generator: Adobe Illustrator 19.0.0, SVG Export Plug-In . SVG Version: 6.00 Build 0)  -->
<svg version="1.1" id="Layer_1" xmlns="http://www.w3.org/2000/svg" xmlns:xlink="http://www.w3.org/1999/xlink" x="0px" y="0px"
	 viewBox="0 0 512 512" style="enable-background:new 0 0 512 512;" xml:space="preserve">
<g>
	<g>
		<path d="M478.046,29.047c-10.544,0-19.98,4.831-26.212,12.396H426.04C424.327,18.306,404.968,0,381.4,0h-65.163
			c-4.466,0-8.084,3.619-8.084,8.084s3.618,8.084,8.084,8.084h30.743c-6.464,7.763-10.355,17.739-10.355,28.607v4.751v26.947V342.39
			v29.752v48.611h-224.73V76.474V49.527v-4.751c0-15.774,12.833-28.607,28.608-28.607h148.25c4.466,0,8.084-3.619,8.084-8.084
			S293.219,0,288.753,0H140.501c-23.568,0-42.927,18.306-44.64,41.443H60.166c-6.232-7.565-15.668-12.396-26.212-12.396
			C15.232,29.047,0,44.279,0,63.001c0,18.722,15.232,33.954,33.954,33.954c10.544,0,19.98-4.831,26.212-12.396h35.559v344.277
			v29.752v32.393c0,11.59,9.429,21.019,21.019,21.019h215.029c11.59,0,21.019-9.429,21.019-21.019v-32.393v-28.204h40.101
			c23.671,0,32.871-19.042,33.28-31.841c0.003-0.085,0.004-0.171,0.004-0.258v-26.143V342.39V84.559h25.657
			c6.232,7.565,15.668,12.396,26.212,12.396c18.722,0,33.954-15.232,33.954-33.954C512,44.279,496.768,29.047,478.046,29.047z
			 M51.657,64.611c-0.013,0.14-0.027,0.28-0.043,0.42c-0.056,0.492-0.127,0.978-0.223,1.456c-0.008,0.038-0.012,0.078-0.019,0.115
			c-0.108,0.522-0.244,1.033-0.397,1.537c-0.032,0.108-0.068,0.215-0.102,0.321c-0.153,0.473-0.32,0.939-0.511,1.394
			c-0.012,0.027-0.022,0.055-0.032,0.083c-0.219,0.515-0.461,1.016-0.727,1.505c-0.015,0.028-0.031,0.055-0.046,0.083
			c-3.025,5.512-8.883,9.26-15.603,9.26c-9.807,0-17.785-7.979-17.785-17.785s7.979-17.785,17.785-17.785
			c6.72,0,12.579,3.748,15.603,9.261c0.015,0.028,0.031,0.055,0.046,0.082c0.265,0.489,0.508,0.992,0.727,1.506
			c0.012,0.027,0.02,0.055,0.032,0.082c0.191,0.455,0.358,0.922,0.511,1.395c0.034,0.107,0.07,0.213,0.102,0.322
			c0.152,0.504,0.289,1.015,0.396,1.537c0.008,0.038,0.012,0.078,0.019,0.115c0.096,0.479,0.167,0.965,0.223,1.456
			c0.016,0.14,0.03,0.28,0.043,0.42c0.05,0.529,0.083,1.065,0.083,1.608S51.706,64.08,51.657,64.611z M95.723,68.391H67.478V68.39
			c0.003-0.019,0.004-0.04,0.008-0.059c0.125-0.788,0.217-1.586,0.287-2.391c0.014-0.168,0.026-0.336,0.039-0.504
			c0.056-0.805,0.096-1.615,0.096-2.435c0-0.82-0.04-1.63-0.097-2.435c-0.012-0.168-0.024-0.336-0.039-0.504
			c-0.069-0.805-0.162-1.603-0.287-2.391c-0.003-0.019-0.004-0.039-0.008-0.058h28.246V68.391z M336.623,450.504h-27.93
			c-4.466,0-8.084,3.618-8.084,8.084c0,4.466,3.618,8.084,8.084,8.084h27.93v24.309c0,2.674-2.176,4.851-4.851,4.851H116.744
			c-2.674,0-4.851-2.176-4.851-4.851v-24.309h168.776c4.466,0,8.084-3.618,8.084-8.084c0-4.466-3.618-8.084-8.084-8.084H111.893
			V436.92h224.73V450.504z M381.4,16.168c14.646,0,26.751,11.067,28.408,25.274h-56.816C354.649,27.235,366.754,16.168,381.4,16.168
			z M410.009,398.086c-0.168,2.975-1.789,16.13-17.116,16.13h-40.101v-33.989h57.217V398.086z M410.009,364.058h-57.217v-13.584
			h57.217V364.058z M410.009,334.306h-57.217V84.559h57.217V334.306z M444.189,65.429c0.012,0.172,0.025,0.345,0.04,0.517
			c0.069,0.8,0.161,1.594,0.285,2.378c0.003,0.023,0.004,0.044,0.008,0.066h-91.73V57.611h91.73
			c-0.003,0.022-0.004,0.044-0.008,0.066c-0.124,0.784-0.216,1.577-0.285,2.378c-0.015,0.172-0.027,0.345-0.04,0.517
			c-0.057,0.803-0.096,1.611-0.096,2.428C444.093,63.818,444.131,64.626,444.189,65.429z M478.046,80.786
			c-6.716,0-12.573-3.745-15.598-9.254c-0.017-0.031-0.036-0.063-0.053-0.094c-0.264-0.487-0.506-0.987-0.724-1.5
			c-0.012-0.029-0.023-0.059-0.034-0.088c-0.19-0.453-0.357-0.918-0.51-1.389c-0.035-0.108-0.07-0.214-0.102-0.322
			c-0.152-0.504-0.289-1.015-0.396-1.537c-0.008-0.038-0.012-0.076-0.019-0.115c-0.096-0.479-0.167-0.965-0.223-1.456
			c-0.016-0.14-0.03-0.28-0.043-0.42c-0.047-0.531-0.082-1.067-0.082-1.61s0.033-1.079,0.082-1.61c0.013-0.14,0.027-0.28,0.043-0.42
			c0.056-0.492,0.127-0.978,0.223-1.456c0.008-0.038,0.012-0.078,0.019-0.115c0.108-0.522,0.244-1.033,0.396-1.537
			c0.032-0.108,0.068-0.216,0.102-0.323c0.152-0.471,0.32-0.936,0.51-1.389c0.012-0.029,0.023-0.058,0.034-0.087
			c0.219-0.513,0.46-1.013,0.724-1.501c0.017-0.031,0.036-0.061,0.053-0.093c3.026-5.509,8.882-9.254,15.598-9.254
			c9.807,0,17.785,7.979,17.785,17.785C495.832,72.803,487.853,80.786,478.046,80.786z"/>
	</g>
</g>
<g>
</g>
<g>
</g>
<g>
</g>
<g>
</g>
<g>
</g>
<g>
</g>
<g>
</g>
<g>
</g>
<g>
</g>
<g>
</g>
<g>
</g>
<g>
</g>
<g>
</g>
<g>
</g>
<g>
</g>
</svg>
