<svg id="Capa_1" enable-background="new 0 0 512 512" height="512" viewBox="0 0 512 512" width="512" xmlns="http://www.w3.org/2000/svg"><g><path d="m465.943 46.057c-61.409-61.409-161.329-61.409-222.739 0-12.904 12.904-23.288 27.642-30.982 43.915-14.655-10.668-35.355-9.398-48.568 3.815-14.621 14.621-14.621 38.412 0 53.033l11.494 11.494-86.478 160.712c-1.963 3.648-.598 8.199 3.051 10.158 3.647 1.963 8.196.597 10.158-3.051l84.344-156.746 46.375 46.375c8.773 8.773 8.773 23.047 0 31.82l-31.52 31.52c-8.679 8.679-9.137 22.445-1.044 31.338.248.272.5.537.758.796 4.108 4.108 9.522 6.432 15.363 6.57 6.121.144 12.114-2.256 16.443-6.584l31.82-31.82c8.773-8.772 23.047-8.773 31.82 0l46.375 46.375-132.054 71.058c-46.362-2.587-90.668-21.156-124.965-52.418-1.662-1.514-3.916-2.204-6.141-1.878s-4.186 1.634-5.343 3.562c-.093.155-.093.155-71.456 132.777-4.667 8.674-3.062 19.598 3.905 26.564 6.966 6.966 17.889 8.571 26.564 3.905l320.565-172.495 11.493 11.493c14.621 14.621 38.412 14.621 53.033 0 13.213-13.213 14.482-33.912 3.815-48.568 16.273-7.694 31.012-18.078 43.915-30.982 61.408-61.409 61.408-161.329-.001-222.738zm-439.928 450.081c-2.89 1.554-6.53 1.019-8.851-1.302s-2.857-5.96-1.302-8.85c0 0 51.24-95.226 66.833-124.202 29.95 24.96 66.176 41.393 104.557 47.592zm381.592-158.4c-8.773 8.773-23.047 8.773-31.82 0l-68.943-68.943c-14.621-14.621-38.412-14.621-53.033 0l-31.82 31.82c-1.464 1.464-3.411 2.243-5.482 2.194-2.069-.049-3.98-.934-5.381-2.465-2.649-2.91-2.399-7.681.556-10.636l31.52-31.52c14.621-14.621 14.621-38.412 0-53.033l-68.943-68.943c-8.773-8.773-8.773-23.047 0-31.82s23.047-8.773 31.82 0c6.862 6.862 8.016 11.973 9.478 18.445 1.674 7.414 3.571 15.817 13.502 25.748s18.334 11.828 25.748 13.502c6.472 1.461 11.583 2.615 18.445 9.477s8.017 11.974 9.478 18.445c1.674 7.414 3.571 15.817 13.502 25.748 9.932 9.932 18.335 11.829 25.749 13.503 6.472 1.461 11.583 2.616 18.446 9.479s8.017 11.974 9.479 18.446c1.675 7.414 3.572 15.818 13.504 25.75s18.335 11.829 25.749 13.504c6.472 1.462 11.584 2.616 18.447 9.479 8.772 8.774 8.771 23.048-.001 31.82zm2.553-49.074c-6.54-4.32-12.375-5.653-17.697-6.855-6.471-1.462-11.583-2.616-18.446-9.479s-8.017-11.975-9.479-18.447c-1.674-7.415-3.572-15.818-13.503-25.749-9.932-9.932-18.335-11.829-25.749-13.503-6.471-1.462-11.583-2.616-18.446-9.479-6.862-6.862-8.016-11.973-9.478-18.445-1.674-7.414-3.571-15.817-13.502-25.748s-18.334-11.828-25.748-13.502c-6.471-1.461-11.582-2.615-18.444-9.477s-8.017-11.974-9.478-18.445c-1.202-5.321-2.535-11.156-6.854-17.695 7.136-16.891 17.372-32.074 30.475-45.176 55.561-55.561 145.965-55.561 201.525 0 55.561 55.561 55.561 145.964 0 201.526-13.102 13.101-28.285 23.338-45.176 30.474z"/></g></svg>