<?xml version="1.0"?>
<svg xmlns="http://www.w3.org/2000/svg" viewBox="0 0 64 64" width="512" height="512"><g id="Soap-2" data-name="Soap"><path d="M13,57H6a1,1,0,0,0,0,2h7a1,1,0,0,0,0-2Z"/><path d="M17,57H16a1,1,0,0,0,0,2h1a1,1,0,0,0,0-2Z"/><path d="M41,57H34a1,1,0,0,0,0,2h7a1,1,0,0,0,0-2Z"/><path d="M45,57H44a1,1,0,0,0,0,2h1a1,1,0,0,0,0-2Z"/><path d="M62,51H58V47a3.009,3.009,0,0,0-3-3H35a3.009,3.009,0,0,0-3,3v4H31V18a5,5,0,0,0-5-5H23V8a1,1,0,0,0-1-1H20V3h3.586l2.707,2.707a1,1,0,0,0,1.414-1.414l-3-3A1,1,0,0,0,24,1H8A1,1,0,0,0,8,3h4V7H10A1,1,0,0,0,9,8v5H6a5,5,0,0,0-5,5V58a5,5,0,0,0,5,5H26a5.036,5.036,0,0,0,4.14-2.18A8.939,8.939,0,0,0,36,63H54a9.014,9.014,0,0,0,9-9V52A1,1,0,0,0,62,51ZM34,47a1,1,0,0,1,1-1H55a1,1,0,0,1,1,1v4H34ZM3,30H29V42H3ZM14,3h4V7H14ZM11,9H21v4H11ZM6,15H26a3.009,3.009,0,0,1,3,3V28H3V18A3.009,3.009,0,0,1,6,15ZM26,61H6a3.009,3.009,0,0,1-3-3V44H29v7H28a1,1,0,0,0-1,1v2a8.9,8.9,0,0,0,1.71,5.27A3,3,0,0,1,26,61Zm35-7a7.008,7.008,0,0,1-7,7H36a7.028,7.028,0,0,1-7-7V53H61Z"/><path d="M15.26,31.33C14.71,31.94,12,35.06,12,37a4,4,0,0,0,8,0c0-1.94-2.71-5.06-3.26-5.67A1.027,1.027,0,0,0,15.26,31.33ZM16,39a2.006,2.006,0,0,1-2-2c0-.64.94-2.13,2-3.45,1.06,1.33,2,2.83,2,3.45A2.006,2.006,0,0,1,16,39Z"/></g></svg>
