<?xml version="1.0"?>
<svg xmlns="http://www.w3.org/2000/svg" id="Icons" viewBox="0 0 74 74" width="512" height="512"><path d="M17,34a1,1,0,0,1-1-1V11.55a1,1,0,0,1,2,0V33A1,1,0,0,1,17,34Z"/><path d="M57,34a1,1,0,0,1-1-1V4H35.8a1,1,0,0,1,0-2H57a1,1,0,0,1,1,1V33A1,1,0,0,1,57,34Z"/><path d="M51,19.5H41a1,1,0,0,1-1-1V8.5a1,1,0,0,1,1-1H51a1,1,0,0,1,1,1v10A1,1,0,0,1,51,19.5Zm-9-2h8v-8H42Z"/><path d="M51,34a1,1,0,0,1-1-1V25.17H42V33a1,1,0,0,1-2,0V24.17a1,1,0,0,1,1-1H51a1,1,0,0,1,1,1V33A1,1,0,0,1,51,34Z"/><path d="M33,19.5H23a1,1,0,0,1-1-1V11.4a1,1,0,1,1,2,0v6.1h8v-8h-.44a1,1,0,1,1,0-2H33a1,1,0,0,1,1,1v10A1,1,0,0,1,33,19.5Z"/><path d="M33,34a1,1,0,0,1-1-1V25.17H24V33a1,1,0,0,1-2,0V24.17a1,1,0,0,1,1-1H33a1,1,0,0,1,1,1V33A1,1,0,0,1,33,34Z"/><path d="M27.341,15.7a5.518,5.518,0,0,1-2.08-.409,5.463,5.463,0,0,1-2.617-2.215,5.467,5.467,0,0,1-1.184.705c-2.63,1.122-4.128-.184-5.246-1.609a1,1,0,1,1,1.572-1.235c1.033,1.316,1.654,1.533,2.881,1.008a3.306,3.306,0,0,0,1.455-1.216,1,1,0,0,1,1.806.3,4.24,4.24,0,0,0,.178.533,3.478,3.478,0,0,0,1.908,1.881A3.535,3.535,0,0,0,30.6,8.781c-.053-.113-.13-.258-.207-.4a1.026,1.026,0,0,1,.062-1.063,1,1,0,0,1,.96-.423A2.986,2.986,0,0,0,33.041,6.7a3.038,3.038,0,0,0,1.784-3.476,1,1,0,1,1,1.949-.446A5.035,5.035,0,0,1,33.82,8.541a4.9,4.9,0,0,1-1.1.319,5.539,5.539,0,0,1-5.38,6.835Z"/><path d="M57,72H17a3,3,0,0,1-3-3V33a1,1,0,0,1,1-1H59a1,1,0,0,1,1,1V69A3,3,0,0,1,57,72ZM16,34V69a1,1,0,0,0,1,1H57a1,1,0,0,0,1-1V34Z"/><path d="M52,51a1.008,1.008,0,0,1-.418-.091l-37-17A1,1,0,0,1,15,32H59a1,1,0,0,1,.925,1.381l-7,17A1,1,0,0,1,52,51ZM19.571,34l31.9,14.657L57.507,34Z"/><path d="M59,65H15a1,1,0,0,1,0-2H59a1,1,0,0,1,0,2Z"/></svg>
