<svg xmlns="http://www.w3.org/2000/svg" xmlns:xlink="http://www.w3.org/1999/xlink" width="147" height="138" viewBox="0 0 147 138">
  <defs>
    <linearGradient id="linear-gradient" x1="-1.764" y1="0.5" x2="-0.326" y2="0.5" gradientUnits="objectBoundingBox">
      <stop offset="0" stop-color="#f8f6f7"/>
      <stop offset="1" stop-color="#d1ceeb"/>
    </linearGradient>
  </defs>
  <g id="Group_441" data-name="Group 441" transform="translate(-1447 -1968)">
    <text id="_" data-name="%" transform="translate(1504 2089)" fill="#fff" font-size="37" font-family="Poppins-SemiBold, Poppins" font-weight="600"><tspan x="-15.337" y="0">%</tspan></text>
    <text id="_2" data-name="%" transform="translate(1546 2014)" fill="#fff" font-size="29" font-family="Poppins-SemiBold, Poppins" font-weight="600"><tspan x="-12.02" y="0">%</tspan></text>
    <text id="_3" data-name="%" transform="translate(1590 2099)" fill="#fff" font-size="9" font-family="Poppins-SemiBold, Poppins" font-weight="600"><tspan x="-3.73" y="0">%</tspan></text>
    <g id="_4" data-name="4" transform="translate(1452.647 2030.582)">
      <g id="Group_228" data-name="Group 228" transform="translate(79.999)">
        <path id="Path_424" data-name="Path 424" d="M154.859,13.375H118.3l2.125-9.707A4.664,4.664,0,0,1,124.98,0h23.2a4.665,4.665,0,0,1,4.557,3.667Z" transform="translate(-118.297 0)" fill="#43a6dd"/>
        <path id="Path_425" data-name="Path 425" d="M276.223,3.667A4.665,4.665,0,0,0,271.666,0h-8.448a4.665,4.665,0,0,1,4.557,3.667l2.125,9.707h8.448Z" transform="translate(-241.787)" fill="#3e99cc"/>
        <path id="Path_426" data-name="Path 426" d="M154.859,419.558H118.3l2.125,9.707a4.664,4.664,0,0,0,4.557,3.667h23.2a4.665,4.665,0,0,0,4.557-3.667Z" transform="translate(-118.297 -357.514)" fill="#43a6dd"/>
        <path id="Path_427" data-name="Path 427" d="M154.856,419.56l-.374,1.71-.81,3.7-.941,4.3a4.666,4.666,0,0,1-4.558,3.667h-5.918a4.666,4.666,0,0,0,4.558-3.667,3.542,3.542,0,0,0-3.46-4.3H119.479l-.81-3.7-.374-1.71Z" transform="translate(-118.294 -357.516)" fill="#3e99cc"/>
      </g>
      <g id="Group_231" data-name="Group 231" transform="translate(73.353 11.665)">
        <path id="Path_428" data-name="Path 428" d="M401.94,230.456h2.488a2.78,2.78,0,0,0,2.54-2.969v-6.631a2.78,2.78,0,0,0-2.54-2.969H401.94Z" transform="translate(-354.176 -199.385)" fill="#2d2d2d"/>
        <path id="Path_429" data-name="Path 429" d="M113.271,130.972H82.358a9.092,9.092,0,0,1-9.005-9.176V88.06a9.092,9.092,0,0,1,9.005-9.176h30.912a9.092,9.092,0,0,1,9.005,9.176V121.8A9.092,9.092,0,0,1,113.271,130.972Z" transform="translate(-73.353 -78.884)" fill="#444"/>
        <path id="Path_430" data-name="Path 430" d="M314.319,78.884H308.4a9.176,9.176,0,0,1,9.176,9.176V121.8a9.176,9.176,0,0,1-9.176,9.176h5.918A9.176,9.176,0,0,0,323.5,121.8V88.06A9.176,9.176,0,0,0,314.319,78.884Z" transform="translate(-274.573 -78.884)" fill="#3d3d3d"/>
        <path id="Path_431" data-name="Path 431" d="M136.58,154.636H107.03a5.587,5.587,0,0,1-5.523-5.649v-30.85a5.587,5.587,0,0,1,5.523-5.649h29.55a5.587,5.587,0,0,1,5.523,5.649v30.851A5.587,5.587,0,0,1,136.58,154.636Z" transform="translate(-97.344 -107.59)" fill="#5b5b5b"/>
        <g id="Group_230" data-name="Group 230" transform="translate(22.971 15.692)">
          <path id="Path_434" data-name="Path 434" d="M268.468,164.4H257.123a1.117,1.117,0,0,1,0-2.218h11.344a1.117,1.117,0,0,1,0,2.218Z" transform="translate(-256.141 -152.571)" fill="url(#linear-gradient)"/>
          <path id="Path_437" data-name="Path 437" d="M10.957,2.218H.873A1.013,1.013,0,0,1,0,1.109,1.013,1.013,0,0,1,.873,0H10.957a1.013,1.013,0,0,1,.873,1.109A1.013,1.013,0,0,1,10.957,2.218Z" transform="translate(0 11.83) rotate(-90)" fill="url(#linear-gradient)"/>
        </g>
        <path id="Path_436" data-name="Path 436" d="M366.811,119.961a9.158,9.158,0,0,1,.539,3.1V156.8a9.158,9.158,0,0,1-.539,3.1,5.641,5.641,0,0,0,2.293-4.544V124.505a5.641,5.641,0,0,0-2.293-4.544Z" transform="translate(-324.345 -113.887)" fill="#515151"/>
      </g>
    </g>
    <path id="Path_485" data-name="Path 485" d="M88.913,72.934,80.028,69.7l6.7-18.418a31.13,31.13,0,1,0-58.5,0l6.7,18.418L26.04,72.934l-6.7-18.418a40.586,40.586,0,1,1,76.27,0Z" transform="translate(1430.124 1968)" fill="#ed718b"/>
  </g>
</svg>
