<?xml version="1.0" encoding="iso-8859-1"?>
<!-- Generator: Adobe Illustrator 19.0.0, SVG Export Plug-In . SVG Version: 6.00 Build 0)  -->
<svg version="1.1" id="Capa_1" xmlns="http://www.w3.org/2000/svg" xmlns:xlink="http://www.w3.org/1999/xlink" x="0px" y="0px"
	 viewBox="0 0 434.872 434.872" style="enable-background:new 0 0 434.872 434.872;" xml:space="preserve">
<g>
	<g>
		<path d="M138.143,302.633c-36.461,0-66.125,29.659-66.125,66.115c0,36.461,29.664,66.125,66.125,66.125
			c36.456,0,66.116-29.664,66.116-66.125C204.259,332.291,174.599,302.633,138.143,302.633z M138.143,421.219
			c-28.933,0-52.471-23.538-52.471-52.471c0-28.926,23.538-52.461,52.471-52.461c28.928,0,52.463,23.533,52.463,52.461
			C190.606,397.68,167.071,421.219,138.143,421.219z"/>
	</g>
</g>
<g>
	<g>
		<path d="M138.143,342.285c-14.597,0-26.472,11.875-26.472,26.472c0,14.59,11.875,26.462,26.472,26.462
			c14.592,0,26.464-11.872,26.464-26.462C164.606,354.16,152.735,342.285,138.143,342.285z M138.143,381.566
			c-7.069,0-12.819-5.746-12.819-12.809c0-7.069,5.75-12.819,12.819-12.819c7.064,0,12.81,5.75,12.81,12.819
			C150.953,375.82,145.206,381.566,138.143,381.566z"/>
	</g>
</g>
<g>
	<g>
		<path d="M310.98,302.633c-36.461,0-66.125,29.659-66.125,66.115c0,36.461,29.664,66.125,66.125,66.125
			c36.456,0,66.116-29.664,66.116-66.125C377.096,332.291,347.436,302.633,310.98,302.633z M310.98,421.219
			c-28.933,0-52.471-23.538-52.471-52.471c0-28.926,23.538-52.461,52.471-52.461c28.928,0,52.463,23.533,52.463,52.461
			C363.443,397.68,339.908,421.219,310.98,421.219z"/>
	</g>
</g>
<g>
	<g>
		<path d="M310.98,342.285c-14.595,0-26.47,11.875-26.47,26.472c0,14.59,11.875,26.462,26.47,26.462
			c14.592,0,26.462-11.872,26.464-26.462C337.444,354.16,325.572,342.285,310.98,342.285z M310.98,381.566
			c-7.067,0-12.817-5.746-12.817-12.809c0-7.069,5.75-12.819,12.817-12.819c7.062,0,12.809,5.75,12.81,12.819
			C323.79,375.82,318.044,381.566,310.98,381.566z"/>
	</g>
</g>
<g>
	<g>
		<path d="M250.211,364.303c-17.294,4.756-36.589,2.553-52.369-6.118l-6.576,11.965c12.274,6.746,26.209,10.312,40.294,10.312
			c7.557,0,15.049-1.007,22.272-2.995L250.211,364.303z"/>
	</g>
</g>
<g>
	<g>
		<path d="M231.56,212.884c-14.141,0-28.112,3.584-40.402,10.365l6.596,11.953c10.274-5.67,21.965-8.666,33.806-8.666
			c38.671,0,70.132,31.461,70.132,70.132c0,3.854-0.324,7.77-0.964,11.646l13.471,2.225c0.761-4.61,1.149-9.276,1.147-13.87
			C315.346,250.47,277.76,212.884,231.56,212.884z"/>
	</g>
</g>
<g>
	<g>
		<path d="M339.85,233.149c-17.582,0-34.534,7.381-46.507,20.25l9.996,9.3c9.4-10.102,22.707-15.896,36.511-15.896
			c27.496,0,49.865,22.369,49.865,49.865c0,18.724-10.332,35.707-26.964,44.317l6.277,12.124
			c21.183-10.965,34.34-32.594,34.34-56.441C403.369,261.644,374.874,233.149,339.85,233.149z"/>
	</g>
</g>
<g>
	<g>
		<path d="M47.266,296.668c0-20.224,7.262-39.803,20.446-55.127l-10.349-8.904c-15.314,17.801-23.748,40.54-23.748,64.031
			c0,31.263,15.094,60.937,40.376,79.379l8.045-11.03C60.264,349.134,47.266,323.584,47.266,296.668z"/>
	</g>
</g>
<g>
	<g>
		<path d="M167.579,205.189l-4.973,12.715c32.65,12.771,53.748,43.687,53.748,78.763c0,22.54-8.769,43.744-24.69,59.704l9.667,9.643
			c18.493-18.538,28.679-43.165,28.677-69.347C230.007,255.93,205.503,220.023,167.579,205.189z"/>
	</g>
</g>
<g>
	<g>
		<path d="M96.215,57.941c-53.035,0-96.181,43.143-96.181,96.172c0,53.035,43.146,96.181,96.181,96.181s96.181-43.146,96.181-96.181
			C192.396,101.084,149.25,57.941,96.215,57.941z M96.215,236.641c-45.507,0-82.528-37.021-82.528-82.528
			c0-45.501,37.021-82.519,82.528-82.519c45.507,0,82.528,37.018,82.528,82.519C178.742,199.618,141.72,236.641,96.215,236.641z"/>
	</g>
</g>
<g>
	<g>
		<path d="M392.125,253.957c-3.208,0-6.455,0.369-9.648,1.097l3.036,13.312c2.2-0.502,4.424-0.756,6.612-0.756
			c16.024,0,29.059,13.039,29.059,29.068c0,16.024-13.036,29.059-29.059,29.059c-2.388,0-4.763-0.29-7.06-0.862l-3.299,13.249
			c3.374,0.84,6.861,1.266,10.359,1.266c23.55,0,42.711-19.162,42.713-42.713C434.838,273.121,415.677,253.957,392.125,253.957z"/>
	</g>
</g>
<g>
	<g>
		<rect x="69.814" y="45.039" transform="matrix(0.2589 -0.9659 0.9659 0.2589 14.5334 122.6739)" width="34.79" height="13.653"/>
	</g>
</g>
<g>
	<g>
		<path d="M114.416,11.141c-2.971-5.149-7.77-8.832-13.512-10.37c-5.745-1.543-11.744-0.754-16.896,2.22
			c-5.152,2.973-8.835,7.776-10.37,13.513c-1.541,5.745-0.753,11.744,2.22,16.894c2.971,5.149,7.772,8.832,13.52,10.375
			c1.918,0.512,3.845,0.758,5.743,0.758c9.829,0,18.852-6.571,21.518-16.507C118.176,22.285,117.388,16.288,114.416,11.141z
			 M103.453,24.489c-1.23,4.588-5.961,7.32-10.54,6.096c-2.222-0.597-4.079-2.021-5.229-4.012c-1.149-1.99-1.452-4.309-0.855-6.535
			c0.594-2.219,2.016-4.074,4.007-5.222c1.326-0.765,2.797-1.155,4.287-1.155c0.747,0,1.5,0.097,2.243,0.297l0.005,0.002
			c2.219,0.592,4.072,2.016,5.221,4.006C103.74,19.954,104.045,22.273,103.453,24.489z"/>
	</g>
</g>
<g>
	<g>
		<rect x="136.314" y="59.304" transform="matrix(0.5 -0.866 0.866 0.5 19.5826 166.1788)" width="34.79" height="13.653"/>
	</g>
</g>
<g>
	<g>
		<path d="M190.522,33.839c-1.539-5.745-5.222-10.545-10.371-13.517c-5.147-2.971-11.145-3.76-16.888-2.224
			c-5.746,1.538-10.547,5.221-13.517,10.368c-6.137,10.627-2.487,24.269,8.148,30.418c3.495,2.012,7.315,2.97,11.085,2.97
			c7.702,0,15.201-3.994,19.314-11.121C191.269,45.586,192.061,39.586,190.522,33.839z M176.469,43.904
			c-2.371,4.108-7.644,5.523-11.75,3.156c-4.111-2.377-5.524-7.654-3.149-11.767c1.147-1.988,3.002-3.41,5.222-4.004
			c0.742-0.198,1.495-0.297,2.243-0.297c1.493,0,2.966,0.391,4.291,1.155c1.99,1.149,3.412,3.004,4.007,5.224
			C177.928,39.591,177.623,41.909,176.469,43.904z"/>
	</g>
</g>
<g>
	<g>
		<path d="M66.449,115.666h-0.911c-3.77,0-6.827,3.057-6.827,6.827s3.057,6.827,6.827,6.827h0.911c3.77,0,6.827-3.057,6.827-6.827
			S70.219,115.666,66.449,115.666z"/>
	</g>
</g>
<g>
	<g>
		<path d="M115.529,123.398h-0.911c-3.77,0-6.827,3.057-6.827,6.827c0,3.77,3.057,6.827,6.827,6.827h0.911
			c3.772,0,6.827-3.057,6.827-6.827C122.356,126.455,119.299,123.398,115.529,123.398z"/>
	</g>
</g>
<g>
	<g>
		<path d="M116.139,171.518c-1.145-3.591-4.985-5.577-8.578-4.431c-19.939,6.356-34.475,3.459-44.433-8.854
			c-2.371-2.932-6.668-3.386-9.6-1.015s-3.386,6.668-1.015,9.6c9.281,11.472,21.395,17.227,36.18,17.227
			c7.067,0,14.749-1.318,23.016-3.949C115.301,178.951,117.284,175.111,116.139,171.518z"/>
	</g>
</g>
<g>
</g>
<g>
</g>
<g>
</g>
<g>
</g>
<g>
</g>
<g>
</g>
<g>
</g>
<g>
</g>
<g>
</g>
<g>
</g>
<g>
</g>
<g>
</g>
<g>
</g>
<g>
</g>
<g>
</g>
</svg>
