<svg id="Capa_1" enable-background="new 0 0 512 512" height="512" viewBox="0 0 512 512" width="512" xmlns="http://www.w3.org/2000/svg"><path d="m235.93 20c5.51 0 10-4.49 10-10s-4.49-10-10-10c-5.52 0-10 4.49-10 10s4.48 10 10 10z"/><path d="m426 218c5.522 0 10-4.478 10-10v-60c0-5.522-4.478-10-10-10h-30v-2c0-17.664-7.677-33.566-19.865-44.556-.577-.997-11.605-10.534-20.416-24.385-11.18-17.6-16.86-36.8-16.87-57.06 0-2.641-1.06-5.21-2.92-7.07s-4.439-2.929-7.07-2.929h-47.93c-5.52 0-10 4.49-10 10s4.48 10 10 10h38.32c.859 10.74 3.13 21.35 6.76 31.56 2.751 7.75 6.296 16.982 10.543 24.455-.184-.003-.367-.015-.552-.015h-200c-.186 0-.368.012-.553.014 4.248-7.472 7.792-16.705 10.543-24.455 3.63-10.21 5.9-20.819 6.76-31.56h38.18c5.51 0 10-4.49 10-10s-4.49-10-10-10h-47.79c-2.63 0-5.21 1.069-7.07 2.93s-2.93 4.44-2.93 7.07c0 20.26-5.68 39.46-16.86 57.06-8.81 13.851-19.839 23.388-20.416 24.385-12.188 10.99-19.864 26.892-19.864 44.556v240c0 17.669 7.681 33.575 19.875 44.564.568.987 37.268 32.665 37.268 81.436 0 5.522 4.477 10 10 10h185.714c5.522 0 10-4.478 10-10 0-48.771 36.7-80.448 37.267-81.435 12.195-10.99 19.876-26.896 19.876-44.565v-8h10c16.542 0 30-13.458 30-30v-20c0-16.542-13.458-30-30-30h-10v-70zm-10-60v40h-20v-40zm-40 218c0 22.056-17.944 40-40 40h-200c-22.056 0-40-17.944-40-40v-240c0-22.056 17.944-40 40-40h200c22.056 0 40 17.944 40 40zm-56.75 116h-166.5c-1.842-23.271-9.885-42.107-18.461-56.043.57.016 1.137.043 1.711.043h200c.574 0 1.141-.027 1.711-.043-8.576 13.936-16.619 32.772-18.461 56.043zm86.75-184c5.514 0 10 4.486 10 10v20c0 5.514-4.486 10-10 10h-10v-40z"/><path d="m258.5 290.561c-8.724 0-16.656 3.455-22.5 9.069-5.844-5.614-13.776-9.069-22.5-9.069-17.92 0-32.5 14.579-32.5 32.5 0 7.623 2.701 15.04 7.605 20.884.033.039.066.078.099.117l39.734 45.921c1.899 2.195 4.659 3.457 7.562 3.457s5.663-1.262 7.563-3.457l39.733-45.921c.034-.039.067-.078.101-.118 4.903-5.845 7.604-13.261 7.604-20.883-.001-17.921-14.58-32.5-32.501-32.5zm9.616 40.478-32.116 37.117-32.117-37.119c-1.326-1.597-2.883-4.263-2.883-7.977 0-6.893 5.607-12.5 12.5-12.5s12.5 5.607 12.5 12.5c0 5.522 4.477 10 10 10 5.522 0 10-4.478 10-10 0-6.893 5.607-12.5 12.5-12.5s12.5 5.607 12.5 12.5c0 3.714-1.558 6.381-2.884 7.979z"/><path d="m190.327 256.49c.317 0 .638-.016.959-.046 5.49-.521 9.521-5.399 9.011-10.89-.028-.307-1.568-18.585 4.1-44.055h16.576c5.523 0 10-4.478 10-10s-4.477-10-10-10h-10.932c4.333-12.597 10.51-26.086 19.301-39.526 2.01-3.073 2.174-7.001.427-10.23-1.747-3.23-5.124-5.243-8.796-5.243h-59.973c-5.523 0-10 4.478-10 10s4.477 10 10 10h42.455c-6.426 12.084-11.118 23.924-14.535 35h-17.235c-5.523 0-10 4.478-10 10s4.477 10 10 10h12.164c-5.23 26.117-3.591 44.625-3.461 45.967.503 5.167 4.852 9.023 9.939 9.023z"/><path d="m299.013 197.924c13.767-7.202 21.987-19.798 21.987-33.693 0-20.806-17.938-37.731-39.987-37.731s-39.986 16.926-39.986 37.731c0 5.522 4.478 10 10 10s10-4.478 10-10c0-9.777 8.966-17.731 19.986-17.731 11.021 0 19.987 7.954 19.987 17.731 0 6.313-4.209 12.283-11.258 15.971-52.446 27.433-48.834 65.78-48.655 67.399.562 5.065 4.843 8.898 9.939 8.898h59.974c5.522 0 10-4.478 10-10s-4.478-10-10-10h-48.79c2.707-9.585 11.108-25.136 36.803-38.575z"/></svg>