<svg id="Icons" height="512" viewBox="0 0 74 74" width="512" xmlns="http://www.w3.org/2000/svg"><path d="m31.77 61.92a1 1 0 0 1 -.708-.293l-4.019-4.02a1 1 0 0 1 0-1.414l29.15-29.15a1 1 0 0 1 .707-.293 1 1 0 0 1 .707.293l4.02 4.02a1 1 0 0 1 0 1.414l-12.09 12.1a1 1 0 1 1 -1.414-1.414l11.383-11.392-2.606-2.607-27.736 27.736 2.607 2.606 4.393-4.384a1 1 0 0 1 1.412 1.416l-5.1 5.09a1 1 0 0 1 -.706.292z"/><path d="m41.82 51.88a1 1 0 0 1 -.707-1.707l2.06-2.06a1 1 0 0 1 1.414 1.414l-2.06 2.06a1 1 0 0 1 -.707.293z"/><path d="m60.915 32.766a1 1 0 0 1 -.21-1.978 26.837 26.837 0 0 0 4.345-1.729c.661-.3 1.3-.6 1.883-.845a5.02 5.02 0 0 0 2.975-3.667 4.946 4.946 0 0 0 -5.794-5.793 5.025 5.025 0 0 0 -3.667 2.975c-.246.579-.54 1.22-.843 1.881a26.731 26.731 0 0 0 -1.73 4.346 1 1 0 1 1 -1.955-.421 27.186 27.186 0 0 1 1.867-4.759c.3-.643.582-1.267.821-1.83a7.026 7.026 0 0 1 5.126-4.156 6.947 6.947 0 0 1 8.138 8.138 7.019 7.019 0 0 1 -4.155 5.126c-.564.24-1.189.527-1.832.822a27.173 27.173 0 0 1 -4.757 1.867 1.027 1.027 0 0 1 -.212.023z"/><path d="m23.605 72a6.949 6.949 0 0 1 -6.815-8.266 7.02 7.02 0 0 1 4.156-5.126c.564-.24 1.189-.526 1.832-.822a27.283 27.283 0 0 1 4.757-1.867 1 1 0 1 1 .422 1.956 26.759 26.759 0 0 0 -4.344 1.725c-.662.3-1.3.6-1.884.844a5.025 5.025 0 0 0 -2.975 3.667 4.946 4.946 0 0 0 5.793 5.794 5.026 5.026 0 0 0 3.668-2.976c.247-.58.542-1.225.847-1.889a26.824 26.824 0 0 0 1.726-4.338 1 1 0 1 1 1.955.422 27.138 27.138 0 0 1 -1.864 4.75c-.3.646-.584 1.273-.824 1.838a7 7 0 0 1 -6.45 4.288z"/><path d="m17.1 47.254a1 1 0 0 1 -.708-.293l-4.019-4.02a1 1 0 0 1 0-1.414l29.15-29.15a1 1 0 0 1 .707-.293 1 1 0 0 1 .707.293l4.02 4.02a1 1 0 0 1 0 1.414l-29.15 29.15a1 1 0 0 1 -.707.293zm-2.6-5.02 2.6 2.606 27.74-27.74-2.606-2.6z"/><path d="m46.253 18.1a1 1 0 0 1 -.21-1.978 26.759 26.759 0 0 0 4.344-1.722c.662-.3 1.3-.6 1.884-.844a5.025 5.025 0 0 0 2.975-3.667 4.946 4.946 0 0 0 -5.793-5.794 5.026 5.026 0 0 0 -3.668 2.976c-.247.58-.542 1.225-.847 1.889a26.824 26.824 0 0 0 -1.726 4.34 1 1 0 1 1 -1.955-.422 27.138 27.138 0 0 1 1.864-4.75c.3-.646.584-1.273.824-1.838a7.023 7.023 0 0 1 5.127-4.157 6.948 6.948 0 0 1 8.138 8.139 7.02 7.02 0 0 1 -4.156 5.126c-.564.24-1.189.526-1.832.822a27.283 27.283 0 0 1 -4.757 1.867 1.025 1.025 0 0 1 -.212.013z"/><path d="m8.943 57.337a6.948 6.948 0 0 1 -6.814-8.265 7.019 7.019 0 0 1 4.155-5.126c.564-.24 1.189-.527 1.832-.822a27.173 27.173 0 0 1 4.757-1.867 1 1 0 1 1 .422 1.955 26.837 26.837 0 0 0 -4.345 1.729c-.661.3-1.3.6-1.883.845a5.02 5.02 0 0 0 -2.975 3.667 4.946 4.946 0 0 0 5.794 5.793 5.025 5.025 0 0 0 3.667-2.975c.246-.579.54-1.22.843-1.881a26.731 26.731 0 0 0 1.73-4.346 1 1 0 0 1 1.955.421 27.186 27.186 0 0 1 -1.867 4.759c-.295.643-.582 1.267-.821 1.83a7 7 0 0 1 -6.45 4.283z"/></svg>