<svg height="512" viewBox="0 0 128 128" width="512" xmlns="http://www.w3.org/2000/svg"><path d="m109 48.342h-.918v-6.3a1.749 1.749 0 0 0 -1.75-1.75h-10.24a1.749 1.749 0 0 0 -1.75 1.75v6.3h-.918a1.75 1.75 0 0 0 -1.75 1.75v10.044a5.62 5.62 0 0 0 5.614 5.614h2.174v28.763a12.751 12.751 0 0 1 -12.736 12.737h-27.777a12.752 12.752 0 0 1 -12.737-12.737v-4.034h3.067a5.161 5.161 0 0 0 5.155-5.154v-5a11.337 11.337 0 0 0 11.316-11.32v-22.743a1.749 1.749 0 0 0 -1.75-1.75h-4.209v-9.231a1.75 1.75 0 0 0 -1.75-1.75h-3.582v-11.163a1.75 1.75 0 1 0 -3.5 0v11.163h-12.993v-11.163a1.75 1.75 0 0 0 -3.5 0v11.163h-3.582a1.75 1.75 0 0 0 -1.75 1.75v9.231h-4.209a1.749 1.749 0 0 0 -1.75 1.75v22.743a11.337 11.337 0 0 0 11.316 11.324v5a5.16 5.16 0 0 0 5.154 5.154h3.067v4.034a16.256 16.256 0 0 0 16.237 16.233h27.777a16.255 16.255 0 0 0 16.236-16.237v-28.763h2.174a5.621 5.621 0 0 0 5.614-5.614v-10.044a1.75 1.75 0 0 0 -1.75-1.75zm-76.366-11.311h23.657v7.481h-23.657zm-5.959 31.974v-20.993h35.575v20.993a7.835 7.835 0 0 1 -7.825 7.825h-19.925a7.834 7.834 0 0 1 -7.825-7.825zm11.316 16.32v-5h12.943v5a1.657 1.657 0 0 1 -1.655 1.654h-9.634a1.656 1.656 0 0 1 -1.654-1.654zm59.851-41.537h6.74v4.554h-6.74zm9.408 16.348a2.116 2.116 0 0 1 -2.114 2.114h-7.848a2.116 2.116 0 0 1 -2.114-2.114v-8.294h12.076z"/></svg>