<svg id="Capa_1" enable-background="new 0 0 512.001 512.001" height="512" viewBox="0 0 512.001 512.001" width="512" xmlns="http://www.w3.org/2000/svg"><g><path d="m417.828 26.074-76.88-13.566c1.406-8.008 0-12.508-7.5-12.508h-155.311c-6.677 0-8.782 4.25-7.5 12.576l-76.535 13.498c-4.427 1.217-6.455 4.113-6.083 8.689l20.29 115.05c2.054 4.696 4.951 6.724 8.688 6.083 4.079-.72 6.803-4.61 6.083-8.689l-13.795-78.223 61.352-10.816v166.762.008.118l-32.81 5.785-9.067-51.433c-.718-4.079-4.604-6.805-8.688-6.084-4.079.719-6.804 4.609-6.084 8.688l56.649 322.488c0 4.142 3.357 7.5 7.5 7.5h.287c.011 0 .022.001.033.001s.022-.001.033-.001h154.949c3.442.019 6.749-2.446 7.41-6.198l64.002-362.96c.72-4.079-2.004-7.969-6.083-8.688-4.08-.715-7.969 2.005-8.688 6.084l-15.977 90.604-33.154-5.849v-.055-.008-166.831l61.698 10.883-6.888 39.065c-.72 4.079 2.004 7.969 6.083 8.688 3.738.64 6.634-1.388 8.688-6.084l13.38-75.891c.72-4.077-2.003-7.966-6.082-8.686zm-232.191 19.99h65.543l-9.21 20.484c-.88 1.956-.88 4.195-.001 6.151l12.583 27.985-12.582 27.984c-.88 1.956-.88 4.195-.001 6.151l12.584 27.986-12.584 27.991c-.879 1.956-.879 4.194 0 6.15l9.208 20.482h-65.54zm-15 194.234v176.615l-30.202-171.289zm15-7.86h139.441c.092 12.313.87 233.498.87 233.498h-140.311zm155.312 7.796 30.544 5.388-30.544 173.233zm-73.326-22.804-10.591-23.558 12.584-27.991c.879-1.956.879-4.195 0-6.151l-12.583-27.986 12.583-27.984c.879-1.956.879-4.195 0-6.151l-12.583-27.985 10.593-23.56h58.322v171.366zm58.326-202.43v16.064h-140.312v-16.064zm-219.269 39.211-2.587-14.668 66.544-11.735v15.128zm78.957 442.789v-16.064h140.312v16.064zm155.312-454.132v-15.128l66.889 11.803-2.586 14.668z"/><path d="m294.855 347.64c4.143 0 7.5-3.358 7.5-7.5v-84.14c0-4.142-3.357-7.5-7.5-7.5h-78.12c-4.143 0-7.5 3.358-7.5 7.5v191.62c0 4.142 3.357 7.5 7.5 7.5h78.12c4.143 0 7.5-3.358 7.5-7.5v-74.79c0-4.142-3.357-7.5-7.5-7.5s-7.5 3.358-7.5 7.5v67.29h-63.12v-176.62h63.12v76.64c0 4.142 3.357 7.5 7.5 7.5z"/></g></svg>