<svg id="icons" enable-background="new 0 0 64 64" height="512" viewBox="0 0 64 64" width="512" xmlns="http://www.w3.org/2000/svg"><path d="m40.997 13.977h-.999v-1.006c0-.553-.447-1-1-1h-10.922l-.149-.347c-.169-.394-.563-.612-.966-.595h-15.953c-.532 0-.956.418-.988.941h-7.013c-.553 0-1 .447-1 1v1.006h-1.008c-.553 0-1 .447-1 1v18.006.002c.002 1.859 1.283 3.413 3.005 3.86v11.132c0 2.759 2.244 5.004 5.003 5.004h25.987c2.759 0 5.003-2.245 5.003-5.004v-11.134c1.72-.449 2.998-2 3-3.857 0-.001 0-.001 0-.002v-18.006c0-.553-.447-1-1-1zm-2.999-.006v1.998h-8.2l-.86-1.998zm-6.432 11.159c.017.038.043.068.064.104.012.021.013.044.026.063.114.167.653 1.025.12 1.559-.382.383-1.011.373-1.437-.022l-2.643-2.521c-.034-.032-.076-.045-.113-.071-.066-.049-.13-.1-.207-.131-.071-.028-.146-.033-.222-.044-.051-.008-.096-.03-.148-.03-.004 0-.008.002-.013.003-.083.001-.163.027-.245.049-.045.013-.094.012-.137.03-.026.011-.047.035-.073.049-.089.049-.176.1-.246.172-.003.003-.007.004-.01.007-.032.034-.046.078-.072.115-.048.065-.099.128-.129.204s-.036.154-.048.234c-.007.046-.027.088-.027.137v13c0 .552-.448 1-1 1s-1-.448-1-1v-10c0-.553-.447-1-1-1s-1 .447-1 1v13c0 .552-.448 1-1 1s-1-.448-1-1v-13c0-.553-.447-1-1-1s-1 .447-1 1v10c0 .552-.448 1-1 1s-1-.448-1-1v-10c0-.553-.447-1-1-1s-1 .447-1 1v6c0 .552-.448 1-1 1s-1-.448-1-1v-21.008h14.348l.142.329c.001.001.001.002.001.003l1.717 3.986c.003.007.006.014.009.021zm-27.559-11.159h6.001v1.998h-6.001zm-2.008 19.009v-17.003h.008v.992c0 .552.445.998.997.999v16.741c-.598-.348-1.005-.988-1.005-1.729zm31.995 18h-25.987c-1.656 0-3.003-1.348-3.003-3.004v-30.007h5.004v16.066c0 1.654 1.346 3 3 3 .353 0 .686-.072 1-.185v1.185c0 1.654 1.346 3 3 3 .353 0 .686-.072 1-.185v.185c0 1.654 1.346 3 3 3s3-1.346 3-3v-.185c.314.112.647.185 1 .185 1.654 0 3-1.346 3-3v-10.663l.958.914c.002.002.004.002.005.003.002.002.002.003.003.004.604.564 1.363.846 2.117.846.765 0 1.521-.29 2.101-.869 1.021-1.02 1.086-2.563.195-3.968l-2.728-6.333h6.338v17.996c0 .007-.004.013-.004.02s.004.013.004.02v11.973c0 1.655-1.347 3.002-3.003 3.002zm5.003-16.276v-16.735h.001c.551 0 .996-.444.999-.995v16.006c0 .738-.405 1.376-1 1.724z"/><path d="m64.006 30.963c0-4.469-2.947-8.261-7-9.539v-3.459c.553 0 1-.447 1-1s-.447-1-1-1h-6c-.553 0-1 .447-1 1s.447 1 1 1v3.459c-4.053 1.278-7 5.07-7 9.539 0 1.5.354 2.989 1 4.334v.666c-.553 0-1 .447-1 1v13.002c0 1.654 1.346 3 3 3h13.99c.004 0 .006.002.01.002 1.654 0 3-1.346 3-3v-13.004c0-.553-.447-1-1-1v-.665c.647-1.345 1-2.833 1-4.335zm-11-12.998h2v3.049c-.329-.033-.662-.051-1-.051s-.671.018-1 .051zm8.005 33.001c-.002 0-.003-.001-.005-.001h-14c-.552 0-1-.448-1-1v-12.28c.595-.347 1-.985 1-1.722v-.873c0-.014-.007-.024-.008-.037-.002-.066-.023-.129-.039-.194s-.026-.132-.055-.191c-.005-.012-.004-.024-.01-.036-.581-1.125-.889-2.394-.889-3.668 0-4.411 3.589-8 8-8s8 3.589 8 8c0 1.293-.298 2.525-.887 3.664-.006.012-.005.025-.011.038-.03.063-.041.133-.058.203-.014.06-.033.117-.036.177-.001.016-.009.029-.009.045v.873c0 .736.405 1.375 1 1.722v12.282c.002.549-.443.995-.993.998z"/><path d="m58.006 34.965h-8c-.553 0-1 .447-1 1v8c0 .553.447 1 1 1h8c.553 0 1-.447 1-1v-8c0-.553-.447-1-1-1zm-1 8h-6v-6h6z"/></svg>