<svg xmlns="http://www.w3.org/2000/svg" width="191.844" height="80" viewBox="0 0 191.844 80">
  <g id="Слой_x0020_1" transform="translate(0.01)">
    <path id="Path_972" data-name="Path 972" d="M32.769,109.6c0,8.94-2.7,17.464-11.157,17.464S10.524,118.537,10.524,109.6c0-8.87,2.634-17.464,11.088-17.464S32.769,100.726,32.769,109.6Zm10.534,0c0-14.761-7.623-25.087-21.691-25.087C7.613,84.51-.01,94.836-.01,109.6c0,14.831,7.623,25.087,21.622,25.087C35.68,134.684,43.3,124.427,43.3,109.6Zm5.682,24.186H84.468l.9-14h-7.9l-.347,3.811c-.208,1.94-1.317,2.7-3.534,2.7H61.321c8.8-10.4,18.088-23.147,21.483-30.77a17.586,17.586,0,0,0,1.8-7.346V85.411H49.887V99.34h7.9V95.667c0-2.218.554-2.772,2.772-2.772H73.241c-4.92,9.494-15.662,23.77-24.255,33.4v7.484Z" transform="translate(0 -82.982)" fill="#0f0f0f"/>
    <path id="Path_973" data-name="Path 973" d="M8024.73,182.732h18.156V176.01h-2.633c-1.664,0-2.218-.554-2.218-2.218V149.467c5.2,6.653,16.216,24.255,20.79,33.264h8.94V143.3c0-1.663.554-2.218,2.217-2.218h1.525V134.36h-16.771v6.722h2.357c1.663,0,2.217.554,2.217,2.218v22.315c-3.326-6.168-14.622-23.7-20.929-31.255h-13.652v6.722h2.634c1.663,0,2.218.554,2.218,2.218v30.492c0,1.663-.555,2.218-2.218,2.218h-2.634v6.722Z" transform="translate(-7879.673 -131.931)" fill="#0f0f0f"/>
    <path id="Path_974" data-name="Path 974" d="M5072.778,2324.65a4.458,4.458,0,1,1-4.458,4.458A4.458,4.458,0,0,1,5072.778,2324.65Z" transform="translate(-4976.708 -2282.626)" fill="#e627b6" fill-rule="evenodd"/>
    <path id="Path_975" data-name="Path 975" d="M5310.968,1756.66a4.458,4.458,0,1,1-4.458,4.458A4.458,4.458,0,0,1,5310.968,1756.66Z" transform="translate(-5210.591 -1724.904)" fill="#e627b6" fill-rule="evenodd"/>
    <path id="Path_976" data-name="Path 976" d="M5544.578,1179.5a4.458,4.458,0,1,1-4.458,4.458A4.458,4.458,0,0,1,5544.578,1179.5Z" transform="translate(-5439.979 -1158.178)" fill="#e627b6" fill-rule="evenodd"/>
    <path id="Path_977" data-name="Path 977" d="M5791.928,565.71a4.458,4.458,0,1,1-4.458,4.458A4.459,4.459,0,0,1,5791.928,565.71Z" transform="translate(-5682.857 -555.483)" fill="#bd175f" fill-rule="evenodd"/>
    <path id="Path_978" data-name="Path 978" d="M6127.278,0a4.458,4.458,0,1,1-4.458,4.458A4.458,4.458,0,0,1,6127.278,0Z" transform="translate(-6012.145)" fill="#bd175f" fill-rule="evenodd"/>
    <path id="Path_979" data-name="Path 979" d="M7179.849,2324.65a4.458,4.458,0,1,0,4.458,4.458A4.458,4.458,0,0,0,7179.849,2324.65Z" transform="translate(-7045.688 -2282.626)" fill="#e627b6" fill-rule="evenodd"/>
    <path id="Path_980" data-name="Path 980" d="M6941.658,1756.66a4.458,4.458,0,1,0,4.458,4.458A4.458,4.458,0,0,0,6941.658,1756.66Z" transform="translate(-6811.803 -1724.904)" fill="#e627b6" fill-rule="evenodd"/>
    <path id="Path_981" data-name="Path 981" d="M6708.048,1179.5a4.458,4.458,0,1,0,4.458,4.458A4.459,4.459,0,0,0,6708.048,1179.5Z" transform="translate(-6582.416 -1158.178)" fill="#e627b6" fill-rule="evenodd"/>
    <path id="Path_982" data-name="Path 982" d="M6460.7,565.71a4.458,4.458,0,1,0,4.458,4.458A4.458,4.458,0,0,0,6460.7,565.71Z" transform="translate(-6339.538 -555.483)" fill="#bd175f" fill-rule="evenodd"/>
    <path id="Path_983" data-name="Path 983" d="M5758.7,2324.65a4.458,4.458,0,1,1-4.458,4.458A4.458,4.458,0,0,1,5758.7,2324.65Z" transform="translate(-5650.228 -2282.626)" fill="#e627b6" fill-rule="evenodd"/>
    <path id="Path_984" data-name="Path 984" d="M6473.268,2324.65a4.458,4.458,0,1,1-4.458,4.458A4.458,4.458,0,0,1,6473.268,2324.65Z" transform="translate(-6351.88 -2282.626)" fill="#e627b6" fill-rule="evenodd"/>
    <path id="Path_985" data-name="Path 985" d="M218.985,3544.147v-1.769h2.47V3536.1l.016-.765h-.032a2.879,2.879,0,0,1-.51.637l-.908.86-1.211-1.275,2.837-2.726h1.8v9.547H225.9v1.769Zm8.487-.287.606-1.769a3.646,3.646,0,0,0,1.594.366,2.547,2.547,0,0,0,2.008-.869,4.407,4.407,0,0,0,1-2.159h-.032a2.032,2.032,0,0,1-.892.574,3.52,3.52,0,0,1-1.227.223,3.381,3.381,0,0,1-2.63-1.108,3.856,3.856,0,0,1-1-2.686,3.782,3.782,0,0,1,1.036-2.694,3.533,3.533,0,0,1,2.694-1.1,3.957,3.957,0,0,1,3.108,1.45,5.775,5.775,0,0,1,1.259,3.921,8.236,8.236,0,0,1-.2,1.8,6.924,6.924,0,0,1-.629,1.713,6.253,6.253,0,0,1-1.028,1.442,4.441,4.441,0,0,1-1.466,1,4.717,4.717,0,0,1-1.889.375,5.184,5.184,0,0,1-2.311-.478Zm3.538-5.323a2.352,2.352,0,0,0,1.315-.359,1.032,1.032,0,0,0,.55-.869,3.007,3.007,0,0,0-.677-1.92,1.961,1.961,0,0,0-1.554-.853,1.56,1.56,0,0,0-1.243.534,2.007,2.007,0,0,0-.462,1.363,2.138,2.138,0,0,0,.55,1.506,1.965,1.965,0,0,0,1.522.6Zm5.969,5.323.606-1.769a3.644,3.644,0,0,0,1.594.366,2.547,2.547,0,0,0,2.008-.869,4.406,4.406,0,0,0,1-2.159h-.032a2.032,2.032,0,0,1-.892.574,3.52,3.52,0,0,1-1.227.223,3.381,3.381,0,0,1-2.63-1.108,3.856,3.856,0,0,1-1-2.686,3.782,3.782,0,0,1,1.036-2.694,3.532,3.532,0,0,1,2.693-1.1,3.957,3.957,0,0,1,3.108,1.45,5.775,5.775,0,0,1,1.259,3.921,8.237,8.237,0,0,1-.2,1.8,6.916,6.916,0,0,1-.629,1.713,6.247,6.247,0,0,1-1.028,1.442,4.441,4.441,0,0,1-1.466,1,4.718,4.718,0,0,1-1.889.375,5.184,5.184,0,0,1-2.311-.478Zm3.538-5.323a2.351,2.351,0,0,0,1.315-.359,1.031,1.031,0,0,0,.55-.869,3.007,3.007,0,0,0-.677-1.92,1.961,1.961,0,0,0-1.554-.853,1.56,1.56,0,0,0-1.243.534,2.007,2.007,0,0,0-.462,1.363,2.139,2.139,0,0,0,.55,1.506,1.965,1.965,0,0,0,1.522.6Zm5.315,4.287,1.052-1.578a3.951,3.951,0,0,0,1.171.821,3.274,3.274,0,0,0,1.41.327,2.188,2.188,0,0,0,1.45-.478,1.509,1.509,0,0,0,.574-1.211,1.466,1.466,0,0,0-.677-1.307,3.115,3.115,0,0,0-1.745-.446h-.781l-.446-1.052,2.072-2.454q.191-.239.39-.454a4.084,4.084,0,0,1,.311-.311l.112-.1v-.032a7.881,7.881,0,0,1-1,.048h-3.379v-1.769h6.9v1.291l-2.757,3.2a3.8,3.8,0,0,1,2.175,1.044,2.993,2.993,0,0,1,.9,2.255,3.588,3.588,0,0,1-1.084,2.622,3.905,3.905,0,0,1-2.9,1.091,5.522,5.522,0,0,1-2.032-.39,4.827,4.827,0,0,1-1.713-1.124Z" transform="translate(-214.864 -3468.779)" fill="#0f0f0f"/>
    <path id="Path_986" data-name="Path 986" d="M2683.69,3358.616a5.666,5.666,0,0,1,0-8.131,5.936,5.936,0,0,1,4.2-1.6,6,6,0,0,1,4.236,1.6,5.655,5.655,0,0,1,.011,8.131,6.37,6.37,0,0,1-8.45,0Zm1.019-4.066a3.331,3.331,0,0,0,.923,2.431,3.065,3.065,0,0,0,2.282.945,3.1,3.1,0,0,0,2.293-.945,3.6,3.6,0,0,0-.01-4.851,3.092,3.092,0,0,0-2.282-.955,3.057,3.057,0,0,0-2.272.955A3.319,3.319,0,0,0,2684.709,3354.55Zm11.38,5.414v-10.828h2.59v1.274l-.042.765h.042a4.351,4.351,0,0,1,1.4-1.582,4.036,4.036,0,0,1,2.442-.711q3.779,0,3.779,4.119v6.964h-2.7v-6.412a3,3,0,0,0-.372-1.646,1.471,1.471,0,0,0-1.327-.563,2.816,2.816,0,0,0-2.261,1.019,3.787,3.787,0,0,0-.86,2.527v5.074h-2.7Zm12.994-3.376v-11.7h2.675v11.295a1.886,1.886,0,0,0,.266,1.168,1.031,1.031,0,0,0,.839.319,3.047,3.047,0,0,0,.4-.021v2.356q-.573.064-.849.064a5.255,5.255,0,0,1-1.168-.117,3.447,3.447,0,0,1-1.04-.446,2.141,2.141,0,0,1-.828-1.072,5.009,5.009,0,0,1-.3-1.847Zm5.308.382a3.089,3.089,0,0,1,.626-1.953,3.581,3.581,0,0,1,1.656-1.178,10.662,10.662,0,0,1,2-.521,13.355,13.355,0,0,1,2.028-.148h.467v-.148q0-1.911-2.038-1.911a5.35,5.35,0,0,0-3.015,1.04l-1-1.932a6.185,6.185,0,0,1,1.89-.945,7.482,7.482,0,0,1,2.357-.393,4.6,4.6,0,0,1,3.312,1.136,4.18,4.18,0,0,1,1.189,3.174v6.773h-2.505v-.913l.064-.785h-.043a3.938,3.938,0,0,1-1.423,1.412,3.841,3.841,0,0,1-2,.542,3.713,3.713,0,0,1-2.537-.9A2.974,2.974,0,0,1,2714.39,3356.97Zm2.675-.233a1.351,1.351,0,0,0,.436,1,1.645,1.645,0,0,0,1.2.425,2.173,2.173,0,0,0,1.783-.892,3.091,3.091,0,0,0,.7-1.953v-.3h-.467Q2717.065,3355.017,2717.065,3356.737Zm9.066,4.968a1.919,1.919,0,0,0,3.079-.956l.4-.955-4.565-10.658h3.036l2.271,6.242.4,1.465h.042q.191-.849.361-1.423l2.123-6.284h2.93L2731.4,3361.6a4.23,4.23,0,0,1-1.582,2.123,4.1,4.1,0,0,1-2.325.7,3.907,3.907,0,0,1-1.136-.17,3.736,3.736,0,0,1-.839-.34l-.276-.191Zm3.482-13.907,1.614-2.887h2.781l-2.229,2.887Zm8.365,12.166v-10.828h2.59v1.274l-.042.764h.042a4.356,4.356,0,0,1,1.4-1.582,4.038,4.038,0,0,1,2.442-.711q3.779,0,3.779,4.119v6.964h-2.7v-6.412a3,3,0,0,0-.371-1.646,1.471,1.471,0,0,0-1.327-.563,2.815,2.815,0,0,0-2.261,1.019,3.783,3.783,0,0,0-.86,2.526v5.074h-2.7Zm18.3,0v-10.828h2.59v1.274l-.042.764h.042a4.247,4.247,0,0,1,1.391-1.592,3.585,3.585,0,0,1,2.155-.7,2.96,2.96,0,0,1,3.142,2.229h.042a4.354,4.354,0,0,1,1.486-1.571,3.925,3.925,0,0,1,2.208-.658q3.546,0,3.545,4.119v6.964h-2.675v-6.454a3.291,3.291,0,0,0-.319-1.6,1.223,1.223,0,0,0-1.167-.563,2.294,2.294,0,0,0-2.038,1.115,4.753,4.753,0,0,0-.722,2.643v4.862h-2.7v-6.454a3.5,3.5,0,0,0-.3-1.6,1.2,1.2,0,0,0-1.168-.562,2.309,2.309,0,0,0-2.049,1.136,4.732,4.732,0,0,0-.732,2.622v4.862h-2.7Zm18.535-2.994a3.089,3.089,0,0,1,.626-1.953,3.583,3.583,0,0,1,1.656-1.178,10.692,10.692,0,0,1,2-.52,13.324,13.324,0,0,1,2.028-.148h.467v-.149q0-1.911-2.038-1.911a5.347,5.347,0,0,0-3.015,1.04l-1-1.932a6.18,6.18,0,0,1,1.89-.945,7.476,7.476,0,0,1,2.357-.393,4.6,4.6,0,0,1,3.312,1.136,4.181,4.181,0,0,1,1.189,3.174v6.773h-2.505v-.913l.064-.786h-.042a3.939,3.939,0,0,1-1.423,1.412,3.845,3.845,0,0,1-2,.542,3.713,3.713,0,0,1-2.537-.9,2.973,2.973,0,0,1-1.03-2.346Zm2.675-.233a1.349,1.349,0,0,0,.435,1,1.644,1.644,0,0,0,1.2.425,2.175,2.175,0,0,0,1.784-.892,3.094,3.094,0,0,0,.7-1.954v-.3h-.467Q2777.49,3355.017,2777.49,3356.737Zm9.554,3.227v-10.828h2.591v1.911l-.043.743h.043a4.34,4.34,0,0,1,1.316-2,3.159,3.159,0,0,1,2.123-.807,4.571,4.571,0,0,1,.51.042v2.654a3.657,3.657,0,0,0-.658-.042,2.721,2.721,0,0,0-2.378,1.146,4.746,4.746,0,0,0-.807,2.8v4.374h-2.7Zm8.408,0V3344.89h2.7v8.068h1.337l2.612-3.822h2.994l-3.418,4.841v.042l3.843,5.945h-3.1l-2.866-4.734h-1.4v4.734h-2.7Zm10.573-5.414a5.612,5.612,0,0,1,1.539-4.087,5.309,5.309,0,0,1,3.981-1.582,4.44,4.44,0,0,1,3.524,1.455,5.385,5.385,0,0,1,1.274,3.683,9.059,9.059,0,0,1-.085,1.041h-7.452a2.97,2.97,0,0,0,1.04,2.112,3.357,3.357,0,0,0,2.208.754,4.9,4.9,0,0,0,3.1-1.189l1.062,1.932a5.835,5.835,0,0,1-1.985,1.135,7.1,7.1,0,0,1-2.367.414,5.655,5.655,0,0,1-4.225-1.646,5.529,5.529,0,0,1-1.613-4.023Zm2.845-1.337h4.777a2.362,2.362,0,0,0-.626-1.677,2.066,2.066,0,0,0-1.539-.616,2.486,2.486,0,0,0-1.72.626,2.846,2.846,0,0,0-.892,1.667Zm10.255,2.781v-4.565h-1.4v-2.144h1.465v-3.1h2.633v3.1h2.463v2.144h-2.463v4.225a1.768,1.768,0,0,0,.669,1.6,2.646,2.646,0,0,0,1.475.436,2.505,2.505,0,0,0,.488-.042v2.357q-.637.063-.828.064a7.383,7.383,0,0,1-1.062-.074,5.494,5.494,0,0,1-1.168-.329,3.822,3.822,0,0,1-1.136-.669,3.192,3.192,0,0,1-.807-1.189,4.616,4.616,0,0,1-.329-1.815Z" transform="translate(-2633.497 -3284.423)" fill="#cf1c8f"/>
  </g>
</svg>
