<svg height="512pt" viewBox="-64 0 512 512.001" width="512pt" xmlns="http://www.w3.org/2000/svg"><path d="m383.097656 190.339844-36.265625-83.15625v-75.996094c.003907-17.195312-13.988281-31.1875-31.1875-31.1875h-238.492187c-17.199219 0-31.1875 13.992188-31.1875 31.1875v75.707031l-43.683594 82.914063c-4.035156 4.15625-1.316406 2.226562-2.117188 104.40625 0 4.144531 3.355469 7.5 7.5 7.5 4.140626 0 7.5-3.355469 7.5-7.5v-91.03125h68.683594v293.816406h-52.417968c-8.96875 0-16.265626-7.296875-16.265626-16.265625v-158.519531c0-4.140625-3.359374-7.5-7.5-7.5-4.144531 0-7.5 3.359375-7.5 7.5v158.519531c0 17.238281 14.023438 31.265625 31.265626 31.265625h322.050781c17.238281 0 31.265625-14.023438 31.265625-31.265625-.644532-302.628906 1.503906-286.46875-1.648438-290.394531zm-330.273437-64.285156 26.789062 61.476562h-59.175781zm43.175781 61.476562-31.082031-71.28125h269.503906l31.085937 71.28125zm-35.035156-156.34375c0-8.925781 7.261718-16.1875 16.1875-16.1875h238.492187c8.925781 0 16.1875 7.261719 16.1875 16.1875v70.0625h-270.867187zm292.515625 465.8125h-254.632813v-293.8125h270.898438v277.546875c0 8.96875-7.296875 16.265625-16.265625 16.265625zm0 0"/><path d="m234.296875 241.765625c-59.550781 0-108 48.449219-108 108s48.449219 108 108 108 108-48.449219 108-108-48.449219-108-108-108zm0 201c-51.28125 0-93-41.71875-93-93s41.71875-93 93-93 93 41.71875 93 93-41.71875 93-93 93zm0 0"/><path d="m207.796875 327.265625h53c4.144531 0 7.5-3.355469 7.5-7.5s-3.355469-7.5-7.5-7.5h-53c-4.144531 0-7.5 3.355469-7.5 7.5s3.355469 7.5 7.5 7.5zm0 0"/><path d="m172.796875 342.265625c-4.144531 0-7.5 3.355469-7.5 7.5s3.355469 7.5 7.5 7.5h123c4.144531 0 7.5-3.355469 7.5-7.5s-3.355469-7.5-7.5-7.5zm0 0"/><path d="m260.796875 372.265625h-53c-4.144531 0-7.5 3.355469-7.5 7.5s3.355469 7.5 7.5 7.5h53c4.144531 0 7.5-3.355469 7.5-7.5s-3.359375-7.5-7.5-7.5zm0 0"/><path d="m254.398438 29.625h-25.042969c-4.144531 0-7.5 3.355469-7.5 7.5s3.355469 7.5 7.5 7.5h25.042969c7.445312 0 13.5 6.054688 13.5 13.5s-6.054688 13.5-13.5 13.5h-116c-7.445313 0-13.5-6.058594-13.5-13.5 0-7.445312 6.054687-13.5 13.5-13.5h62.957031c4.140625 0 7.5-3.355469 7.5-7.5s-3.359375-7.5-7.5-7.5h-62.957031c-15.714844 0-28.5 12.785156-28.5 28.5s12.785156 28.5 28.5 28.5h116c15.714843 0 28.5-12.785156 28.5-28.5s-12.785157-28.5-28.5-28.5zm0 0"/></svg>