<svg id="Capa_1" enable-background="new 0 0 512 512" height="512" viewBox="0 0 512 512" width="512" xmlns="http://www.w3.org/2000/svg"><g><path d="m345.06 260.53-34.979 9.373-24.081-13.903 24.081-13.903 34.979 9.373 7.765-28.978-26.492-7.098 7.099-26.493-28.979-7.764-9.372 34.98-24.081 13.903v-27.807l25.606-25.607-21.212-21.212-19.394 19.393-19.394-19.393-21.212 21.212 25.606 25.607v27.807l-24.081-13.904-9.373-34.979-28.977 7.764 7.098 26.493-26.492 7.098 7.765 28.978 34.979-9.373 24.081 13.903-24.081 13.903-34.979-9.373-7.765 28.978 26.492 7.098-7.098 26.493 28.977 7.764 9.373-34.979 24.081-13.904v27.807l-25.606 25.607 21.212 21.212 19.394-19.393 19.394 19.393 21.212-21.212-25.606-25.607v-27.807l24.081 13.903 9.372 34.98 28.979-7.764-7.099-26.493 26.492-7.098z"/><path d="m451 256c0-74.788-22.364-156.336-28.934-178.678l38.027-77.322h-408.186l38.027 77.321c-6.57 22.343-28.934 103.891-28.934 178.679s22.364 156.336 28.934 178.679l-38.027 77.321h408.186l-38.027-77.322c6.57-22.342 28.934-103.89 28.934-178.678zm-333.76 165c-7.519-26.733-26.24-99.844-26.24-165s18.721-138.267 26.24-165h277.52c7.519 26.733 26.24 99.844 26.24 165 0 65.158-18.722 138.27-26.24 165zm294.667-391-15.246 31h-281.322l-15.246-31zm-311.814 452 15.246-31h281.322l15.246 31z"/></g></svg>