<svg id="Layer_1" enable-background="new 0 0 510.739 510.739" height="512" viewBox="0 0 510.739 510.739" width="512" xmlns="http://www.w3.org/2000/svg"><path d="m497.579 133.859-31.82-31.82-63.639-63.641-21.214 21.214c-9.484-9.246-11.4-12.025-16.819-15.779v-37.253h-30v29.482c-10.019.974-19.771 5.288-27.427 12.944l-21.213-21.213-21.213 21.213 21.213 21.213-21.214 21.213-21.213-21.213-21.213 21.213 21.213 21.213c-7.456 7.455-11.971 17.066-12.969 27.428h-29.458v30h37.243c3.753 5.398 6.578 7.374 15.791 16.818l-240.468 240.468c-17.546 17.547-17.546 46.094 0 63.641 17.546 17.545 46.094 17.545 63.639 0l240.468-240.469 31.82 31.82c17.546 17.545 46.095 17.545 63.64 0l84.853-84.854c17.546-17.544 17.546-46.093 0-63.638zm-233.344 21.213c-5.849-5.85-5.849-15.365 0-21.215l63.639-63.639c5.85-5.848 15.366-5.85 21.214 0l10.606 10.606-84.852 84.853zm-208.649 314.715c-5.849 5.848-15.365 5.848-21.213 0-5.849-5.85-5.849-15.365 0-21.215l367.747-367.748 21.213 21.215zm420.78-293.502-10.607 10.606-21.214-21.214-21.213 21.213 21.214 21.214-21.214 21.214-21.213-21.213-21.213 21.213 21.213 21.213-10.607 10.607c-5.849 5.848-15.363 5.85-21.214 0l-31.82-31.82 106.066-106.066 31.82 31.82c5.851 5.849 5.851 15.364.002 21.213z"/></svg>