<?xml version="1.0" encoding="iso-8859-1"?>
<!-- Generator: Adobe Illustrator 19.0.0, SVG Export Plug-In . SVG Version: 6.00 Build 0)  -->
<svg version="1.1" id="Capa_1" xmlns="http://www.w3.org/2000/svg" xmlns:xlink="http://www.w3.org/1999/xlink" x="0px" y="0px"
	 viewBox="0 0 511.999 511.999" style="enable-background:new 0 0 511.999 511.999;" xml:space="preserve">
<g>
	<g>
		<path d="M317.42,165.623h0.01H317.42z"/>
	</g>
</g>
<g>
	<g>
		<path d="M395.2,104.989l-28.877-4.704c-4.101-0.67-7.968,2.115-8.636,6.216s2.115,7.967,6.216,8.635l28.877,4.704
			c0.409,0.067,0.817,0.099,1.218,0.099c3.623,0,6.815-2.624,7.417-6.314C402.084,109.522,399.3,105.657,395.2,104.989z"/>
	</g>
</g>
<g>
	<g>
		<path d="M161.993,47.251c-2.778-3.09-7.534-3.346-10.625-0.565l-26.914,24.197c-3.09,2.779-3.343,7.536-0.564,10.625
			c1.486,1.652,3.537,2.494,5.597,2.494c1.791,0,3.591-0.637,5.028-1.928l26.914-24.197
			C164.519,55.097,164.772,50.34,161.993,47.251z"/>
	</g>
</g>
<g>
	<g>
		<path d="M161.993,89.838c-2.778-3.089-7.534-3.345-10.625-0.565l-26.914,24.197c-3.09,2.779-3.343,7.536-0.564,10.625
			c1.486,1.652,3.537,2.494,5.597,2.494c1.791,0,3.591-0.637,5.028-1.928l26.914-24.197
			C164.519,97.685,164.772,92.928,161.993,89.838z"/>
	</g>
</g>
<g>
	<g>
		<path d="M161.993,132.425c-2.78-3.093-7.536-3.341-10.625-0.565l-26.914,24.198c-3.09,2.779-3.343,7.536-0.564,10.625
			c1.486,1.652,3.538,2.494,5.597,2.494c1.792,0,3.59-0.637,5.028-1.928l26.914-24.198
			C164.519,140.272,164.772,135.515,161.993,132.425z"/>
	</g>
</g>
<g>
	<g>
		<path d="M440.799,289.677c-0.162-4.153-3.646-7.398-7.811-7.224c-4.152,0.162-7.387,3.659-7.224,7.811l8.049,206.688H180.764
			c-4.156,0-7.524,3.368-7.524,7.523c0,4.156,3.368,7.524,7.524,7.524h255.656c3.392,0,6.686-1.402,9.037-3.847
			c2.351-2.444,3.625-5.791,3.493-9.18L440.799,289.677z"/>
	</g>
</g>
<g>
	<g>
		<path d="M438.449,101.115l-28.934-25.347l1.431-8.783l0.757,0.123c0.683,0.112,1.365,0.167,2.044,0.167
			c2.607,0,5.141-0.813,7.299-2.365c2.719-1.956,4.512-4.854,5.051-8.161l2.562-15.724c1.113-6.824-3.535-13.281-10.36-14.394
			l-49.013-7.985c-6.828-1.111-13.278,3.538-14.391,10.359l-2.562,15.725c-0.539,3.307,0.242,6.624,2.199,9.343
			c1.956,2.719,4.854,4.512,8.161,5.051l0.759,0.124l-1.555,9.547l-34.132,14.287c-6.317,2.644-10.746,8.257-11.846,15.016
			l-2.354,14.45c-1.815-1.35-3.86-2.533-6.17-3.502c-8.719-5.088-19.102-5.899-30.068-2.336c-1.36,0.442-2.675,0.939-3.949,1.466
			l4.981-26.678c0.763-4.085-1.93-8.015-6.014-8.777c-4.089-0.773-8.015,1.929-8.778,6.014l-4.981,26.68
			c-0.997-0.951-2.045-1.89-3.155-2.793c-8.998-7.325-19.043-10.307-29.073-8.642c-2.233,0.179-8.272,1.126-14.964,5.843
			c-5.464-36.392-15.752-64.187-30.762-82.922C172.025,6.161,159.154,0,145.318,0c-0.001,0,0,0-0.001,0
			c-13.836,0-26.707,6.161-35.314,16.901C88.764,43.409,76.966,88.034,74.935,149.537c-0.003,0.082-0.004,0.165-0.004,0.248
			L63.049,498.972c-0.132,3.39,1.141,6.736,3.493,9.18c2.352,2.445,5.646,3.847,9.037,3.847h51.517c4.156,0,7.523-3.368,7.523-7.524
			c0-4.156-3.368-7.523-7.523-7.523H78.187l11.412-293.085c0.128-0.073,0.248-0.158,0.379-0.226v-9.508l0.496-12.734
			c4.025,1.287,6.836,3.898,10.317,7.139c5.765,5.368,12.939,12.049,26.672,12.049c13.733,0,20.906-6.681,26.67-12.049
			c4.995-4.652,8.605-8.014,16.415-8.014c7.813,0,11.422,3.361,16.418,8.015c5.765,5.368,12.941,12.049,26.674,12.049
			c13.734,0,20.908-6.681,26.673-12.049c4.996-4.653,8.606-8.015,16.418-8.015c7.814,0,11.423,3.361,16.419,8.015
			c5.765,5.367,12.941,12.049,26.674,12.049c13.735,0,20.909-6.681,26.674-12.049c4.996-4.652,8.606-8.014,16.418-8.014
			c7.815,0,11.424,3.361,16.422,8.015c5.765,5.367,12.941,12.048,26.676,12.048c13.735,0,20.91-6.681,26.675-12.048
			c3.043-2.833,5.575-5.181,8.852-6.589l2.103,54.029c0.158,4.052,3.493,7.231,7.513,7.231c0.099,0,0.198-0.002,0.298-0.006
			c4.152-0.162,7.387-3.658,7.224-7.811c0,0-2.044-61.663-2.044-62.392c0-0.761-0.115-1.495-0.325-2.188
			c0.005,0.001,0.011,0.001,0.016,0.001c0.309-5.601-1.109-10.984-3.831-15.565c0.254-0.166,0.511-0.325,0.759-0.503
			c4.274-3.077,7.094-7.634,7.941-12.831l3.715-22.803C446.015,112.357,443.599,105.629,438.449,101.115z M200.655,180.621
			c-1.115-0.938-2.233-1.976-3.432-3.093c-5.765-5.368-12.94-12.049-26.673-12.049c-13.732,0-20.906,6.681-26.67,12.049
			c-4.995,4.652-8.605,8.014-16.415,8.014c-7.812,0-11.421-3.361-16.417-8.014c-4.922-4.584-10.886-10.109-21.068-11.631V149.91
			c1.329-39.987,7.925-93.841,31.767-123.599c5.735-7.159,14.328-11.263,23.573-11.263s17.836,4.106,23.57,11.263
			c23.844,29.759,30.438,83.612,31.768,123.599V180.621z M309.998,164.4c-0.639,3.887-1.359,7.797-2.055,11.577
			c-0.197,1.068-0.394,2.136-0.59,3.209c-0.069,0.217-0.127,0.438-0.176,0.663c-0.371,1.693-0.772,3.286-1.194,4.801
			c-1.764,0.571-3.761,0.889-6.153,0.889c-7.814,0-11.423-3.361-16.419-8.015c-5.765-5.367-12.941-12.048-26.674-12.048
			c-13.734,0-20.908,6.681-26.673,12.048c-4.532,4.221-7.935,7.37-14.357,7.92v-35.662c0-0.082-0.001-0.166-0.004-0.248
			c-0.358-10.864-1.028-21.19-1.994-30.994c6.183-8.593,12.685-9.47,13.639-9.55c0.505,0.017,0.704-0.026,1.235-0.123
			c14.269-2.58,25.023,13.051,27.984,17.897c0.032,0.053,0.071,0.101,0.105,0.153c0.077,0.119,0.156,0.235,0.239,0.349
			c0.066,0.091,0.133,0.181,0.203,0.268c0.091,0.114,0.186,0.224,0.283,0.332c0.07,0.078,0.139,0.156,0.212,0.23
			c0.11,0.113,0.226,0.22,0.344,0.326c0.068,0.061,0.134,0.124,0.204,0.183c0.135,0.114,0.277,0.22,0.421,0.324
			c0.06,0.043,0.117,0.089,0.178,0.13c0.162,0.111,0.332,0.212,0.503,0.31c0.05,0.028,0.097,0.06,0.147,0.087
			c0.181,0.098,0.37,0.186,0.561,0.269c0.047,0.021,0.091,0.045,0.138,0.064c0.179,0.074,0.365,0.136,0.551,0.197
			c0.064,0.021,0.125,0.047,0.189,0.066c0.131,0.039,0.268,0.066,0.403,0.098c0.119,0.028,0.235,0.064,0.356,0.086
			c0.042,0.008,0.085,0.01,0.127,0.017c0.209,0.036,0.417,0.065,0.625,0.082c0.067,0.006,0.134,0.005,0.202,0.009
			c0.146,0.008,0.292,0.02,0.436,0.02c0.041,0,0.081-0.005,0.122-0.005c0.068-0.001,0.135-0.006,0.203-0.009
			c0.183-0.008,0.365-0.022,0.546-0.043c0.068-0.008,0.137-0.017,0.205-0.027c0.182-0.027,0.363-0.06,0.542-0.1
			c0.063-0.014,0.126-0.026,0.188-0.042c0.199-0.05,0.395-0.108,0.589-0.173c0.038-0.013,0.078-0.023,0.116-0.037
			c0.23-0.082,0.456-0.175,0.677-0.279c0.048-0.023,0.095-0.05,0.143-0.074c0.168-0.083,0.333-0.172,0.495-0.267
			c0.071-0.042,0.141-0.088,0.211-0.133c0.14-0.089,0.277-0.183,0.411-0.281c0.038-0.028,0.079-0.051,0.116-0.08
			c17.838-13.65,29.43-8.497,32.557-6.591c0.364,0.221,0.747,0.412,1.143,0.569C311.233,126.743,314.01,139.965,309.998,164.4z
			 M369.344,33.901l44.061,7.177l-1.754,10.775l-44.061-7.176L369.344,33.901z M396.017,65.044l-0.938,5.761l-14.39-2.344
			l-3.402-0.554l0.938-5.761L396.017,65.044z M402.445,177.527c-4.998,4.652-8.608,8.015-16.422,8.015
			c-7.815,0-11.425-3.362-16.423-8.015c-5.765-5.368-12.941-12.048-26.675-12.048c-8.274,0-14.157,2.43-18.796,5.531
			c0.241-1.385,0.486-2.768,0.716-4.168c0.697-4.243,1.899-11.6,1.963-19.76c0.039-0.028,0.073-0.061,0.112-0.089
			c2.158-1.552,4.694-2.365,7.301-2.365c0.676,0,1.358,0.055,2.04,0.165l21.212,3.456l53.333,8.689
			c5.125,0.835,9.021,4.683,10.174,9.438C412.317,168.366,406.944,173.34,402.445,177.527z M430.064,116.695l-3.715,22.802
			c-0.201,1.23-0.868,2.308-1.88,3.037c-1.012,0.729-2.249,1.019-3.477,0.819l-90.083-14.676c-1.23-0.201-2.308-0.868-3.037-1.88
			c-0.727-1.011-1.018-2.245-0.818-3.476l3.715-22.803c0.26-1.599,1.308-2.928,2.804-3.554l35.995-15.067l29.613,4.824
			l29.351,25.712C429.751,113.502,430.324,115.096,430.064,116.695z"/>
	</g>
</g>
<g>
</g>
<g>
</g>
<g>
</g>
<g>
</g>
<g>
</g>
<g>
</g>
<g>
</g>
<g>
</g>
<g>
</g>
<g>
</g>
<g>
</g>
<g>
</g>
<g>
</g>
<g>
</g>
<g>
</g>
</svg>
