<svg id="Capa_1" enable-background="new 0 0 512 512" height="512" viewBox="0 0 512 512" width="512" xmlns="http://www.w3.org/2000/svg"><g><path d="m403.832 391.58c7.17-13.999 12.286-29.068 15.228-44.58h32.94c33.084 0 60-26.916 60-60s-26.916-60-60-60h-30v-30h-332v119c0 26.239 6.282 52.374 18.168 75.58 5.543 10.823 12.325 21.038 20.122 30.42h-128.29v30h78.288l15 60h325.423l15-60h78.289v-30h-128.29c7.797-9.383 14.579-19.597 20.122-30.42zm48.168-134.58c16.542 0 30 13.458 30 30s-13.458 30-30 30h-30.015c.002-.333.015-.667.015-1v-59zm-181 45v15h-30v-15c0-8.271 6.729-15 15-15s15 6.729 15 15zm-151 14v-89h121v32.58c-17.459 6.192-30 22.865-30 42.42v45h90v-45c0-19.555-12.541-36.228-30-42.42v-32.58h121v89c0 41.67-18.454 80.027-50.796 106h-170.408c-32.342-25.973-50.796-64.33-50.796-106zm275.289 166h-278.578l-7.5-30h293.577z"/><path d="m196 77h120c8.271 0 15 6.729 15 15s-6.729 15-15 15h-30c-24.813 0-45 20.187-45 45v15h30v-15c0-8.271 6.729-15 15-15h30c24.813 0 45-20.187 45-45s-20.187-45-45-45h-120c-8.271 0-15-6.729-15-15v-32h-30v32c0 24.813 20.187 45 45 45z"/></g></svg>