<svg id="add" xmlns="http://www.w3.org/2000/svg" width="18.003" height="18.003" viewBox="0 0 18.003 18.003">
  <g id="Group_443" data-name="Group 443">
    <g id="Group_442" data-name="Group 442">
      <path id="Path_1004" data-name="Path 1004" d="M9,0a9,9,0,1,0,9,9A9.012,9.012,0,0,0,9,0ZM9,16.609A7.607,7.607,0,1,1,16.609,9,7.616,7.616,0,0,1,9,16.609Z"/>
    </g>
  </g>
  <g id="Group_445" data-name="Group 445" transform="translate(4.818 4.755)">
    <g id="Group_444" data-name="Group 444">
      <path id="Path_1005" data-name="Path 1005" d="M144.692,138.724H141.9v-2.789a.7.7,0,1,0-1.395,0v2.789h-2.789a.7.7,0,0,0,0,1.395h2.789v2.789a.7.7,0,1,0,1.395,0v-2.789h2.789a.7.7,0,1,0,0-1.395Z" transform="translate(-137.022 -135.238)"/>
    </g>
  </g>
</svg>
