<svg xmlns="http://www.w3.org/2000/svg" xmlns:xlink="http://www.w3.org/1999/xlink" width="30" height="30" viewBox="0 0 30 30">
  <defs>
    <linearGradient id="linear-gradient" x1="0.062" y1="0.929" x2="0.932" y2="0.067" gradientUnits="objectBoundingBox">
      <stop offset="0" stop-color="#fd5"/>
      <stop offset="0.5" stop-color="#ff543e"/>
      <stop offset="1" stop-color="#c837ab"/>
    </linearGradient>
  </defs>
  <g id="instagram" transform="translate(0.07 0.038)">
    <path id="Path_964" data-name="Path 964" d="M1.887,2.044C-.464,4.486.017,7.079.017,14.957c0,6.542-1.142,13.1,4.834,14.645,1.866.48,18.4.48,20.262,0,2.488-.642,4.512-2.659,4.789-6.177.039-.491.039-16.431,0-16.932C29.606,2.744,27.3.584,24.259.147A26.916,26.916,0,0,0,19.848.009C7.168.016,4.388-.549,1.887,2.044Z" transform="translate(0 0)" fill="url(#linear-gradient)"/>
    <path id="Path_965" data-name="Path 965" d="M14.183,3.141c-4.526,0-8.824-.4-10.466,3.81-.678,1.74-.58,4-.58,7.234,0,2.839-.091,5.507.58,7.233,1.638,4.215,5.971,3.811,10.463,3.811,4.334,0,8.8.451,10.464-3.811.679-1.757.58-3.983.58-7.233,0-4.314.238-7.1-1.855-9.19-2.119-2.118-4.985-1.853-9.192-1.853Zm-.99,1.99c9.441-.015,10.643-1.064,9.979,13.512-.236,5.155-4.162,4.59-8.988,4.59-8.8,0-9.053-.252-9.053-9.053,0-8.9.7-9.043,8.062-9.051Zm6.886,1.833A1.325,1.325,0,1,0,21.4,8.289,1.325,1.325,0,0,0,20.079,6.964Zm-5.9,1.549a5.671,5.671,0,1,0,5.67,5.671,5.672,5.672,0,0,0-5.67-5.671Zm0,1.99c4.868,0,4.874,7.362,0,7.362S9.309,10.5,14.183,10.5Z" transform="translate(0.788 0.78)" fill="#fff"/>
  </g>
</svg>
